<?xml version="1.0" encoding="UTF-8" standalone="no"?>
<!-- Created with Inkscape (http://www.inkscape.org/) -->

<svg
   xmlns:dc="http://purl.org/dc/elements/1.1/"
   xmlns:cc="http://creativecommons.org/ns#"
   xmlns:rdf="http://www.w3.org/1999/02/22-rdf-syntax-ns#"
   xmlns:svg="http://www.w3.org/2000/svg"
   xmlns="http://www.w3.org/2000/svg"
   xmlns:sodipodi="http://sodipodi.sourceforge.net/DTD/sodipodi-0.dtd"
   xmlns:inkscape="http://www.inkscape.org/namespaces/inkscape"
   width="48"
   height="48"
   viewBox="0 0 48.000001 48"
   id="svg4148"
   version="1.1"
   inkscape:version="0.91 r13725"
   sodipodi:docname="application-x-firmware.svg">
  <title
     id="title4159">Boston Icons</title>
  <defs
     id="defs4150" />
  <sodipodi:namedview
     id="base"
     pagecolor="#0f0f0f"
     bordercolor="#666666"
     borderopacity="1.0"
     inkscape:pageopacity="0"
     inkscape:pageshadow="2"
     inkscape:zoom="7.9195959"
     inkscape:cx="22.835938"
     inkscape:cy="21.601809"
     inkscape:document-units="px"
     inkscape:current-layer="layer1"
     showgrid="false"
     units="px"
     showguides="false"
     inkscape:guide-bbox="true"
     inkscape:window-width="1366"
     inkscape:window-height="704"
     inkscape:window-x="0"
     inkscape:window-y="27"
     inkscape:window-maximized="1">
    <inkscape:grid
       type="xygrid"
       id="grid4696" />
    <sodipodi:guide
       position="0,37"
       orientation="1,0"
       id="guide4698" />
    <sodipodi:guide
       position="7.0000001,48"
       orientation="0,1"
       id="guide4700" />
    <sodipodi:guide
       position="48.000001,37"
       orientation="1,0"
       id="guide4702" />
    <sodipodi:guide
       position="36.000001,0"
       orientation="0,1"
       id="guide4704" />
    <sodipodi:guide
       position="16,40"
       orientation="1,0"
       id="guide4706" />
    <sodipodi:guide
       position="32.000001,46"
       orientation="1,0"
       id="guide4708" />
    <sodipodi:guide
       position="24,40"
       orientation="1,0"
       id="guide4710" />
    <sodipodi:guide
       position="8.0000002,44"
       orientation="1,0"
       id="guide4712" />
    <sodipodi:guide
       position="40.000001,41"
       orientation="1,0"
       id="guide4714" />
    <sodipodi:guide
       position="2,40"
       orientation="0,1"
       id="guide4716" />
    <sodipodi:guide
       position="3.0000001,32"
       orientation="0,1"
       id="guide4718" />
    <sodipodi:guide
       position="7.0000001,24"
       orientation="0,1"
       id="guide4720" />
    <sodipodi:guide
       position="20,16"
       orientation="0,1"
       id="guide4722" />
    <sodipodi:guide
       position="8.0000002,8"
       orientation="0,1"
       id="guide4724" />
    <sodipodi:guide
       position="33.000001,33"
       orientation="-0.70710678,0.70710678"
       id="guide4726" />
    <sodipodi:guide
       position="18,30"
       orientation="0.70710678,0.70710678"
       id="guide4728" />
    <sodipodi:guide
       position="2,27"
       orientation="1,0"
       id="guide4158" />
    <sodipodi:guide
       position="7.0000001,46"
       orientation="0,1"
       id="guide4160" />
    <sodipodi:guide
       position="46.000001,36"
       orientation="1,0"
       id="guide4162" />
    <sodipodi:guide
       position="30.000001,2"
       orientation="0,1"
       id="guide4164" />
    <sodipodi:guide
       position="12,40"
       orientation="0,1"
       id="guide4179" />
  </sodipodi:namedview>
  <metadata
     id="metadata4153">
    <rdf:RDF>
      <cc:Work
         rdf:about="">
        <dc:format>image/svg+xml</dc:format>
        <dc:type
           rdf:resource="http://purl.org/dc/dcmitype/StillImage" />
        <dc:title>Boston Icons</dc:title>
        <dc:description>diazchris.deviantart.com</dc:description>
        <dc:creator>
          <cc:Agent>
            <dc:title>Chris D</dc:title>
          </cc:Agent>
        </dc:creator>
        <dc:publisher>
          <cc:Agent>
            <dc:title>Chris D</dc:title>
          </cc:Agent>
        </dc:publisher>
      </cc:Work>
    </rdf:RDF>
  </metadata>
  <g
     inkscape:label="Capa 1"
     inkscape:groupmode="layer"
     id="layer1"
     transform="translate(0,-1004.3622)">
    <rect
       style="opacity:0.99957718;fill:#e0e4e7;fill-opacity:1;fill-rule:nonzero;stroke:#b6c1c9;stroke-width:1;stroke-linecap:square;stroke-linejoin:miter;stroke-miterlimit:4;stroke-dasharray:none;stroke-dashoffset:0;stroke-opacity:1"
       id="rect4164"
       width="4"
       height="6.0000172"
       x="10"
       y="1006.3622" />
    <rect
       style="opacity:0.99957718;fill:#e0e4e7;fill-opacity:1;fill-rule:nonzero;stroke:#b6c1c9;stroke-width:1;stroke-linecap:square;stroke-linejoin:miter;stroke-miterlimit:4;stroke-dasharray:none;stroke-dashoffset:0;stroke-opacity:1"
       id="rect4166"
       width="4"
       height="5.9999828"
       x="34.000023"
       y="1006.3622" />
    <rect
       style="opacity:0.99957718;fill:#e0e4e7;fill-opacity:1;fill-rule:nonzero;stroke:#b6c1c9;stroke-width:1;stroke-linecap:square;stroke-linejoin:miter;stroke-miterlimit:4;stroke-dasharray:none;stroke-dashoffset:0;stroke-opacity:1"
       id="rect4175"
       width="4"
       height="6"
       x="26"
       y="1006.3622" />
    <rect
       style="opacity:0.99957718;fill:#e0e4e7;fill-opacity:1;fill-rule:nonzero;stroke:#b6c1c9;stroke-width:1;stroke-linecap:square;stroke-linejoin:miter;stroke-miterlimit:4;stroke-dasharray:none;stroke-dashoffset:0;stroke-opacity:1"
       id="rect4177"
       width="4.0000005"
       height="6"
       x="18.000002"
       y="1006.3622" />
    <rect
       style="opacity:0.99957718;fill:#e0e4e7;fill-opacity:1;fill-rule:nonzero;stroke:#b6c1c9;stroke-width:1;stroke-linecap:square;stroke-linejoin:miter;stroke-miterlimit:4;stroke-dasharray:none;stroke-dashoffset:0;stroke-opacity:1"
       id="rect4179"
       width="4"
       height="6"
       x="10"
       y="1044.3622" />
    <rect
       style="opacity:0.99957718;fill:#e0e4e7;fill-opacity:1;fill-rule:nonzero;stroke:#b6c1c9;stroke-width:1;stroke-linecap:square;stroke-linejoin:miter;stroke-miterlimit:4;stroke-dasharray:none;stroke-dashoffset:0;stroke-opacity:1"
       id="rect4181"
       width="4"
       height="6"
       x="18"
       y="1044.3622" />
    <rect
       style="opacity:0.99957718;fill:#e0e4e7;fill-opacity:1;fill-rule:nonzero;stroke:#b6c1c9;stroke-width:1;stroke-linecap:square;stroke-linejoin:miter;stroke-miterlimit:4;stroke-dasharray:none;stroke-dashoffset:0;stroke-opacity:1"
       id="rect4183"
       width="4"
       height="6"
       x="26"
       y="1044.3622" />
    <rect
       style="opacity:0.99957718;fill:#e0e4e7;fill-opacity:1;fill-rule:nonzero;stroke:#b6c1c9;stroke-width:1;stroke-linecap:square;stroke-linejoin:miter;stroke-miterlimit:4;stroke-dasharray:none;stroke-dashoffset:0;stroke-opacity:1"
       id="rect4185"
       width="4"
       height="6"
       x="34"
       y="1044.3622" />
    <rect
       style="opacity:0.99957718;fill:#e0e4e7;fill-opacity:1;fill-rule:nonzero;stroke:#b6c1c9;stroke-width:1;stroke-linecap:square;stroke-linejoin:miter;stroke-miterlimit:4;stroke-dasharray:none;stroke-dashoffset:0;stroke-opacity:1"
       id="rect4187"
       width="6"
       height="4"
       x="2"
       y="1014.3622" />
    <rect
       style="opacity:0.99957718;fill:#e0e4e7;fill-opacity:1;fill-rule:nonzero;stroke:#b6c1c9;stroke-width:1;stroke-linecap:square;stroke-linejoin:miter;stroke-miterlimit:4;stroke-dasharray:none;stroke-dashoffset:0;stroke-opacity:1"
       id="rect4189"
       width="6"
       height="4"
       x="2"
       y="1022.3622" />
    <rect
       style="opacity:0.99957718;fill:#e0e4e7;fill-opacity:1;fill-rule:nonzero;stroke:#b6c1c9;stroke-width:1;stroke-linecap:square;stroke-linejoin:miter;stroke-miterlimit:4;stroke-dasharray:none;stroke-dashoffset:0;stroke-opacity:1"
       id="rect4191"
       width="6"
       height="4"
       x="2"
       y="1030.3622" />
    <rect
       style="opacity:0.99957718;fill:#e0e4e7;fill-opacity:1;fill-rule:nonzero;stroke:#b6c1c9;stroke-width:1;stroke-linecap:square;stroke-linejoin:miter;stroke-miterlimit:4;stroke-dasharray:none;stroke-dashoffset:0;stroke-opacity:1"
       id="rect4195"
       width="6"
       height="4"
       x="2"
       y="1038.3622" />
    <rect
       style="opacity:0.99957718;fill:#e0e4e7;fill-opacity:1;fill-rule:nonzero;stroke:#b6c1c9;stroke-width:1;stroke-linecap:square;stroke-linejoin:miter;stroke-miterlimit:4;stroke-dasharray:none;stroke-dashoffset:0;stroke-opacity:1"
       id="rect4197"
       width="6"
       height="4.0000172"
       x="40"
       y="1014.3622" />
    <rect
       style="opacity:0.99957718;fill:#e0e4e7;fill-opacity:1;fill-rule:nonzero;stroke:#b6c1c9;stroke-width:1;stroke-linecap:square;stroke-linejoin:miter;stroke-miterlimit:4;stroke-dasharray:none;stroke-dashoffset:0;stroke-opacity:1"
       id="rect4199"
       width="6"
       height="4"
       x="40"
       y="1022.3622" />
    <rect
       style="opacity:0.99957718;fill:#e0e4e7;fill-opacity:1;fill-rule:nonzero;stroke:#b6c1c9;stroke-width:1;stroke-linecap:square;stroke-linejoin:miter;stroke-miterlimit:4;stroke-dasharray:none;stroke-dashoffset:0;stroke-opacity:1"
       id="rect4201"
       width="6"
       height="4"
       x="40"
       y="1030.3622" />
    <rect
       style="opacity:0.99957718;fill:#e0e4e7;fill-opacity:1;fill-rule:nonzero;stroke:#b6c1c9;stroke-width:1;stroke-linecap:square;stroke-linejoin:miter;stroke-miterlimit:4;stroke-dasharray:none;stroke-dashoffset:0;stroke-opacity:1"
       id="rect4203"
       width="6"
       height="4"
       x="40"
       y="1038.3622" />
    <rect
       style="opacity:0.99957718;fill:#1a1d20;fill-opacity:1;fill-rule:nonzero;stroke:#13151a;stroke-width:1;stroke-linecap:square;stroke-linejoin:miter;stroke-miterlimit:4;stroke-dasharray:none;stroke-dashoffset:0;stroke-opacity:1"
       id="rect4162"
       width="32"
       height="32.000019"
       x="8"
       y="1012.3622"
       rx="0"
       ry="0" />
    <circle
       style="opacity:0.99957718;fill:#13151a;fill-opacity:1;fill-rule:nonzero;stroke:none;stroke-width:1;stroke-linecap:square;stroke-linejoin:miter;stroke-miterlimit:4;stroke-dasharray:none;stroke-dashoffset:0;stroke-opacity:1"
       id="path4285"
       cx="11"
       cy="1041.3622"
       r="1" />
    <circle
       style="opacity:0.99957718;fill:#13151a;fill-opacity:1;fill-rule:nonzero;stroke:none;stroke-width:1;stroke-linecap:square;stroke-linejoin:miter;stroke-miterlimit:4;stroke-dasharray:none;stroke-dashoffset:0;stroke-opacity:1"
       id="path4287"
       cx="37"
       cy="1015.3622"
       r="1" />
    <g
       style="font-style:normal;font-variant:normal;font-weight:bold;font-stretch:normal;font-size:10px;line-height:125%;font-family:'Museo Sans';-inkscape-font-specification:'Museo Sans, Bold';text-align:start;letter-spacing:0px;word-spacing:0px;writing-mode:lr-tb;text-anchor:start;fill:#464d56;fill-opacity:1;stroke:none;stroke-width:1px;stroke-linecap:butt;stroke-linejoin:miter;stroke-opacity:1"
       id="text4289"
       transform="matrix(0.41502006,0,0,0.41502006,9.6711424,597.76652)">
      <path
         d="m 12.84,1025.3622 2.63,0 c 1.42,0 2.72,-0.57 2.72,-2.13 0,-0.63 -0.3,-1.36 -1.12,-1.61 l 0,-0.02 c 0.54,-0.31 0.83,-0.92 0.83,-1.52 0,-1.23 -1,-1.87 -2.43,-1.87 l -2.63,0 0,7.15 z m 1.75,-4.38 0,-1.27 0.87,0 c 0.47,0 0.66,0.28 0.66,0.61 0,0.34 -0.19,0.66 -0.63,0.66 l -0.9,0 z m 0,2.88 0,-1.48 1.06,0 c 0.51,0 0.75,0.33 0.75,0.73 0,0.4 -0.25,0.75 -0.76,0.75 l -1.05,0 z"
         id="path4294"
         inkscape:connector-curvature="0"
         style="fill:#464d56" />
      <path
         d="m 18.932031,1021.7422 c 0,2.1 1.58,3.74 3.74,3.74 2.16,0 3.74,-1.64 3.74,-3.74 0,-2.05 -1.58,-3.65 -3.74,-3.65 -2.16,0 -3.74,1.6 -3.74,3.65 z m 1.81,0 c 0,-1.17 0.86,-2.05 1.93,-2.05 1.07,0 1.93,0.88 1.93,2.05 0,1.22 -0.86,2.14 -1.93,2.14 -1.07,0 -1.93,-0.92 -1.93,-2.14 z"
         id="path4296"
         inkscape:connector-curvature="0"
         style="fill:#464d56" />
      <path
         d="m 27.075625,1024.4622 c 0,0 0.93,1.02 2.61,1.02 1.61,0 2.52,-1.03 2.52,-2.22 0,-2.26 -3.22,-2.1 -3.22,-3 0,-0.4 0.4,-0.56 0.76,-0.56 0.86,0 1.58,0.63 1.58,0.63 l 0.74,-1.43 c 0,0 -0.76,-0.81 -2.3,-0.81 -1.42,0 -2.53,0.87 -2.53,2.19 0,2.2 3.22,2.17 3.22,3.02 0,0.43 -0.39,0.57 -0.75,0.57 -0.9,0 -1.71,-0.74 -1.71,-0.74 l -0.92,1.33 z"
         id="path4298"
         inkscape:connector-curvature="0"
         style="fill:#464d56" />
      <path
         d="m 34.776406,1025.3622 1.75,0 0,-5.65 2.17,0 0,-1.5 -6.09,0 0,1.5 2.17,0 0,5.65 z"
         id="path4300"
         inkscape:connector-curvature="0"
         style="fill:#464d56" />
      <path
         d="m 39.088281,1021.7422 c 0,2.1 1.58,3.74 3.74,3.74 2.16,0 3.74,-1.64 3.74,-3.74 0,-2.05 -1.58,-3.65 -3.74,-3.65 -2.16,0 -3.74,1.6 -3.74,3.65 z m 1.81,0 c 0,-1.17 0.86,-2.05 1.93,-2.05 1.07,0 1.93,0.88 1.93,2.05 0,1.22 -0.86,2.14 -1.93,2.14 -1.07,0 -1.93,-0.92 -1.93,-2.14 z"
         id="path4302"
         inkscape:connector-curvature="0"
         style="fill:#464d56" />
      <path
         d="m 47.761875,1025.3622 1.75,0 0,-3.33 c 0,-0.45 -0.08,-1.22 -0.08,-1.22 l 0.02,0 c 0,0 0.32,0.75 0.6,1.22 l 1.99,3.33 1.76,0 0,-7.15 -1.75,0 0,3.34 c 0,0.45 0.08,1.22 0.08,1.22 l -0.02,0 c 0,0 -0.32,-0.75 -0.6,-1.22 l -1.98,-3.34 -1.77,0 0,7.15 z"
         id="path4304"
         inkscape:connector-curvature="0"
         style="fill:#464d56" />
    </g>
    <path
       style="opacity:0.99957718;fill:#464d56;fill-opacity:1;fill-rule:nonzero;stroke:none;stroke-width:1;stroke-linecap:square;stroke-linejoin:miter;stroke-miterlimit:4;stroke-dasharray:none;stroke-dashoffset:0;stroke-opacity:1"
       d="m 13,1018.3622 0,1 0,6 1,0 20,0 0,-1 0,-5 0,-1 -1,0 -19,0 -1,0 z m 1,1 19,0 0,5 -19,0 0,-5 z"
       id="rect4306"
       inkscape:connector-curvature="0" />
    <g
       style="font-style:normal;font-variant:normal;font-weight:normal;font-stretch:normal;font-size:10px;line-height:125%;font-family:Fabrica;-inkscape-font-specification:'Fabrica, Normal';text-align:start;letter-spacing:0px;word-spacing:0px;writing-mode:lr-tb;text-anchor:start;fill:#464d56;fill-opacity:1;stroke:none;stroke-width:1px;stroke-linecap:butt;stroke-linejoin:miter;stroke-opacity:1"
       id="text4315"
       transform="matrix(0.30604778,0,0,0.30604778,8.9856903,720.54551)">
      <path
         d="m 15.828572,1010.7115 0,-6.56 -0.79,0 -1.63,0.87 0,0.9 1.63,-0.92 0,5.71 -1.57,0 0,0.74 3.58,0 0,-0.74 -1.22,0 z"
         id="path4324"
         inkscape:connector-curvature="0" />
      <path
         d="m 18.99404,1004.1515 0,0.77 2.92,0 -2.25,2.41 0.27,0.64 c 0.2,-0.1 0.52,-0.2 1.03,-0.2 0.83,0 1.43,0.6 1.43,1.55 0,0.89 -0.7,1.46 -1.6,1.46 -0.76,0 -1.52,-0.42 -1.52,-1.19 l -0.8,0 c 0,1.18 0.83,1.93 2.21,1.93 1.54,0 2.52,-0.84 2.52,-2.2 0,-1.49 -0.93,-2.27 -2.12,-2.27 l -0.07,0 1.95,-2.13 0,-0.77 -3.97,0 z"
         id="path4326"
         inkscape:connector-curvature="0" />
      <path
         d="m 25.189509,1011.4515 0,-6.04 3.75,6.04 1.01,0 0,-7.3 -0.83,0 0,6.13 -3.81,-6.13 -0.95,0 0,7.3 0.83,0 z"
         id="path4328"
         inkscape:connector-curvature="0" />
      <path
         d="m 33.470759,1004.1015 c -1.8,0 -2.57,1.7 -2.57,3.72 0,2.06 0.77,3.7 2.57,3.7 1.8,0 2.58,-1.64 2.58,-3.68 0,-2.04 -0.78,-3.74 -2.58,-3.74 z m -1.78,3.72 c 0,-0.9 0.17,-2.98 1.8,-2.98 0.59,0 0.99,0.28 1.25,0.68 l -2.81,4.02 c -0.21,-0.6 -0.24,-1.28 -0.24,-1.72 z m 1.78,2.96 c -0.58,0 -0.97,-0.25 -1.23,-0.63 l 0.03,0 2.78,-3.95 c 0.18,0.58 0.22,1.23 0.22,1.64 0,0.91 -0.16,2.94 -1.8,2.94 z"
         id="path4330"
         inkscape:connector-curvature="0" />
      <path
         d="m 36.626228,1004.1515 2.62,7.3 0.9,0 2.64,-7.3 -0.93,0 -2.14,6.23 -2.13,-6.23 -0.96,0 z"
         id="path4332"
         inkscape:connector-curvature="0" />
      <path
         d="m 46.531697,1010.7115 0,-6.56 -0.79,0 -1.63,0.87 0,0.9 1.63,-0.92 0,5.71 -1.57,0 0,0.74 3.58,0 0,-0.74 -1.22,0 z"
         id="path4334"
         inkscape:connector-curvature="0" />
      <path
         d="m 51.557165,1006.7715 c -0.2,0 -0.38,0.05 -0.5,0.09 l 1.61,-2.71 -1.01,0 -2.01,3.49 c -0.23,0.35 -0.44,1.04 -0.44,1.51 0,1.71 1.03,2.37 2.32,2.37 1.18,0 2.3,-0.66 2.3,-2.34 0,-1.47 -0.91,-2.41 -2.27,-2.41 z m -0.03,4 c -1,0 -1.48,-0.74 -1.48,-1.6 0,-0.82 0.53,-1.65 1.52,-1.65 1.05,0 1.43,0.79 1.43,1.66 0,0.94 -0.59,1.59 -1.47,1.59 z"
         id="path4336"
         inkscape:connector-curvature="0" />
      <path
         d="m 62.633259,1009.7315 c -0.34,0.6 -0.97,0.99 -1.81,0.99 -1.56,0 -2.22,-1.36 -2.22,-2.92 0,-1.51 0.67,-2.94 2.24,-2.94 0.82,0 1.43,0.43 1.78,1.04 l 0.64,-0.56 c -0.53,-0.85 -1.22,-1.28 -2.44,-1.28 -1.56,0 -3.07,1.21 -3.07,3.74 0,2.79 1.51,3.72 3.07,3.72 0.93,0 1.88,-0.31 2.45,-1.16 l -0.64,-0.63 z"
         id="path4338"
         inkscape:connector-curvature="0" />
      <path
         d="m 64.028572,1004.1515 2.62,7.3 0.9,0 2.64,-7.3 -0.93,0 -2.14,6.23 -2.13,-6.23 -0.96,0 z"
         id="path4340"
         inkscape:connector-curvature="0" />
      <path
         d="m 16.098572,1020.0515 0,0.78 1.83,0 0,1.13 c 0,0.82 -1.12,1.26 -1.72,1.26 -1.62,0 -2.41,-1.36 -2.41,-2.92 0,-1.51 0.8,-2.94 2.43,-2.94 0.82,0 1.4,0.43 1.75,1.04 l 0.64,-0.56 c -0.53,-0.85 -1.19,-1.28 -2.41,-1.28 -1.62,0 -3.26,1.21 -3.26,3.74 0,2.79 1.57,3.72 3.21,3.72 0.76,0 1.39,-0.3 1.8,-0.8 l 0.19,0.73 0.59,0 0,-3.9 -2.64,0 z"
         id="path4342"
         inkscape:connector-curvature="0" />
      <path
         d="m 20.739822,1023.9515 1.73,-2.94 1.74,2.94 1.01,0 -2.26,-3.66 2.23,-3.64 -0.95,0 -1.72,2.9 -1.63,-2.9 -0.97,0 2.14,3.66 0,0.01 -2.25,3.63 0.93,0 z"
         id="path4344"
         inkscape:connector-curvature="0" />
      <path
         d="m 32.243103,1023.9515 -2.7,-7.3 -0.9,0 -2.72,7.3 0.92,0 0.63,-1.79 3.16,0 0.64,1.79 0.97,0 z m -3.19,-6.23 1.3,3.64 -2.59,0 1.29,-3.64 z"
         id="path4346"
         inkscape:connector-curvature="0" />
      <path
         d="m 37.074822,1023.9515 0,-1.98 0.86,0 0,-0.77 -0.86,0 0,-4.55 -0.81,0 0,0.01 -3.43,4.54 0,0.77 3.43,0 0,1.98 0.81,0 z m -3.28,-2.75 2.47,-3.29 0,3.29 -2.47,0 z"
         id="path4348"
         inkscape:connector-curvature="0" />
      <path
         d="m 46.190915,1017.4715 0,-0.77 -4.54,0 0,1.64 0.79,0 0,-0.87 2.87,0 -2.82,6.48 0.87,0 2.83,-6.48 z"
         id="path4350"
         inkscape:connector-curvature="0" />
      <path
         d="m 50.206384,1024.0215 c 1.54,0 2.8,-1.05 2.8,-2.61 l 0,-4.76 -0.85,0 0,4.7 c 0,1.01 -1,1.82 -1.95,1.82 -0.94,0 -1.86,-0.81 -1.86,-1.82 l 0,-4.7 -0.88,0 0,4.76 c 0,1.56 1.2,2.61 2.74,2.61 z"
         id="path4352"
         inkscape:connector-curvature="0" />
      <path
         d="m 54.497634,1016.6515 0,7.3 0.85,0 0,-3.38 3.25,0 0,-0.8 -3.25,0 0,-2.32 3.7,0 0,-0.8 -4.55,0 z"
         id="path4354"
         inkscape:connector-curvature="0" />
      <path
         d="m 60.16029,1016.6515 0,7.3 0.84,0 0,-5.67 2,4 0.98,0 1.94,-3.97 0,5.64 0.87,0 0,-7.3 -0.9,0 -2.41,4.91 -2.44,-4.91 -0.88,0 z"
         id="path4356"
         inkscape:connector-curvature="0" />
      <path
         d="m 72.60529,1023.1815 -3.49,0 2.67,-2.85 c 0.55,-0.58 0.74,-0.99 0.74,-1.58 0,-1.2 -0.85,-2.15 -2.23,-2.15 -1.55,0 -2.21,1.3 -2.21,2.27 l 0.86,0 c 0,-0.73 0.52,-1.48 1.35,-1.48 0.89,0 1.38,0.73 1.38,1.38 0,0.39 -0.12,0.65 -0.52,1.11 l -3.08,3.3 0,0.77 4.53,0 0,-0.77 z"
         id="path4358"
         inkscape:connector-curvature="0" />
      <path
         d="m 77.701384,1020.9715 1.7,0 c 1.41,0 2.4,-0.96 2.4,-2.23 0,-1.18 -0.97,-2.09 -2.29,-2.09 l -2.67,0 0,7.3 0.86,0 0,-2.98 z m 0,-0.8 0,-2.72 1.76,0 c 0.79,0 1.49,0.57 1.49,1.32 0,0.8 -0.58,1.4 -1.45,1.4 l -1.8,0 z"
         id="path4360"
         inkscape:connector-curvature="0" />
      <path
         d="m 15.828572,1035.7115 0,-6.56 -0.79,0 -1.63,0.87 0,0.9 1.63,-0.92 0,5.71 -1.57,0 0,0.74 3.58,0 0,-0.74 -1.22,0 z"
         id="path4362"
         inkscape:connector-curvature="0" />
      <path
         d="m 21.70404,1032.5515 0,0.78 1.83,0 0,1.13 c 0,0.82 -1.12,1.26 -1.72,1.26 -1.62,0 -2.41,-1.36 -2.41,-2.92 0,-1.51 0.8,-2.94 2.43,-2.94 0.82,0 1.4,0.43 1.75,1.04 l 0.64,-0.56 c -0.53,-0.85 -1.19,-1.28 -2.41,-1.28 -1.62,0 -3.26,1.21 -3.26,3.74 0,2.79 1.57,3.72 3.21,3.72 0.76,0 1.39,-0.3 1.8,-0.8 l 0.19,0.73 0.59,0 0,-3.9 -2.64,0 z"
         id="path4364"
         inkscape:connector-curvature="0" />
      <path
         d="m 28.46529,1035.7115 0,-6.56 -0.79,0 -1.63,0.87 0,0.9 1.63,-0.92 0,5.71 -1.57,0 0,0.74 3.58,0 0,-0.74 -1.22,0 z"
         id="path4366"
         inkscape:connector-curvature="0" />
      <path
         d="m 34.070759,1035.7115 0,-6.56 -0.79,0 -1.63,0.87 0,0.9 1.63,-0.92 0,5.71 -1.57,0 0,0.74 3.58,0 0,-0.74 -1.22,0 z"
         id="path4368"
         inkscape:connector-curvature="0" />
      <path
         d="m 39.076228,1029.1015 c -1.8,0 -2.57,1.7 -2.57,3.72 0,2.06 0.77,3.7 2.57,3.7 1.8,0 2.58,-1.64 2.58,-3.68 0,-2.04 -0.78,-3.74 -2.58,-3.74 z m -1.78,3.72 c 0,-0.9 0.17,-2.98 1.8,-2.98 0.59,0 0.99,0.28 1.25,0.68 l -2.81,4.02 c -0.21,-0.6 -0.24,-1.28 -0.24,-1.72 z m 1.78,2.96 c -0.58,0 -0.97,-0.25 -1.23,-0.63 l 0.03,0 2.78,-3.95 c 0.18,0.58 0.22,1.23 0.22,1.64 0,0.91 -0.16,2.94 -1.8,2.94 z"
         id="path4370"
         inkscape:connector-curvature="0" />
      <path
         d="m 42.841697,1029.1515 0,0.77 2.92,0 -2.25,2.41 0.27,0.64 c 0.2,-0.1 0.52,-0.2 1.03,-0.2 0.83,0 1.43,0.6 1.43,1.55 0,0.89 -0.7,1.46 -1.6,1.46 -0.76,0 -1.52,-0.42 -1.52,-1.19 l -0.8,0 c 0,1.18 0.83,1.93 2.21,1.93 1.54,0 2.52,-0.84 2.52,-2.2 0,-1.49 -0.93,-2.27 -2.12,-2.27 l -0.07,0 1.95,-2.13 0,-0.77 -3.97,0 z"
         id="path4372"
         inkscape:connector-curvature="0" />
      <path
         d="m 47.837165,1029.1515 2.62,7.3 0.9,0 2.64,-7.3 -0.93,0 -2.14,6.23 -2.13,-6.23 -0.96,0 z"
         id="path4374"
         inkscape:connector-curvature="0" />
      <path
         d="m 57.902634,1036.4515 0,-6.5 2.36,0 0,-0.8 -5.57,0 0,0.8 2.36,0 0,6.5 0.85,0 z"
         id="path4376"
         inkscape:connector-curvature="0" />
      <path
         d="m 64.152165,1029.0615 c -1.56,0 -3.02,1.21 -3.02,3.74 0,2.67 1.33,3.64 2.81,3.71 -0.01,0.27 0.04,1.81 1.8,1.81 0.69,0 1.05,-0.16 1.05,-0.16 l 0,-0.75 c 0,0 -0.45,0.13 -1.05,0.13 -0.67,0 -0.94,-0.38 -0.97,-1.07 1.31,-0.22 2.42,-1.2 2.42,-3.65 0,-2.54 -1.47,-3.76 -3.04,-3.76 z m 0,6.66 c -1.56,0 -2.17,-1.36 -2.17,-2.92 0,-1.51 0.62,-2.94 2.19,-2.94 1.56,0 2.17,1.47 2.17,2.96 0,1.59 -0.62,2.9 -2.19,2.9 z"
         id="path4378"
         inkscape:connector-curvature="0" />
      <path
         d="m 71.28154,1036.4515 0,-6.5 2.36,0 0,-0.8 -5.57,0 0,0.8 2.36,0 0,6.5 0.85,0 z"
         id="path4380"
         inkscape:connector-curvature="0" />
    </g>
  </g>
</svg>
