<?xml version="1.0" encoding="UTF-8" standalone="no"?>
<!-- Created with Inkscape (http://www.inkscape.org/) -->

<svg
   xmlns:dc="http://purl.org/dc/elements/1.1/"
   xmlns:cc="http://creativecommons.org/ns#"
   xmlns:rdf="http://www.w3.org/1999/02/22-rdf-syntax-ns#"
   xmlns:svg="http://www.w3.org/2000/svg"
   xmlns="http://www.w3.org/2000/svg"
   xmlns:sodipodi="http://sodipodi.sourceforge.net/DTD/sodipodi-0.dtd"
   xmlns:inkscape="http://www.inkscape.org/namespaces/inkscape"
   width="48"
   height="48"
   viewBox="0 0 48.000001 48"
   id="svg4148"
   version="1.1"
   inkscape:version="0.91 r13725"
   sodipodi:docname="application-x-blender.svg">
  <title
     id="title4159">Boston Icons</title>
  <defs
     id="defs4150" />
  <sodipodi:namedview
     id="base"
     pagecolor="#0f0f0f"
     bordercolor="#666666"
     borderopacity="1.0"
     inkscape:pageopacity="0"
     inkscape:pageshadow="2"
     inkscape:zoom="11.2"
     inkscape:cx="18.707285"
     inkscape:cy="23.851398"
     inkscape:document-units="px"
     inkscape:current-layer="layer1"
     showgrid="false"
     units="px"
     showguides="false"
     inkscape:guide-bbox="true"
     inkscape:window-width="1366"
     inkscape:window-height="704"
     inkscape:window-x="0"
     inkscape:window-y="27"
     inkscape:window-maximized="1">
    <inkscape:grid
       type="xygrid"
       id="grid4696" />
    <sodipodi:guide
       position="0,37"
       orientation="1,0"
       id="guide4698" />
    <sodipodi:guide
       position="7.0000001,48"
       orientation="0,1"
       id="guide4700" />
    <sodipodi:guide
       position="48.000001,37"
       orientation="1,0"
       id="guide4702" />
    <sodipodi:guide
       position="36.000001,0"
       orientation="0,1"
       id="guide4704" />
    <sodipodi:guide
       position="16,40"
       orientation="1,0"
       id="guide4706" />
    <sodipodi:guide
       position="32.000001,46"
       orientation="1,0"
       id="guide4708" />
    <sodipodi:guide
       position="24,40"
       orientation="1,0"
       id="guide4710" />
    <sodipodi:guide
       position="8.0000002,44"
       orientation="1,0"
       id="guide4712" />
    <sodipodi:guide
       position="40.000001,41"
       orientation="1,0"
       id="guide4714" />
    <sodipodi:guide
       position="2,40"
       orientation="0,1"
       id="guide4716" />
    <sodipodi:guide
       position="3.0000001,32"
       orientation="0,1"
       id="guide4718" />
    <sodipodi:guide
       position="7.0000001,24"
       orientation="0,1"
       id="guide4720" />
    <sodipodi:guide
       position="3.0000001,16"
       orientation="0,1"
       id="guide4722" />
    <sodipodi:guide
       position="8.0000002,8"
       orientation="0,1"
       id="guide4724" />
    <sodipodi:guide
       position="33.000001,33"
       orientation="-0.70710678,0.70710678"
       id="guide4726" />
    <sodipodi:guide
       position="18,30"
       orientation="0.70710678,0.70710678"
       id="guide4728" />
    <sodipodi:guide
       position="2,27"
       orientation="1,0"
       id="guide4158" />
    <sodipodi:guide
       position="7.0000001,46"
       orientation="0,1"
       id="guide4160" />
    <sodipodi:guide
       position="46.000001,36"
       orientation="1,0"
       id="guide4162" />
    <sodipodi:guide
       position="30.000001,2"
       orientation="0,1"
       id="guide4164" />
    <sodipodi:guide
       position="41.000001,37"
       orientation="0.70710678,0.70710678"
       id="guide4168" />
    <sodipodi:guide
       position="12,33"
       orientation="1,0"
       id="guide4175" />
    <sodipodi:guide
       position="36.000001,27"
       orientation="1,0"
       id="guide4177" />
    <sodipodi:guide
       position="12,40"
       orientation="0,1"
       id="guide4179" />
  </sodipodi:namedview>
  <metadata
     id="metadata4153">
    <rdf:RDF>
      <cc:Work
         rdf:about="">
        <dc:format>image/svg+xml</dc:format>
        <dc:type
           rdf:resource="http://purl.org/dc/dcmitype/StillImage" />
        <dc:title>Boston Icons</dc:title>
        <dc:description>diazchris.deviantart.com</dc:description>
        <dc:creator>
          <cc:Agent>
            <dc:title>Chris D</dc:title>
          </cc:Agent>
        </dc:creator>
        <dc:publisher>
          <cc:Agent>
            <dc:title>Chris D</dc:title>
          </cc:Agent>
        </dc:publisher>
      </cc:Work>
    </rdf:RDF>
  </metadata>
  <g
     inkscape:label="Capa 1"
     inkscape:groupmode="layer"
     id="layer1"
     transform="translate(0,-1004.3622)">
    <path
       style="opacity:1;fill:#ffffff;fill-opacity:1;fill-rule:nonzero;stroke:#b6c1c9;stroke-width:1;stroke-linecap:square;stroke-linejoin:miter;stroke-miterlimit:4;stroke-dasharray:none;stroke-dashoffset:0;stroke-opacity:1"
       d="m 8,1006.3622 24,0 8,8 0,36 -32,0 z"
       id="rect4166"
       inkscape:connector-curvature="0"
       sodipodi:nodetypes="cccccc" />
    <path
       style="fill:none;fill-rule:evenodd;stroke:#b6c1c9;stroke-width:1px;stroke-linecap:butt;stroke-linejoin:miter;stroke-opacity:1;fill-opacity:1"
       d="m 32,1006.3622 0,8 8,0"
       id="path4173"
       inkscape:connector-curvature="0" />
    <path
       style="fill:#fbc342"
       d="m 25.758739,1038.2898 c -0.687415,-0.069 -0.694305,-0.072 -1.164639,-0.214 -0.260226,-0.079 -0.571404,-0.1724 -0.691504,-0.2081 -0.156097,-0.046 -0.405198,-0.1644 -0.873484,-0.4138 l -0.655109,-0.3489 -0.56379,-0.462 -0.563785,-0.4619 -0.465193,-0.5656 -0.465188,-0.5656 -0.338701,-0.6288 -0.338702,-0.6286 -0.217154,-0.7037 -0.217147,-0.7036 -0.05813,-0.5581 c -0.03196,-0.3069 -0.05853,-0.5797 -0.059,-0.6061 -4.73e-4,-0.034 -0.498195,0.448 -1.571932,1.519 -1.178488,1.1756 -1.604732,1.5861 -1.70584,1.6425 -0.690671,0.3861 -1.575161,0 -1.756784,-0.7742 -0.0464,-0.197 -0.0464,-0.3567 0,-0.5535 0.0848,-0.3598 -0.100533,-0.1606 3.563612,-3.8299 l 3.373991,-3.3786 -2.002321,0 c -1.695041,0 -2.023609,0 -2.141036,-0.037 -0.770727,-0.2008 -1.139545,-1.0277 -0.777361,-1.7429 0.07615,-0.1504 0.335213,-0.4095 0.4856,-0.4856 0.290275,-0.147 -0.05731,-0.1375 5.003543,-0.1375 l 4.622984,0 -1.43216,-1.4376 c -1.370434,-1.3756 -1.435478,-1.4449 -1.509065,-1.6084 -0.10564,-0.2344 -0.141737,-0.4813 -0.103468,-0.7074 0.122147,-0.7219 0.828862,-1.1677 1.5317,-0.9664 0.304902,0.087 0.183282,-0.026 3.782548,3.5638 3.197554,3.1902 3.435436,3.4333 3.848004,3.9325 l 0.439753,0.5323 0.34246,0.6445 c 0.324014,0.6099 0.34981,0.6688 0.479023,1.0935 0.0751,0.2469 0.169509,0.5526 0.209778,0.6794 0.06189,0.1949 0.08469,0.3449 0.1475,0.9705 l 0.07428,0.74 -0.06808,0.7158 -0.06808,0.7158 -0.215922,0.7208 -0.215922,0.7208 -0.345587,0.645 -0.345585,0.645 -0.464268,0.5655 -0.464273,0.5657 -0.563117,0.4623 -0.563117,0.4623 -0.658111,0.3509 -0.658118,0.3509 -0.691502,0.2086 -0.691508,0.2087 -0.745832,0.074 c -0.410207,0.04 -0.754144,0.072 -0.764295,0.07 -0.0101,0 -0.329639,-0.035 -0.709968,-0.074 z m 1.358749,-2.4211 c 0.376208,-0.04 0.475768,-0.061 0.873479,-0.1837 0.391104,-0.1204 0.505075,-0.1681 0.885611,-0.3706 0.385578,-0.2052 0.482351,-0.27 0.826108,-0.553 0.335864,-0.2765 0.43174,-0.3724 0.697708,-0.6976 0.273524,-0.3344 0.33549,-0.4286 0.548901,-0.8337 0.214897,-0.4079 0.254799,-0.5045 0.37401,-0.9056 0.121794,-0.4096 0.137803,-0.4917 0.183281,-0.9401 l 0.04983,-0.4913 -0.04963,-0.4915 c -0.04635,-0.4586 -0.05911,-0.5224 -0.191987,-0.9607 -0.127811,-0.4217 -0.166374,-0.5145 -0.377566,-0.9096 -0.206157,-0.3857 -0.27397,-0.4871 -0.548877,-0.8206 -0.268658,-0.3261 -0.368275,-0.4254 -0.694351,-0.6926 -0.330556,-0.2708 -0.438195,-0.3426 -0.817426,-0.5452 -0.404001,-0.216 -0.474028,-0.2443 -0.934137,-0.38 -0.46597,-0.1373 -0.526687,-0.1492 -0.960894,-0.1887 -0.440882,-0.04 -0.485864,-0.04 -0.922009,10e-5 -0.426426,0.04 -0.493314,0.053 -0.955908,0.1884 -0.459388,0.135 -0.530779,0.1639 -0.934137,0.3786 -0.384489,0.2047 -0.48282,0.2704 -0.821869,0.5496 -0.330305,0.272 -0.429252,0.371 -0.695087,0.6951 -0.269677,0.3289 -0.340677,0.4355 -0.546366,0.8202 -0.213066,0.3986 -0.250274,0.4883 -0.376727,0.9082 -0.130094,0.432 -0.143928,0.5016 -0.18989,0.9557 l -0.04958,0.4896 0.04875,0.493 c 0.04613,0.4664 0.0566,0.5187 0.194651,0.9703 0.13125,0.4294 0.169561,0.5214 0.381141,0.9156 0.204581,0.3811 0.275483,0.487 0.54415,0.8125 0.263713,0.3195 0.364902,0.42 0.691504,0.6873 0.332247,0.2718 0.440055,0.3437 0.819327,0.5461 0.381376,0.2036 0.493639,0.2506 0.885611,0.3715 0.392989,0.1212 0.49871,0.1437 0.849213,0.1808 0.527931,0.056 0.706663,0.057 1.213173,0 z m -0.982668,-1.9468 c -0.307542,-0.035 -0.739935,-0.1742 -1.046898,-0.3378 -1.091674,-0.5815 -1.72891,-1.7782 -1.5978,-3.0005 0.204939,-1.9104 2.070284,-3.1566 3.906394,-2.6096 1.84021,0.5482 2.726448,2.675 1.816359,4.3589 -0.602646,1.115 -1.800468,1.7333 -3.078055,1.589 z"
       id="path4283"
       inkscape:connector-curvature="0" />
  </g>
</svg>
