<?xml version="1.0" encoding="UTF-8" standalone="no"?>
<!-- Created with Inkscape (http://www.inkscape.org/) -->

<svg
   xmlns:dc="http://purl.org/dc/elements/1.1/"
   xmlns:cc="http://creativecommons.org/ns#"
   xmlns:rdf="http://www.w3.org/1999/02/22-rdf-syntax-ns#"
   xmlns:svg="http://www.w3.org/2000/svg"
   xmlns="http://www.w3.org/2000/svg"
   xmlns:sodipodi="http://sodipodi.sourceforge.net/DTD/sodipodi-0.dtd"
   xmlns:inkscape="http://www.inkscape.org/namespaces/inkscape"
   width="48"
   height="48"
   viewBox="0 0 48.000001 48"
   id="svg4148"
   version="1.1"
   inkscape:version="0.91 r13725"
   sodipodi:docname="application-x-executable.svg">
  <title
     id="title4159">Boston Icons</title>
  <defs
     id="defs4150" />
  <sodipodi:namedview
     id="base"
     pagecolor="#0f0f0f"
     bordercolor="#666666"
     borderopacity="1.0"
     inkscape:pageopacity="0"
     inkscape:pageshadow="2"
     inkscape:zoom="11.313708"
     inkscape:cx="26.279474"
     inkscape:cy="19.041727"
     inkscape:document-units="px"
     inkscape:current-layer="layer1"
     showgrid="false"
     units="px"
     showguides="false"
     inkscape:guide-bbox="true"
     inkscape:window-width="1366"
     inkscape:window-height="704"
     inkscape:window-x="0"
     inkscape:window-y="27"
     inkscape:window-maximized="1">
    <inkscape:grid
       type="xygrid"
       id="grid4696" />
    <sodipodi:guide
       position="0,37"
       orientation="1,0"
       id="guide4698" />
    <sodipodi:guide
       position="7.0000001,48"
       orientation="0,1"
       id="guide4700" />
    <sodipodi:guide
       position="48.000001,37"
       orientation="1,0"
       id="guide4702" />
    <sodipodi:guide
       position="36.000001,0"
       orientation="0,1"
       id="guide4704" />
    <sodipodi:guide
       position="16,40"
       orientation="1,0"
       id="guide4706" />
    <sodipodi:guide
       position="32.000001,46"
       orientation="1,0"
       id="guide4708" />
    <sodipodi:guide
       position="24,40"
       orientation="1,0"
       id="guide4710" />
    <sodipodi:guide
       position="8.0000002,44"
       orientation="1,0"
       id="guide4712" />
    <sodipodi:guide
       position="40.000001,41"
       orientation="1,0"
       id="guide4714" />
    <sodipodi:guide
       position="2,40"
       orientation="0,1"
       id="guide4716" />
    <sodipodi:guide
       position="3.0000001,32"
       orientation="0,1"
       id="guide4718" />
    <sodipodi:guide
       position="7.0000001,24"
       orientation="0,1"
       id="guide4720" />
    <sodipodi:guide
       position="3.0000001,16"
       orientation="0,1"
       id="guide4722" />
    <sodipodi:guide
       position="8.0000002,8"
       orientation="0,1"
       id="guide4724" />
    <sodipodi:guide
       position="33.000001,33"
       orientation="-0.70710678,0.70710678"
       id="guide4726" />
    <sodipodi:guide
       position="18,30"
       orientation="0.70710678,0.70710678"
       id="guide4728" />
    <sodipodi:guide
       position="2,27"
       orientation="1,0"
       id="guide4158" />
    <sodipodi:guide
       position="7.0000001,46"
       orientation="0,1"
       id="guide4160" />
    <sodipodi:guide
       position="46.000001,36"
       orientation="1,0"
       id="guide4162" />
    <sodipodi:guide
       position="30.000001,2"
       orientation="0,1"
       id="guide4164" />
    <sodipodi:guide
       position="41.000001,37"
       orientation="0.70710678,0.70710678"
       id="guide4168" />
    <sodipodi:guide
       position="12,33"
       orientation="1,0"
       id="guide4175" />
    <sodipodi:guide
       position="36.000001,27"
       orientation="1,0"
       id="guide4177" />
    <sodipodi:guide
       position="12,40"
       orientation="0,1"
       id="guide4179" />
    <sodipodi:guide
       position="-28.303572,27.410714"
       orientation="1,0"
       id="guide4725" />
  </sodipodi:namedview>
  <metadata
     id="metadata4153">
    <rdf:RDF>
      <cc:Work
         rdf:about="">
        <dc:format>image/svg+xml</dc:format>
        <dc:type
           rdf:resource="http://purl.org/dc/dcmitype/StillImage" />
        <dc:title>Boston Icons</dc:title>
        <dc:description>diazchris.deviantart.com</dc:description>
        <dc:creator>
          <cc:Agent>
            <dc:title>Chris D</dc:title>
          </cc:Agent>
        </dc:creator>
        <dc:publisher>
          <cc:Agent>
            <dc:title>Chris D</dc:title>
          </cc:Agent>
        </dc:publisher>
      </cc:Work>
    </rdf:RDF>
  </metadata>
  <g
     inkscape:label="Capa 1"
     inkscape:groupmode="layer"
     id="layer1"
     transform="translate(0,-1004.3622)">
    <path
       style="opacity:1;fill:#ffffff;fill-opacity:1;fill-rule:nonzero;stroke:#b6c1c9;stroke-width:1;stroke-linecap:square;stroke-linejoin:miter;stroke-miterlimit:4;stroke-dasharray:none;stroke-dashoffset:0;stroke-opacity:1"
       d="m 8,1006.3622 24,0 8,8 0,36 -32,0 z"
       id="rect4166"
       inkscape:connector-curvature="0"
       sodipodi:nodetypes="cccccc" />
    <path
       style="fill:none;fill-rule:evenodd;stroke:#b6c1c9;stroke-width:1px;stroke-linecap:butt;stroke-linejoin:miter;stroke-opacity:1;fill-opacity:1"
       d="m 32,1006.3622 0,8 8,0"
       id="path4173"
       inkscape:connector-curvature="0" />
    <g
       transform="matrix(0.52570375,0,0,0.52570375,-14.92359,1008.4185)"
       style="font-style:normal;font-variant:normal;font-weight:normal;font-stretch:normal;font-size:53.71909714px;line-height:125%;font-family:'Open Sans';-inkscape-font-specification:'Open Sans';letter-spacing:0px;word-spacing:0px;fill:none;fill-opacity:1;stroke:#b6c1c9;stroke-width:2.10620046;stroke-linecap:butt;stroke-linejoin:miter;stroke-miterlimit:4;stroke-dasharray:none;stroke-opacity:1"
       id="text4152-6">
      <path
         d="m 71.70853,19.076638 c 0.751927,-0.08743 1.512598,-0.13115 2.282013,-0.13115 0.769414,0 1.530085,0.04372 2.282012,0.13115 l 0.681981,4.905015 c 1.171608,0.227327 2.316986,0.60329 3.436133,1.127891 l 3.304984,-3.462364 c 1.328988,0.786901 2.553056,1.739926 3.672204,2.859073 l -2.203323,4.091885 c 0.821875,0.874334 1.521342,1.836102 2.098403,2.885303 l 4.327954,-0.813131 c 0.647007,1.468881 1.110405,3.00771 1.390192,4.616485 l -3.882044,1.809872 c 0.06995,0.612034 0.10492,1.215325 0.10492,1.809872 0,0.594547 -0.03497,1.197838 -0.10492,1.809872 l 3.882044,1.836102 c -0.279787,1.591288 -0.743185,3.121373 -1.390192,4.590255 l -4.327954,-0.813131 c -0.577061,1.049201 -1.276528,2.019712 -2.098403,2.911533 l 2.203323,4.065654 c -1.119148,1.119148 -2.343216,2.080916 -3.672204,2.885303 l -3.304984,-3.462364 c -1.119147,0.507114 -2.264525,0.883078 -3.436133,1.127892 l -0.681981,4.878785 c -0.751927,0.10492 -1.512598,0.15738 -2.282012,0.15738 -0.769415,0 -1.530086,-0.05246 -2.282013,-0.15738 l -0.681981,-4.878785 c -1.171607,-0.244814 -2.316985,-0.620778 -3.436133,-1.127892 l -3.304984,3.462364 C 62.956444,55.38774 61.732376,54.425972 60.613228,53.306824 l 2.203323,-4.065654 c -0.821875,-0.874335 -1.521342,-1.844846 -2.098403,-2.911533 l -4.327954,0.813131 c -0.647007,-1.468882 -1.110405,-2.998967 -1.390192,-4.590255 l 3.882044,-1.836102 c -0.06995,-0.612034 -0.10492,-1.215325 -0.10492,-1.809872 0,-0.594547 0.03497,-1.197838 0.10492,-1.809872 l -3.882044,-1.809872 c 0.279787,-1.608775 0.743185,-3.147604 1.390192,-4.616485 l 4.327954,0.813131 c 0.577061,-1.049201 1.276528,-2.019712 2.098403,-2.911533 l -2.203323,-4.065655 c 1.119148,-1.119147 2.343216,-2.072172 3.672204,-2.859073 l 3.304984,3.436134 C 68.709564,24.5762 69.854942,24.20898 71.026549,23.981653 Z M 82.148081,30.77523 c -2.255782,-2.273269 -4.974961,-3.409904 -8.157538,-3.409904 -3.182577,0 -5.901757,1.136635 -8.157539,3.409904 -2.255783,2.255783 -3.383674,4.974962 -3.383674,8.157539 0,3.16509 1.127891,5.875526 3.383674,8.131308 2.255782,2.255783 4.974962,3.383674 8.157539,3.383674 3.182577,0 5.901756,-1.127891 8.157538,-3.383674 2.255783,-2.255782 3.383674,-4.966218 3.383674,-8.131308 0,-3.182577 -1.127891,-5.901756 -3.383674,-8.157539 z"
         id="path4157-0"
         inkscape:connector-curvature="0"
         sodipodi:nodetypes="csccccccccccsccccccccccsccccccccccscccccccccccscsssssc"
         style="fill:#e0e4e7;stroke:#b6c1c9;stroke-width:2.10620046;stroke-miterlimit:4;stroke-dasharray:none;stroke-opacity:1" />
    </g>
    <circle
       style="opacity:1;fill:#e0e4e7;fill-opacity:1;fill-rule:nonzero;stroke:#b6c1c9;stroke-width:1;stroke-linecap:butt;stroke-linejoin:miter;stroke-miterlimit:4;stroke-dasharray:none;stroke-dashoffset:0;stroke-opacity:1"
       id="path4159-9"
       cx="23.97352"
       cy="1028.8782"
       r="2.1028152" />
  </g>
</svg>
