<?xml version="1.0" encoding="UTF-8" standalone="no"?>
<!-- Created with Inkscape (http://www.inkscape.org/) -->

<svg
   xmlns:dc="http://purl.org/dc/elements/1.1/"
   xmlns:cc="http://creativecommons.org/ns#"
   xmlns:rdf="http://www.w3.org/1999/02/22-rdf-syntax-ns#"
   xmlns:svg="http://www.w3.org/2000/svg"
   xmlns="http://www.w3.org/2000/svg"
   xmlns:sodipodi="http://sodipodi.sourceforge.net/DTD/sodipodi-0.dtd"
   xmlns:inkscape="http://www.inkscape.org/namespaces/inkscape"
   width="48"
   height="48"
   viewBox="0 0 48.000001 48"
   id="svg4148"
   version="1.1"
   inkscape:version="0.91 r13725"
   sodipodi:docname="application-x-gnome-theme-package.svg">
  <title
     id="title4159">Boston Icons</title>
  <defs
     id="defs4150" />
  <sodipodi:namedview
     id="base"
     pagecolor="#0f0f0f"
     bordercolor="#666666"
     borderopacity="1.0"
     inkscape:pageopacity="0"
     inkscape:pageshadow="2"
     inkscape:zoom="11.2"
     inkscape:cx="18.617999"
     inkscape:cy="24.565684"
     inkscape:document-units="px"
     inkscape:current-layer="layer1"
     showgrid="false"
     units="px"
     showguides="false"
     inkscape:guide-bbox="true"
     inkscape:window-width="1366"
     inkscape:window-height="704"
     inkscape:window-x="0"
     inkscape:window-y="27"
     inkscape:window-maximized="1">
    <inkscape:grid
       type="xygrid"
       id="grid4696" />
    <sodipodi:guide
       position="0,37"
       orientation="1,0"
       id="guide4698" />
    <sodipodi:guide
       position="7.0000001,48"
       orientation="0,1"
       id="guide4700" />
    <sodipodi:guide
       position="48.000001,37"
       orientation="1,0"
       id="guide4702" />
    <sodipodi:guide
       position="36.000001,0"
       orientation="0,1"
       id="guide4704" />
    <sodipodi:guide
       position="16,40"
       orientation="1,0"
       id="guide4706" />
    <sodipodi:guide
       position="32.000001,46"
       orientation="1,0"
       id="guide4708" />
    <sodipodi:guide
       position="24,40"
       orientation="1,0"
       id="guide4710" />
    <sodipodi:guide
       position="8.0000002,44"
       orientation="1,0"
       id="guide4712" />
    <sodipodi:guide
       position="40.000001,41"
       orientation="1,0"
       id="guide4714" />
    <sodipodi:guide
       position="2,40"
       orientation="0,1"
       id="guide4716" />
    <sodipodi:guide
       position="3.0000001,32"
       orientation="0,1"
       id="guide4718" />
    <sodipodi:guide
       position="7.0000001,24"
       orientation="0,1"
       id="guide4720" />
    <sodipodi:guide
       position="3.0000001,16"
       orientation="0,1"
       id="guide4722" />
    <sodipodi:guide
       position="8.0000002,8"
       orientation="0,1"
       id="guide4724" />
    <sodipodi:guide
       position="33.000001,33"
       orientation="-0.70710678,0.70710678"
       id="guide4726" />
    <sodipodi:guide
       position="18,30"
       orientation="0.70710678,0.70710678"
       id="guide4728" />
    <sodipodi:guide
       position="2,27"
       orientation="1,0"
       id="guide4158" />
    <sodipodi:guide
       position="7.0000001,46"
       orientation="0,1"
       id="guide4160" />
    <sodipodi:guide
       position="46.000001,36"
       orientation="1,0"
       id="guide4162" />
    <sodipodi:guide
       position="30.000001,2"
       orientation="0,1"
       id="guide4164" />
    <sodipodi:guide
       position="41.000001,37"
       orientation="0.70710678,0.70710678"
       id="guide4168" />
    <sodipodi:guide
       position="12,33"
       orientation="1,0"
       id="guide4175" />
    <sodipodi:guide
       position="36.000001,27"
       orientation="1,0"
       id="guide4177" />
    <sodipodi:guide
       position="12,40"
       orientation="0,1"
       id="guide4179" />
  </sodipodi:namedview>
  <metadata
     id="metadata4153">
    <rdf:RDF>
      <cc:Work
         rdf:about="">
        <dc:format>image/svg+xml</dc:format>
        <dc:type
           rdf:resource="http://purl.org/dc/dcmitype/StillImage" />
        <dc:title>Boston Icons</dc:title>
        <dc:description>diazchris.deviantart.com</dc:description>
        <dc:creator>
          <cc:Agent>
            <dc:title>Chris D</dc:title>
          </cc:Agent>
        </dc:creator>
        <dc:publisher>
          <cc:Agent>
            <dc:title>Chris D</dc:title>
          </cc:Agent>
        </dc:publisher>
      </cc:Work>
    </rdf:RDF>
  </metadata>
  <g
     inkscape:label="Capa 1"
     inkscape:groupmode="layer"
     id="layer1"
     transform="translate(0,-1004.3622)">
    <path
       style="opacity:1;fill:#ffffff;fill-opacity:1;fill-rule:nonzero;stroke:#b6c1c9;stroke-width:1;stroke-linecap:square;stroke-linejoin:miter;stroke-miterlimit:4;stroke-dasharray:none;stroke-dashoffset:0;stroke-opacity:1"
       d="m 8,1006.3622 24,0 8,8 0,36 -32,0 z"
       id="rect4166"
       inkscape:connector-curvature="0"
       sodipodi:nodetypes="cccccc" />
    <path
       style="fill:none;fill-rule:evenodd;stroke:#b6c1c9;stroke-width:1px;stroke-linecap:butt;stroke-linejoin:miter;stroke-opacity:1;fill-opacity:1"
       d="m 32,1006.3622 0,8 8,0"
       id="path4173"
       inkscape:connector-curvature="0" />
    <path
       style="fill:#b6c1c9"
       d="m 23.070346,1039.1027 c -2.510004,-0.7274 -5.217254,-3.64 -5.570005,-5.9923 -0.420141,-2.8017 0.632422,-4.5379 3.573047,-5.8937 1.500694,-0.6919 2.101539,-0.8094 4.144235,-0.8105 1.812544,-10e-4 2.570585,0.1176 3.141286,0.4916 1.843242,1.2077 1.108133,3.1542 -1.987949,5.264 -3.644998,2.4838 -4.09027,3.1469 -2.717301,4.0465 0.962977,0.631 1.590559,0.4157 1.95624,-0.671 0.402295,-1.1956 0.961262,-1.4936 2.603718,-1.3882 1.180832,0.076 1.334796,0.162 1.407896,0.7878 0.125945,1.0782 -1.429757,3.2099 -2.841217,3.8932 -1.264355,0.612 -2.281067,0.6867 -3.70995,0.2726 z m -6.367713,-11.9104 c -0.822887,-0.8875 -0.929514,-1.801 -0.285379,-2.4452 0.537403,-0.5374 0.708102,-0.5444 1.374692,-0.057 0.380311,0.2781 0.528309,0.7524 0.542777,1.7396 0.02439,1.6625 -0.549118,1.9305 -1.63209,0.7626 z m 2.650954,-1.9436 c -0.638638,-0.8119 -0.767959,-2.3184 -0.243993,-2.8424 0.513698,-0.5137 1.568028,-0.3992 1.891583,0.2053 0.618718,1.1561 0.172556,3.3739 -0.678752,3.3739 -0.214117,0 -0.650094,-0.3316 -0.968838,-0.7368 z m 7.405498,-0.1643 c -0.587666,-0.839 -0.547551,-1.7663 0.137689,-3.1818 0.676066,-1.3966 1.395902,-1.9271 2.977269,-2.1943 2.374562,-0.4011 2.854855,1.6019 0.95828,3.9965 -0.846584,1.0689 -2.340355,2.001 -3.206726,2.001 -0.237171,0 -0.627103,-0.2796 -0.866512,-0.6214 z m -4.098639,-0.8295 c -0.844145,-1.5773 -0.07766,-3.8618 1.295681,-3.8618 0.940188,0 1.344158,0.6798 1.17102,1.9706 -0.292103,2.1778 -1.725252,3.2766 -2.466701,1.8912 z"
       id="path4218"
       inkscape:connector-curvature="0"
       sodipodi:nodetypes="ssscsssscsssssscsssssscsssscssss" />
  </g>
</svg>
