<?xml version="1.0" encoding="UTF-8" standalone="no"?>
<!-- Created with Inkscape (http://www.inkscape.org/) -->

<svg
   xmlns:dc="http://purl.org/dc/elements/1.1/"
   xmlns:cc="http://creativecommons.org/ns#"
   xmlns:rdf="http://www.w3.org/1999/02/22-rdf-syntax-ns#"
   xmlns:svg="http://www.w3.org/2000/svg"
   xmlns="http://www.w3.org/2000/svg"
   xmlns:sodipodi="http://sodipodi.sourceforge.net/DTD/sodipodi-0.dtd"
   xmlns:inkscape="http://www.inkscape.org/namespaces/inkscape"
   width="48"
   height="48"
   viewBox="0 0 48.000001 48"
   id="svg4148"
   version="1.1"
   inkscape:version="0.91 r13725"
   sodipodi:docname="application-x-addon.svg">
  <title
     id="title4159">Boston Icons</title>
  <defs
     id="defs4150" />
  <sodipodi:namedview
     id="base"
     pagecolor="#0f0f0f"
     bordercolor="#666666"
     borderopacity="1.0"
     inkscape:pageopacity="0"
     inkscape:pageshadow="2"
     inkscape:zoom="11.2"
     inkscape:cx="-2.051643"
     inkscape:cy="20.101398"
     inkscape:document-units="px"
     inkscape:current-layer="layer1"
     showgrid="false"
     units="px"
     showguides="false"
     inkscape:guide-bbox="true"
     inkscape:window-width="1366"
     inkscape:window-height="704"
     inkscape:window-x="0"
     inkscape:window-y="27"
     inkscape:window-maximized="1">
    <inkscape:grid
       type="xygrid"
       id="grid4696" />
    <sodipodi:guide
       position="0,37"
       orientation="1,0"
       id="guide4698" />
    <sodipodi:guide
       position="7.0000001,48"
       orientation="0,1"
       id="guide4700" />
    <sodipodi:guide
       position="48.000001,37"
       orientation="1,0"
       id="guide4702" />
    <sodipodi:guide
       position="36.000001,0"
       orientation="0,1"
       id="guide4704" />
    <sodipodi:guide
       position="16,40"
       orientation="1,0"
       id="guide4706" />
    <sodipodi:guide
       position="32.000001,46"
       orientation="1,0"
       id="guide4708" />
    <sodipodi:guide
       position="24,40"
       orientation="1,0"
       id="guide4710" />
    <sodipodi:guide
       position="8.0000002,44"
       orientation="1,0"
       id="guide4712" />
    <sodipodi:guide
       position="40.000001,41"
       orientation="1,0"
       id="guide4714" />
    <sodipodi:guide
       position="2,40"
       orientation="0,1"
       id="guide4716" />
    <sodipodi:guide
       position="3.0000001,32"
       orientation="0,1"
       id="guide4718" />
    <sodipodi:guide
       position="7.0000001,24"
       orientation="0,1"
       id="guide4720" />
    <sodipodi:guide
       position="3.0000001,16"
       orientation="0,1"
       id="guide4722" />
    <sodipodi:guide
       position="8.0000002,8"
       orientation="0,1"
       id="guide4724" />
    <sodipodi:guide
       position="33.000001,33"
       orientation="-0.70710678,0.70710678"
       id="guide4726" />
    <sodipodi:guide
       position="18,30"
       orientation="0.70710678,0.70710678"
       id="guide4728" />
    <sodipodi:guide
       position="2,27"
       orientation="1,0"
       id="guide4158" />
    <sodipodi:guide
       position="7.0000001,46"
       orientation="0,1"
       id="guide4160" />
    <sodipodi:guide
       position="46.000001,36"
       orientation="1,0"
       id="guide4162" />
    <sodipodi:guide
       position="30.000001,2"
       orientation="0,1"
       id="guide4164" />
    <sodipodi:guide
       position="41.000001,37"
       orientation="0.70710678,0.70710678"
       id="guide4168" />
    <sodipodi:guide
       position="12,33"
       orientation="1,0"
       id="guide4175" />
    <sodipodi:guide
       position="36.000001,27"
       orientation="1,0"
       id="guide4177" />
    <sodipodi:guide
       position="12,40"
       orientation="0,1"
       id="guide4179" />
  </sodipodi:namedview>
  <metadata
     id="metadata4153">
    <rdf:RDF>
      <cc:Work
         rdf:about="">
        <dc:format>image/svg+xml</dc:format>
        <dc:type
           rdf:resource="http://purl.org/dc/dcmitype/StillImage" />
        <dc:title>Boston Icons</dc:title>
        <dc:description>diazchris.deviantart.com</dc:description>
        <dc:creator>
          <cc:Agent>
            <dc:title>Chris D</dc:title>
          </cc:Agent>
        </dc:creator>
        <dc:publisher>
          <cc:Agent>
            <dc:title>Chris D</dc:title>
          </cc:Agent>
        </dc:publisher>
      </cc:Work>
    </rdf:RDF>
  </metadata>
  <g
     inkscape:label="Capa 1"
     inkscape:groupmode="layer"
     id="layer1"
     transform="translate(0,-1004.3622)">
    <path
       style="opacity:1;fill:#ffffff;fill-opacity:1;fill-rule:nonzero;stroke:#b6c1c9;stroke-width:1;stroke-linecap:square;stroke-linejoin:miter;stroke-miterlimit:4;stroke-dasharray:none;stroke-dashoffset:0;stroke-opacity:1"
       d="m 8,1006.3622 24,0 8,8 0,36 -32,0 z"
       id="rect4166"
       inkscape:connector-curvature="0"
       sodipodi:nodetypes="cccccc" />
    <path
       style="fill:none;fill-rule:evenodd;stroke:#b6c1c9;stroke-width:1px;stroke-linecap:butt;stroke-linejoin:miter;stroke-opacity:1;fill-opacity:1"
       d="m 32,1006.3622 0,8 8,0"
       id="path4173"
       inkscape:connector-curvature="0" />
    <path
       style="fill:#99cef3"
       d="m 19.159647,1023.3772 c 2.093475,-0.039 2.169182,-0.049 2.47037,-0.332 0.372922,-0.3506 0.389128,-0.6536 0.07234,-1.3517 -0.301776,-0.665 -0.303433,-1.0283 -0.0069,-1.5146 0.395298,-0.6483 1.100199,-0.9358 2.293902,-0.9358 1.193703,0 1.898605,0.2875 2.293896,0.9358 0.296512,0.4863 0.294854,0.8496 -0.0069,1.5146 -0.31679,0.6981 -0.300574,1.0011 0.07234,1.3517 0.301187,0.2832 0.376904,0.2934 2.47037,0.332 l 2.159669,0.04 0,1.5606 c 0,1.7429 -0.04874,1.8414 -0.73525,1.4864 -0.977862,-0.5057 -1.625364,-0.4362 -2.392023,0.2564 -1.572592,1.4207 -1.276041,4.6173 0.51513,5.5527 0.491981,0.2569 1.165773,0.2288 1.757843,-0.073 0.81891,-0.4177 0.8543,-0.3586 0.8543,1.427 l 0,1.5607 -2.159658,0.04 c -2.093477,0.038 -2.169183,0.049 -2.470371,0.3321 -0.372926,0.3506 -0.389132,0.6535 -0.07235,1.3516 0.301786,0.6651 0.303444,1.0283 0.0069,1.5146 -0.395282,0.6483 -1.100184,0.9359 -2.293886,0.9359 -1.193713,0 -1.898604,-0.2876 -2.293892,-0.9359 -0.296513,-0.4863 -0.294854,-0.8495 0.0069,-1.5146 0.316786,-0.6981 0.30057,-1.001 -0.07234,-1.3516 -0.301188,-0.2832 -0.376903,-0.2934 -2.470371,-0.3321 L 17,1035.188 l 0,-1.5607 c 0,-1.7856 0.03539,-1.8447 0.8543,-1.427 0.59207,0.3021 1.265862,0.3302 1.757844,0.073 1.791169,-0.9354 2.08772,-4.132 0.515128,-5.5527 -0.766659,-0.6926 -1.41416,-0.7621 -2.392032,-0.2564 C 17.048742,1026.8191 17,1026.7206 17,1024.9777 l 0,-1.5606 z"
       id="path4138"
       inkscape:connector-curvature="0"
       sodipodi:nodetypes="ssssssssscsssssscssssssssscsssssscs" />
  </g>
</svg>
