<?xml version="1.0" encoding="UTF-8" standalone="no"?>
<!-- Created with Inkscape (http://www.inkscape.org/) -->

<svg
   xmlns:dc="http://purl.org/dc/elements/1.1/"
   xmlns:cc="http://creativecommons.org/ns#"
   xmlns:rdf="http://www.w3.org/1999/02/22-rdf-syntax-ns#"
   xmlns:svg="http://www.w3.org/2000/svg"
   xmlns="http://www.w3.org/2000/svg"
   xmlns:sodipodi="http://sodipodi.sourceforge.net/DTD/sodipodi-0.dtd"
   xmlns:inkscape="http://www.inkscape.org/namespaces/inkscape"
   width="48"
   height="48"
   viewBox="0 0 48.000001 48"
   id="svg4148"
   version="1.1"
   inkscape:version="0.91 r13725"
   sodipodi:docname="image-x-xcf.svg">
  <title
     id="title4159">Boston Icons</title>
  <defs
     id="defs4150" />
  <sodipodi:namedview
     id="base"
     pagecolor="#0f0f0f"
     bordercolor="#666666"
     borderopacity="1.0"
     inkscape:pageopacity="0"
     inkscape:pageshadow="2"
     inkscape:zoom="11.2"
     inkscape:cx="-2.096286"
     inkscape:cy="18.851398"
     inkscape:document-units="px"
     inkscape:current-layer="layer1"
     showgrid="false"
     units="px"
     showguides="false"
     inkscape:guide-bbox="true"
     inkscape:window-width="1366"
     inkscape:window-height="704"
     inkscape:window-x="0"
     inkscape:window-y="27"
     inkscape:window-maximized="1">
    <inkscape:grid
       type="xygrid"
       id="grid4696" />
    <sodipodi:guide
       position="0,37"
       orientation="1,0"
       id="guide4698" />
    <sodipodi:guide
       position="7.0000001,48"
       orientation="0,1"
       id="guide4700" />
    <sodipodi:guide
       position="48.000001,37"
       orientation="1,0"
       id="guide4702" />
    <sodipodi:guide
       position="36.000001,0"
       orientation="0,1"
       id="guide4704" />
    <sodipodi:guide
       position="16,40"
       orientation="1,0"
       id="guide4706" />
    <sodipodi:guide
       position="32.000001,46"
       orientation="1,0"
       id="guide4708" />
    <sodipodi:guide
       position="24,40"
       orientation="1,0"
       id="guide4710" />
    <sodipodi:guide
       position="8.0000002,44"
       orientation="1,0"
       id="guide4712" />
    <sodipodi:guide
       position="40.000001,41"
       orientation="1,0"
       id="guide4714" />
    <sodipodi:guide
       position="2,40"
       orientation="0,1"
       id="guide4716" />
    <sodipodi:guide
       position="3.0000001,32"
       orientation="0,1"
       id="guide4718" />
    <sodipodi:guide
       position="7.0000001,24"
       orientation="0,1"
       id="guide4720" />
    <sodipodi:guide
       position="3.0000001,16"
       orientation="0,1"
       id="guide4722" />
    <sodipodi:guide
       position="8.0000002,8"
       orientation="0,1"
       id="guide4724" />
    <sodipodi:guide
       position="33.000001,33"
       orientation="-0.70710678,0.70710678"
       id="guide4726" />
    <sodipodi:guide
       position="18,30"
       orientation="0.70710678,0.70710678"
       id="guide4728" />
    <sodipodi:guide
       position="2,27"
       orientation="1,0"
       id="guide4158" />
    <sodipodi:guide
       position="7.0000001,46"
       orientation="0,1"
       id="guide4160" />
    <sodipodi:guide
       position="46.000001,36"
       orientation="1,0"
       id="guide4162" />
    <sodipodi:guide
       position="30.000001,2"
       orientation="0,1"
       id="guide4164" />
    <sodipodi:guide
       position="41.000001,37"
       orientation="0.70710678,0.70710678"
       id="guide4168" />
    <sodipodi:guide
       position="12,33"
       orientation="1,0"
       id="guide4175" />
    <sodipodi:guide
       position="36.000001,27"
       orientation="1,0"
       id="guide4177" />
    <sodipodi:guide
       position="12,40"
       orientation="0,1"
       id="guide4179" />
  </sodipodi:namedview>
  <metadata
     id="metadata4153">
    <rdf:RDF>
      <cc:Work
         rdf:about="">
        <dc:format>image/svg+xml</dc:format>
        <dc:type
           rdf:resource="http://purl.org/dc/dcmitype/StillImage" />
        <dc:title>Boston Icons</dc:title>
        <dc:description>diazchris.deviantart.com</dc:description>
        <dc:creator>
          <cc:Agent>
            <dc:title>Chris D</dc:title>
          </cc:Agent>
        </dc:creator>
        <dc:publisher>
          <cc:Agent>
            <dc:title>Chris D</dc:title>
          </cc:Agent>
        </dc:publisher>
      </cc:Work>
    </rdf:RDF>
  </metadata>
  <g
     inkscape:label="Capa 1"
     inkscape:groupmode="layer"
     id="layer1"
     transform="translate(0,-1004.3622)">
    <path
       style="opacity:1;fill:#ffffff;fill-opacity:1;fill-rule:nonzero;stroke:#b6c1c9;stroke-width:1;stroke-linecap:square;stroke-linejoin:miter;stroke-miterlimit:4;stroke-dasharray:none;stroke-dashoffset:0;stroke-opacity:1"
       d="m 8,1006.3622 24,0 8,8 0,36 -32,0 z"
       id="rect4166"
       inkscape:connector-curvature="0"
       sodipodi:nodetypes="cccccc" />
    <path
       style="fill:none;fill-rule:evenodd;stroke:#b6c1c9;stroke-width:1px;stroke-linecap:butt;stroke-linejoin:miter;stroke-opacity:1;fill-opacity:1"
       d="m 32,1006.3622 0,8 8,0"
       id="path4173"
       inkscape:connector-curvature="0" />
    <path
       style="fill:#b6c1c9"
       d="m 33.332389,1037.0733 c -0.330623,-0.1563 -0.850001,-0.3869 -1.154173,-0.5125 -0.429737,-0.1774 -0.602179,-0.2769 -0.773432,-0.4464 -0.229765,-0.2274 -0.380741,-0.5598 -0.380741,-0.8382 0,-0.1487 -0.0039,-0.151 -0.697858,-0.4057 -0.383822,-0.1409 -0.710256,-0.2762 -0.725407,-0.3007 -0.01515,-0.024 -0.0706,-0.031 -0.123211,-0.014 -0.05807,0.018 -0.117906,0 -0.152247,-0.041 -0.03112,-0.039 -0.186426,-0.1182 -0.345125,-0.1757 -0.158698,-0.058 -0.566205,-0.2442 -0.905569,-0.4147 l -0.617025,-0.3101 -0.128378,0.091 c -0.365115,0.2577 -1.227156,0.6116 -1.811547,0.7437 -0.570135,0.1289 -1.524062,0.1841 -2.193213,0.127 -1.871861,-0.1597 -3.990844,-0.932 -5.641644,-2.0561 -0.306975,-0.209 -0.40949,-0.2551 -0.528648,-0.2376 -0.08131,0.012 -0.310283,0 -0.508849,-0.018 -1.104032,-0.1225 -2.234083,-1.2349 -2.569482,-2.5292 C 14.03413,1029.5734 14,1029.2588 14,1029.0353 c 0,-1.1164 0.652652,-1.7907 1.652684,-1.7075 0.646606,0.054 1.25486,0.3893 1.844083,1.0171 0.200974,0.2141 0.349494,0.346 0.330045,0.2931 -0.158258,-0.4305 -0.131247,-1.0284 0.0649,-1.4368 0.08569,-0.1784 0.09905,-0.3497 0.133573,-1.7131 l 0.03836,-1.5149 0.219713,0.3367 c 0.654984,1.0035 1.581724,1.7332 2.593585,2.0422 0.596938,0.1823 0.940578,0.2265 1.048788,0.135 0.569027,-0.4811 1.683647,-0.5662 2.308235,-0.1761 0.08651,0.054 0.169612,0.05 0.53433,-0.023 1.181357,-0.2388 2.17656,-0.6348 2.987795,-1.1891 0.967055,-0.6607 1.481431,-1.2971 1.987985,-2.4598 0.09929,-0.2279 0.141057,-0.2765 0.237528,-0.2765 0.17457,0 0.213422,0.1526 0.30001,1.1782 0.107555,1.274 0.107942,3.353 7.96e-4,4.232 -0.253684,2.081 -0.756347,3.5306 -1.619924,4.6715 -0.132017,0.1745 -0.233562,0.3218 -0.225653,0.3275 0.008,0.01 0.252426,0.1358 0.543374,0.2893 0.290947,0.1534 0.589276,0.3213 0.662952,0.3732 0.07367,0.052 0.163516,0.083 0.199646,0.069 0.03738,-0.014 0.07558,0.013 0.08863,0.062 0.01303,0.05 0.08633,0.1017 0.169733,0.12 0.08073,0.018 0.172787,0.064 0.204568,0.1019 0.03178,0.038 0.27214,0.21 0.534133,0.3817 l 0.476347,0.3121 0.131146,-0.097 c 0.174766,-0.1292 0.59916,-0.1948 0.900649,-0.1392 0.654869,0.1207 1.00206,0.6707 1.460413,2.3135 0.205872,0.7379 0.220508,0.8109 0.16117,0.8034 -0.01984,0 -0.306577,-0.1324 -0.6372,-0.2886 z"
       id="path4215"
       inkscape:connector-curvature="0" />
  </g>
</svg>
