<?xml version="1.0" encoding="UTF-8" standalone="no"?>
<!-- Created with Inkscape (http://www.inkscape.org/) -->

<svg
   xmlns:dc="http://purl.org/dc/elements/1.1/"
   xmlns:cc="http://creativecommons.org/ns#"
   xmlns:rdf="http://www.w3.org/1999/02/22-rdf-syntax-ns#"
   xmlns:svg="http://www.w3.org/2000/svg"
   xmlns="http://www.w3.org/2000/svg"
   xmlns:sodipodi="http://sodipodi.sourceforge.net/DTD/sodipodi-0.dtd"
   xmlns:inkscape="http://www.inkscape.org/namespaces/inkscape"
   width="48"
   height="48"
   viewBox="0 0 48.000001 48"
   id="svg4148"
   version="1.1"
   inkscape:version="0.91 r13725"
   sodipodi:docname="text-html.svg">
  <title
     id="title4159">Boston Icons</title>
  <defs
     id="defs4150" />
  <sodipodi:namedview
     id="base"
     pagecolor="#0f0f0f"
     bordercolor="#666666"
     borderopacity="1.0"
     inkscape:pageopacity="0"
     inkscape:pageshadow="2"
     inkscape:zoom="14.479167"
     inkscape:cx="25.57156"
     inkscape:cy="26.155396"
     inkscape:document-units="px"
     inkscape:current-layer="layer1"
     showgrid="false"
     units="px"
     showguides="false"
     inkscape:guide-bbox="true"
     inkscape:window-width="1366"
     inkscape:window-height="704"
     inkscape:window-x="0"
     inkscape:window-y="27"
     inkscape:window-maximized="1">
    <inkscape:grid
       type="xygrid"
       id="grid4696" />
    <sodipodi:guide
       position="0,37"
       orientation="1,0"
       id="guide4698" />
    <sodipodi:guide
       position="7.0000001,48"
       orientation="0,1"
       id="guide4700" />
    <sodipodi:guide
       position="48.000001,37"
       orientation="1,0"
       id="guide4702" />
    <sodipodi:guide
       position="36.000001,0"
       orientation="0,1"
       id="guide4704" />
    <sodipodi:guide
       position="16,40"
       orientation="1,0"
       id="guide4706" />
    <sodipodi:guide
       position="32.000001,46"
       orientation="1,0"
       id="guide4708" />
    <sodipodi:guide
       position="24,40"
       orientation="1,0"
       id="guide4710" />
    <sodipodi:guide
       position="8.0000002,44"
       orientation="1,0"
       id="guide4712" />
    <sodipodi:guide
       position="40.000001,41"
       orientation="1,0"
       id="guide4714" />
    <sodipodi:guide
       position="2,40"
       orientation="0,1"
       id="guide4716" />
    <sodipodi:guide
       position="3.0000001,32"
       orientation="0,1"
       id="guide4718" />
    <sodipodi:guide
       position="7.0000001,24"
       orientation="0,1"
       id="guide4720" />
    <sodipodi:guide
       position="3.0000001,16"
       orientation="0,1"
       id="guide4722" />
    <sodipodi:guide
       position="8.0000002,8"
       orientation="0,1"
       id="guide4724" />
    <sodipodi:guide
       position="33.000001,33"
       orientation="-0.70710678,0.70710678"
       id="guide4726" />
    <sodipodi:guide
       position="18,30"
       orientation="0.70710678,0.70710678"
       id="guide4728" />
    <sodipodi:guide
       position="2,27"
       orientation="1,0"
       id="guide4158" />
    <sodipodi:guide
       position="7.0000001,46"
       orientation="0,1"
       id="guide4160" />
    <sodipodi:guide
       position="46.000001,36"
       orientation="1,0"
       id="guide4162" />
    <sodipodi:guide
       position="30.000001,2"
       orientation="0,1"
       id="guide4164" />
    <sodipodi:guide
       position="41.000001,37"
       orientation="0.70710678,0.70710678"
       id="guide4168" />
    <sodipodi:guide
       position="12,33"
       orientation="1,0"
       id="guide4175" />
    <sodipodi:guide
       position="36.000001,27"
       orientation="1,0"
       id="guide4177" />
    <sodipodi:guide
       position="12,40"
       orientation="0,1"
       id="guide4179" />
    <sodipodi:guide
       position="-28.303572,27.410714"
       orientation="1,0"
       id="guide4725" />
  </sodipodi:namedview>
  <metadata
     id="metadata4153">
    <rdf:RDF>
      <cc:Work
         rdf:about="">
        <dc:format>image/svg+xml</dc:format>
        <dc:type
           rdf:resource="http://purl.org/dc/dcmitype/StillImage" />
        <dc:title>Boston Icons</dc:title>
        <dc:description>diazchris.deviantart.com</dc:description>
        <dc:creator>
          <cc:Agent>
            <dc:title>Chris D</dc:title>
          </cc:Agent>
        </dc:creator>
        <dc:publisher>
          <cc:Agent>
            <dc:title>Chris D</dc:title>
          </cc:Agent>
        </dc:publisher>
      </cc:Work>
    </rdf:RDF>
  </metadata>
  <g
     inkscape:label="Capa 1"
     inkscape:groupmode="layer"
     id="layer1"
     transform="translate(0,-1004.3622)">
    <path
       style="opacity:1;fill:#ffffff;fill-opacity:1;fill-rule:nonzero;stroke:#b6c1c9;stroke-width:1;stroke-linecap:square;stroke-linejoin:miter;stroke-miterlimit:4;stroke-dasharray:none;stroke-dashoffset:0;stroke-opacity:1"
       d="m 8,1006.3622 24,0 8,8 0,36 -32,0 z"
       id="rect4166"
       inkscape:connector-curvature="0"
       sodipodi:nodetypes="cccccc" />
    <path
       style="fill:none;fill-rule:evenodd;stroke:#b6c1c9;stroke-width:1px;stroke-linecap:butt;stroke-linejoin:miter;stroke-opacity:1;fill-opacity:1"
       d="m 32,1006.3622 0,8 8,0"
       id="path4173"
       inkscape:connector-curvature="0" />
    <g
       style="font-style:normal;font-variant:normal;font-weight:bold;font-stretch:normal;font-size:10px;line-height:125%;font-family:'Museo Sans';-inkscape-font-specification:'Museo Sans, Bold';text-align:start;letter-spacing:0px;word-spacing:0px;writing-mode:lr-tb;text-anchor:start;fill:#b6c1c9;fill-opacity:1;stroke:none;stroke-width:1px;stroke-linecap:butt;stroke-linejoin:miter;stroke-opacity:1"
       id="text4162-8"
       transform="matrix(0.81257981,0,0,0.81257981,5.0877421,191.48625)">
      <path
         d="m 10.243017,1034.8226 1.97,0 0.9,-3.61 c 0.11,-0.46 0.14,-0.84 0.14,-0.84 l 0.02,0 c 0,0 0.03,0.38 0.14,0.84 l 0.9,3.61 1.95,0 1.81,-7.15 -1.81,0 -0.98,4.47 c -0.09,0.44 -0.09,0.75 -0.09,0.75 l -0.02,0 c 0,0 -0.01,-0.31 -0.12,-0.75 l -1.07,-4.47 -1.41,0 -1.1,4.47 c -0.11,0.44 -0.12,0.75 -0.12,0.75 l -0.02,0 c 0,0 0,-0.31 -0.09,-0.75 l -0.9,-4.47 -1.8399996,0 1.7399996,7.15 z"
         style="fill:#b6c1c9"
         id="path4185"
         inkscape:connector-curvature="0" />
      <path
         d="m 20.223486,1034.8226 1.97,0 0.9,-3.61 c 0.11,-0.46 0.14,-0.84 0.14,-0.84 l 0.02,0 c 0,0 0.03,0.38 0.14,0.84 l 0.9,3.61 1.95,0 1.81,-7.15 -1.81,0 -0.98,4.47 c -0.09,0.44 -0.09,0.75 -0.09,0.75 l -0.02,0 c 0,0 -0.01,-0.31 -0.12,-0.75 l -1.07,-4.47 -1.41,0 -1.1,4.47 c -0.11,0.44 -0.12,0.75 -0.12,0.75 l -0.02,0 c 0,0 0,-0.31 -0.09,-0.75 l -0.9,-4.47 -1.84,0 1.74,7.15 z"
         style="fill:#b6c1c9"
         id="path4187"
         inkscape:connector-curvature="0" />
      <path
         d="m 30.203955,1034.8226 1.97,0 0.9,-3.61 c 0.11,-0.46 0.14,-0.84 0.14,-0.84 l 0.02,0 c 0,0 0.03,0.38 0.14,0.84 l 0.9,3.61 1.95,0 1.81,-7.15 -1.81,0 -0.98,4.47 c -0.09,0.44 -0.09,0.75 -0.09,0.75 l -0.02,0 c 0,0 -0.01,-0.31 -0.12,-0.75 l -1.07,-4.47 -1.41,0 -1.1,4.47 c -0.11,0.44 -0.12,0.75 -0.12,0.75 l -0.02,0 c 0,0 0,-0.31 -0.09,-0.75 l -0.9,-4.47 -1.84,0 1.74,7.15 z"
         style="fill:#b6c1c9"
         id="path4189"
         inkscape:connector-curvature="0" />
    </g>
  </g>
</svg>
