<?xml version="1.0" encoding="UTF-8" standalone="no"?>
<!-- Created with Inkscape (http://www.inkscape.org/) -->

<svg
   xmlns:dc="http://purl.org/dc/elements/1.1/"
   xmlns:cc="http://creativecommons.org/ns#"
   xmlns:rdf="http://www.w3.org/1999/02/22-rdf-syntax-ns#"
   xmlns:svg="http://www.w3.org/2000/svg"
   xmlns="http://www.w3.org/2000/svg"
   xmlns:sodipodi="http://sodipodi.sourceforge.net/DTD/sodipodi-0.dtd"
   xmlns:inkscape="http://www.inkscape.org/namespaces/inkscape"
   width="48"
   height="48"
   viewBox="0 0 48.000001 48"
   id="svg4148"
   version="1.1"
   inkscape:version="0.91 r13725"
   sodipodi:docname="x-office-address-book.svg">
  <title
     id="title4159">Boston Icons</title>
  <defs
     id="defs4150" />
  <sodipodi:namedview
     id="base"
     pagecolor="#0f0f0f"
     bordercolor="#666666"
     borderopacity="1.0"
     inkscape:pageopacity="0"
     inkscape:pageshadow="2"
     inkscape:zoom="10.238317"
     inkscape:cx="10.894561"
     inkscape:cy="22.909701"
     inkscape:document-units="px"
     inkscape:current-layer="layer1"
     showgrid="false"
     units="px"
     showguides="false"
     inkscape:guide-bbox="true"
     inkscape:window-width="1366"
     inkscape:window-height="704"
     inkscape:window-x="0"
     inkscape:window-y="27"
     inkscape:window-maximized="1">
    <inkscape:grid
       type="xygrid"
       id="grid4696" />
    <sodipodi:guide
       position="0,37"
       orientation="1,0"
       id="guide4698" />
    <sodipodi:guide
       position="7.0000001,48"
       orientation="0,1"
       id="guide4700" />
    <sodipodi:guide
       position="48.000001,37"
       orientation="1,0"
       id="guide4702" />
    <sodipodi:guide
       position="36.000001,0"
       orientation="0,1"
       id="guide4704" />
    <sodipodi:guide
       position="16,40"
       orientation="1,0"
       id="guide4706" />
    <sodipodi:guide
       position="32.000001,46"
       orientation="1,0"
       id="guide4708" />
    <sodipodi:guide
       position="24,40"
       orientation="1,0"
       id="guide4710" />
    <sodipodi:guide
       position="8.0000002,44"
       orientation="1,0"
       id="guide4712" />
    <sodipodi:guide
       position="40.000001,41"
       orientation="1,0"
       id="guide4714" />
    <sodipodi:guide
       position="2,40"
       orientation="0,1"
       id="guide4716" />
    <sodipodi:guide
       position="3.0000001,32"
       orientation="0,1"
       id="guide4718" />
    <sodipodi:guide
       position="7.0000001,24"
       orientation="0,1"
       id="guide4720" />
    <sodipodi:guide
       position="3.0000001,16"
       orientation="0,1"
       id="guide4722" />
    <sodipodi:guide
       position="8.0000002,8"
       orientation="0,1"
       id="guide4724" />
    <sodipodi:guide
       position="33.000001,33"
       orientation="-0.70710678,0.70710678"
       id="guide4726" />
    <sodipodi:guide
       position="18,30"
       orientation="0.70710678,0.70710678"
       id="guide4728" />
    <sodipodi:guide
       position="2,27"
       orientation="1,0"
       id="guide4158" />
    <sodipodi:guide
       position="7.0000001,46"
       orientation="0,1"
       id="guide4160" />
    <sodipodi:guide
       position="46.000001,36"
       orientation="1,0"
       id="guide4162" />
    <sodipodi:guide
       position="30.000001,2"
       orientation="0,1"
       id="guide4164" />
    <sodipodi:guide
       position="12,33"
       orientation="1,0"
       id="guide4175" />
    <sodipodi:guide
       position="36.000001,27"
       orientation="1,0"
       id="guide4177" />
    <sodipodi:guide
       position="12,40"
       orientation="0,1"
       id="guide4179" />
    <sodipodi:guide
       position="-28.303572,27.410714"
       orientation="1,0"
       id="guide4725" />
  </sodipodi:namedview>
  <metadata
     id="metadata4153">
    <rdf:RDF>
      <cc:Work
         rdf:about="">
        <dc:format>image/svg+xml</dc:format>
        <dc:type
           rdf:resource="http://purl.org/dc/dcmitype/StillImage" />
        <dc:title>Boston Icons</dc:title>
        <dc:description>diazchris.deviantart.com</dc:description>
        <dc:creator>
          <cc:Agent>
            <dc:title>Chris D</dc:title>
          </cc:Agent>
        </dc:creator>
        <dc:publisher>
          <cc:Agent>
            <dc:title>Chris D</dc:title>
          </cc:Agent>
        </dc:publisher>
      </cc:Work>
    </rdf:RDF>
  </metadata>
  <g
     inkscape:label="Capa 1"
     inkscape:groupmode="layer"
     id="layer1"
     transform="translate(0,-1004.3622)">
    <rect
       style="opacity:1;fill:#8990c9;fill-opacity:1;fill-rule:nonzero;stroke:none;stroke-width:1;stroke-linecap:butt;stroke-linejoin:miter;stroke-miterlimit:4;stroke-dasharray:none;stroke-dashoffset:0;stroke-opacity:1"
       id="rect4165"
       width="8"
       height="8.0000172"
       x="36"
       y="1012.3622" />
    <rect
       style="opacity:1;fill:#a29acd;fill-opacity:1;fill-rule:nonzero;stroke:none;stroke-width:1;stroke-linecap:butt;stroke-linejoin:miter;stroke-miterlimit:4;stroke-dasharray:none;stroke-dashoffset:0;stroke-opacity:1"
       id="rect4167"
       width="7.9999995"
       height="8"
       x="36"
       y="1020.3622" />
    <rect
       style="opacity:1;fill:#99cef3;fill-opacity:1;fill-rule:nonzero;stroke:none;stroke-width:1;stroke-linecap:butt;stroke-linejoin:miter;stroke-miterlimit:4;stroke-dasharray:none;stroke-dashoffset:0;stroke-opacity:1"
       id="rect4169"
       width="8"
       height="8"
       x="36"
       y="1028.3622" />
    <path
       style="fill:none;fill-rule:evenodd;stroke:#b6c1c9;stroke-width:1px;stroke-linecap:butt;stroke-linejoin:miter;stroke-opacity:1"
       d="m 44,1020.3622 -8,0"
       id="path4223"
       inkscape:connector-curvature="0" />
    <rect
       style="opacity:1;fill:#c8e6fc;fill-opacity:1;fill-rule:nonzero;stroke:none;stroke-width:1;stroke-linecap:butt;stroke-linejoin:miter;stroke-miterlimit:4;stroke-dasharray:none;stroke-dashoffset:0;stroke-opacity:1"
       id="rect4171"
       width="7.9999995"
       height="8"
       x="36"
       y="1036.3622" />
    <path
       style="fill:none;fill-rule:evenodd;stroke:#b6c1c9;stroke-width:1px;stroke-linecap:butt;stroke-linejoin:miter;stroke-opacity:1"
       d="m 44,1028.3622 -8,0"
       id="path4225"
       inkscape:connector-curvature="0" />
    <rect
       style="opacity:1;fill:none;fill-opacity:1;fill-rule:nonzero;stroke:#b6c1c9;stroke-width:1;stroke-linecap:butt;stroke-linejoin:miter;stroke-miterlimit:4;stroke-dasharray:none;stroke-dashoffset:0;stroke-opacity:1"
       id="rect4173"
       width="8"
       height="32"
       x="36"
       y="1012.3622" />
    <path
       style="fill:none;fill-rule:evenodd;stroke:#b6c1c9;stroke-width:1px;stroke-linecap:butt;stroke-linejoin:miter;stroke-opacity:1"
       d="m 44,1036.3622 -8,0"
       id="path4227"
       inkscape:connector-curvature="0" />
    <path
       style="opacity:1;fill:#f0c27e;fill-opacity:1;fill-rule:nonzero;stroke:#cda467;stroke-width:1;stroke-linecap:square;stroke-linejoin:miter;stroke-miterlimit:4;stroke-dasharray:none;stroke-dashoffset:0;stroke-opacity:1"
       d="m 8,1006.3622 32,0 0,8 0,36 -32,0 z"
       id="rect4166"
       inkscape:connector-curvature="0"
       sodipodi:nodetypes="cccccc" />
    <rect
       style="opacity:1;fill:#cda467;fill-opacity:1;fill-rule:nonzero;stroke:none;stroke-width:1;stroke-linecap:butt;stroke-linejoin:miter;stroke-miterlimit:4;stroke-dasharray:none;stroke-dashoffset:0;stroke-opacity:1"
       id="rect4163"
       width="4"
       height="43.999981"
       x="8"
       y="1006.3622" />
    <g
       style="font-style:normal;font-variant:normal;font-weight:bold;font-stretch:normal;font-size:10px;line-height:125%;font-family:'DejaVu Sans';-inkscape-font-specification:'DejaVu Sans, Bold';text-align:start;letter-spacing:0px;word-spacing:0px;writing-mode:lr-tb;text-anchor:start;fill:#cda467;fill-opacity:1;stroke:none;stroke-width:1px;stroke-linecap:butt;stroke-linejoin:miter;stroke-opacity:1"
       id="text4229"
       transform="matrix(1.8533938,0,0,1.8533938,-12.022627,-883.94006)">
      <path
         d="m 19.057617,1031.7303 q 0,0.6006 0.253906,0.9473 0.258789,0.3467 0.698243,0.3467 0.43457,0 0.693359,-0.3467 0.258789,-0.3516 0.258789,-0.9473 0,-0.5908 -0.263672,-0.9326 Q 20.439453,1030.451 20,1030.451 q -0.429688,0 -0.688477,0.3467 -0.253906,0.3418 -0.253906,0.9326 z m 2.001953,1.4698 q -0.146484,0.3467 -0.473633,0.542 -0.322265,0.1904 -0.756835,0.1904 -0.839844,0 -1.367188,-0.6055 -0.522461,-0.6103 -0.522461,-1.5869 0,-0.9766 0.527344,-1.5869 0.527344,-0.6104 1.362305,-0.6104 0.43457,0 0.756835,0.1954 0.327149,0.1953 0.473633,0.542 l 0,-0.6397 1.020508,0 0,3.3838 q 0.605469,-0.093 0.952149,-0.5811 0.346679,-0.4931 0.346679,-1.2597 0,-0.4883 -0.141601,-0.9131 -0.141602,-0.4297 -0.429688,-0.7861 -0.463867,-0.5958 -1.162109,-0.918 -0.69336,-0.3223 -1.503906,-0.3223 -0.566407,0 -1.083985,0.1514 -0.517578,0.1465 -0.957031,0.4346 -0.722656,0.4785 -1.12793,1.2402 -0.40039,0.7568 -0.40039,1.6406 0,0.7276 0.258789,1.3672 0.263672,0.6348 0.756836,1.123 0.488281,0.4786 1.118164,0.7276 0.634765,0.2539 1.352539,0.2539 0.615234,0 1.230468,-0.2295 0.615235,-0.2295 1.049805,-0.6201 l 0.522461,0.791 q -0.610351,0.4736 -1.333008,0.7227 -0.717773,0.2539 -1.459961,0.2539 -0.90332,0 -1.704101,-0.3223 -0.800781,-0.3174 -1.425781,-0.9277 -0.625,-0.6104 -0.952149,-1.4112 -0.327148,-0.8056 -0.327148,-1.7285 0,-0.8887 0.332031,-1.6943 0.332031,-0.8057 0.947266,-1.416 0.615234,-0.6055 1.430664,-0.9375 0.820312,-0.3321 1.699218,-0.3321 1.09375,0 1.987305,0.42 0.893555,0.415 1.494141,1.2011 0.366211,0.4785 0.551757,1.0401 0.19043,0.5566 0.19043,1.1718 0,1.3233 -0.795898,2.0557 -0.795899,0.7324 -2.246094,0.7324 l -0.19043,0 0,-0.7519 z"
         style="fill:#cda467"
         id="path4234"
         inkscape:connector-curvature="0" />
    </g>
  </g>
</svg>
