<?xml version="1.0" encoding="UTF-8" standalone="no"?>
<!-- Created with Inkscape (http://www.inkscape.org/) -->

<svg
   xmlns:dc="http://purl.org/dc/elements/1.1/"
   xmlns:cc="http://creativecommons.org/ns#"
   xmlns:rdf="http://www.w3.org/1999/02/22-rdf-syntax-ns#"
   xmlns:svg="http://www.w3.org/2000/svg"
   xmlns="http://www.w3.org/2000/svg"
   xmlns:sodipodi="http://sodipodi.sourceforge.net/DTD/sodipodi-0.dtd"
   xmlns:inkscape="http://www.inkscape.org/namespaces/inkscape"
   width="48"
   height="48"
   viewBox="0 0 48.000001 48"
   id="svg4148"
   version="1.1"
   inkscape:version="0.91 r13725"
   sodipodi:docname="gnome-characters.svg">
  <title
     id="title4159">Boston Icons</title>
  <defs
     id="defs4150" />
  <sodipodi:namedview
     id="base"
     pagecolor="#0f0f0f"
     bordercolor="#666666"
     borderopacity="1.0"
     inkscape:pageopacity="0"
     inkscape:pageshadow="2"
     inkscape:zoom="11.2"
     inkscape:cx="20.894785"
     inkscape:cy="21.753185"
     inkscape:document-units="px"
     inkscape:current-layer="layer1"
     showgrid="false"
     units="px"
     showguides="false"
     inkscape:guide-bbox="true"
     inkscape:window-width="1366"
     inkscape:window-height="704"
     inkscape:window-x="0"
     inkscape:window-y="27"
     inkscape:window-maximized="1">
    <inkscape:grid
       type="xygrid"
       id="grid4696" />
    <sodipodi:guide
       position="0,37"
       orientation="1,0"
       id="guide4698" />
    <sodipodi:guide
       position="7.0000001,48"
       orientation="0,1"
       id="guide4700" />
    <sodipodi:guide
       position="48.000001,37"
       orientation="1,0"
       id="guide4702" />
    <sodipodi:guide
       position="36.000001,0"
       orientation="0,1"
       id="guide4704" />
    <sodipodi:guide
       position="16,40"
       orientation="1,0"
       id="guide4706" />
    <sodipodi:guide
       position="32.000001,46"
       orientation="1,0"
       id="guide4708" />
    <sodipodi:guide
       position="24,40"
       orientation="1,0"
       id="guide4710" />
    <sodipodi:guide
       position="8.0000002,44"
       orientation="1,0"
       id="guide4712" />
    <sodipodi:guide
       position="40.000001,41"
       orientation="1,0"
       id="guide4714" />
    <sodipodi:guide
       position="2,40"
       orientation="0,1"
       id="guide4716" />
    <sodipodi:guide
       position="3.0000001,32"
       orientation="0,1"
       id="guide4718" />
    <sodipodi:guide
       position="7.0000001,24"
       orientation="0,1"
       id="guide4720" />
    <sodipodi:guide
       position="3.0000001,16"
       orientation="0,1"
       id="guide4722" />
    <sodipodi:guide
       position="8.0000002,8"
       orientation="0,1"
       id="guide4724" />
    <sodipodi:guide
       position="33.000001,33"
       orientation="-0.70710678,0.70710678"
       id="guide4726" />
    <sodipodi:guide
       position="18,30"
       orientation="0.70710678,0.70710678"
       id="guide4728" />
    <sodipodi:guide
       position="2,27"
       orientation="1,0"
       id="guide4158" />
    <sodipodi:guide
       position="7.0000001,46"
       orientation="0,1"
       id="guide4160" />
    <sodipodi:guide
       position="46.000001,36"
       orientation="1,0"
       id="guide4162" />
    <sodipodi:guide
       position="30.000001,2"
       orientation="0,1"
       id="guide4164" />
    <sodipodi:guide
       position="12,40"
       orientation="0,1"
       id="guide4179" />
  </sodipodi:namedview>
  <metadata
     id="metadata4153">
    <rdf:RDF>
      <cc:Work
         rdf:about="">
        <dc:format>image/svg+xml</dc:format>
        <dc:type
           rdf:resource="http://purl.org/dc/dcmitype/StillImage" />
        <dc:title>Boston Icons</dc:title>
        <dc:description>diazchris.deviantart.com</dc:description>
        <dc:creator>
          <cc:Agent>
            <dc:title>Chris D</dc:title>
          </cc:Agent>
        </dc:creator>
        <dc:publisher>
          <cc:Agent>
            <dc:title>Chris D</dc:title>
          </cc:Agent>
        </dc:publisher>
      </cc:Work>
    </rdf:RDF>
  </metadata>
  <g
     inkscape:label="Capa 1"
     inkscape:groupmode="layer"
     id="layer1"
     transform="translate(0,-1004.3622)">
    <rect
       style="opacity:0.99957718;fill:#1a1d20;fill-opacity:1;fill-rule:nonzero;stroke:#13151a;stroke-width:1;stroke-linecap:square;stroke-linejoin:miter;stroke-miterlimit:4;stroke-dasharray:none;stroke-dashoffset:0;stroke-opacity:1"
       id="rect4162"
       width="26"
       height="25.999983"
       x="20"
       y="-1032.3622"
       transform="scale(1,-1)"
       ry="1.9999826"
       rx="2" />
    <rect
       style="opacity:0.99957718;fill:#1a1d20;fill-opacity:1;fill-rule:nonzero;stroke:#13151a;stroke-width:1;stroke-linecap:square;stroke-linejoin:miter;stroke-miterlimit:4;stroke-dasharray:none;stroke-dashoffset:0;stroke-opacity:1"
       id="rect4164"
       width="26"
       height="26.000017"
       x="2"
       y="-1050.3622"
       transform="scale(1,-1)"
       ry="1.9999826"
       rx="2" />
    <g
       style="font-style:normal;font-variant:normal;font-weight:bold;font-stretch:normal;font-size:10px;line-height:125%;font-family:'Museo Sans';-inkscape-font-specification:'Museo Sans, Bold';text-align:start;letter-spacing:0px;word-spacing:0px;writing-mode:lr-tb;text-anchor:start;fill:#ffffff;fill-opacity:1;stroke:none;stroke-width:1px;stroke-linecap:butt;stroke-linejoin:miter;stroke-opacity:1"
       id="text4162"
       transform="matrix(1.9747036,0,0,1.9747036,-4.3055024,-1011.9617)">
      <path
         d="m 9.27,1037.7822 c 0,1.37 0.99,2.7 2.83,2.7 1.37,0 2.2,-0.75 2.2,-0.75 l -0.64,-1.21 c 0,0 -0.68,0.52 -1.42,0.52 -0.55,0 -1.07,-0.29 -1.2,-0.92 l 3.25,0 c 0,0 0.04,-0.37 0.04,-0.54 0,-1.43 -0.86,-2.49 -2.38,-2.49 -1.66,0 -2.68,1.18 -2.68,2.69 z m 1.81,-0.65 c 0.09,-0.38 0.33,-0.74 0.83,-0.74 0.41,0 0.68,0.35 0.68,0.74 l -1.51,0 z m 0.11,-2.42 1.34,0 1.18,-1.5 -1.71,0 -0.81,1.5 z"
         id="path4174"
         inkscape:connector-curvature="0"
         style="stroke:none;fill:#ffffff" />
    </g>
    <g
       style="font-style:normal;font-variant:normal;font-weight:bold;font-stretch:normal;font-size:10px;line-height:125%;font-family:'Museo Sans';-inkscape-font-specification:'Museo Sans, Bold';text-align:start;letter-spacing:0px;word-spacing:0px;writing-mode:lr-tb;text-anchor:start;fill:#ffffff;fill-opacity:1;stroke:none;stroke-width:1px;stroke-linecap:butt;stroke-linejoin:miter;stroke-opacity:1"
       id="text4166"
       transform="matrix(2.0193554,0,0,2.0193554,-55.037121,-1075.7412)">
      <path
         d="m 43.25,1038.8222 c 0,1.02 0.79,1.66 1.75,1.66 1.08,0 1.46,-0.75 1.46,-0.75 l 0.02,0 c 0,0 -0.02,0.15 -0.02,0.32 l 0,0.31 1.58,0 0,-3.17 c 0,-1.31 -0.87,-2.1 -2.32,-2.1 -1.27,0 -2.16,0.67 -2.16,0.67 l 0.6,1.22 c 0,0 0.74,-0.49 1.39,-0.49 0.43,0 0.76,0.14 0.76,0.57 l 0,0.09 -0.07,0 c -0.8,0 -2.99,0.17 -2.99,1.67 z m 1.74,-0.09 c 0,-0.43 0.63,-0.59 1.18,-0.59 l 0.16,0 0,0.11 c 0,0.42 -0.4,0.91 -0.85,0.91 -0.34,0 -0.49,-0.19 -0.49,-0.43 z m 1.22,-4.12 1.26,0 0,-1.4 -1.26,0 0,1.4 z m -2.09,0 1.26,0 0,-1.4 -1.26,0 0,1.4 z"
         id="path4171"
         inkscape:connector-curvature="0"
         style="fill:#ffffff;stroke:none" />
    </g>
  </g>
</svg>
