<?xml version="1.0" encoding="UTF-8" standalone="no"?>
<!-- Created with Inkscape (http://www.inkscape.org/) -->

<svg
   xmlns:dc="http://purl.org/dc/elements/1.1/"
   xmlns:cc="http://creativecommons.org/ns#"
   xmlns:rdf="http://www.w3.org/1999/02/22-rdf-syntax-ns#"
   xmlns:svg="http://www.w3.org/2000/svg"
   xmlns="http://www.w3.org/2000/svg"
   xmlns:sodipodi="http://sodipodi.sourceforge.net/DTD/sodipodi-0.dtd"
   xmlns:inkscape="http://www.inkscape.org/namespaces/inkscape"
   width="48"
   height="48"
   viewBox="0 0 48.000001 48"
   id="svg4148"
   version="1.1"
   inkscape:version="0.91 r13725"
   sodipodi:docname="evince.svg">
  <title
     id="title4159">Boston Icons</title>
  <defs
     id="defs4150" />
  <sodipodi:namedview
     id="base"
     pagecolor="#0f0f0f"
     bordercolor="#666666"
     borderopacity="1.0"
     inkscape:pageopacity="0"
     inkscape:pageshadow="2"
     inkscape:zoom="11.2"
     inkscape:cx="24.912642"
     inkscape:cy="21.21747"
     inkscape:document-units="px"
     inkscape:current-layer="layer1"
     showgrid="false"
     units="px"
     showguides="false"
     inkscape:guide-bbox="true"
     inkscape:window-width="1366"
     inkscape:window-height="704"
     inkscape:window-x="0"
     inkscape:window-y="27"
     inkscape:window-maximized="1">
    <inkscape:grid
       type="xygrid"
       id="grid4696" />
    <sodipodi:guide
       position="0,37"
       orientation="1,0"
       id="guide4698" />
    <sodipodi:guide
       position="7.0000001,48"
       orientation="0,1"
       id="guide4700" />
    <sodipodi:guide
       position="48.000001,37"
       orientation="1,0"
       id="guide4702" />
    <sodipodi:guide
       position="36.000001,0"
       orientation="0,1"
       id="guide4704" />
    <sodipodi:guide
       position="16,40"
       orientation="1,0"
       id="guide4706" />
    <sodipodi:guide
       position="32.000001,46"
       orientation="1,0"
       id="guide4708" />
    <sodipodi:guide
       position="24,40"
       orientation="1,0"
       id="guide4710" />
    <sodipodi:guide
       position="8.0000002,44"
       orientation="1,0"
       id="guide4712" />
    <sodipodi:guide
       position="40.000001,41"
       orientation="1,0"
       id="guide4714" />
    <sodipodi:guide
       position="2,40"
       orientation="0,1"
       id="guide4716" />
    <sodipodi:guide
       position="3.0000001,32"
       orientation="0,1"
       id="guide4718" />
    <sodipodi:guide
       position="7.0000001,24"
       orientation="0,1"
       id="guide4720" />
    <sodipodi:guide
       position="3.0000001,16"
       orientation="0,1"
       id="guide4722" />
    <sodipodi:guide
       position="8.0000002,8"
       orientation="0,1"
       id="guide4724" />
    <sodipodi:guide
       position="33.000001,33"
       orientation="-0.70710678,0.70710678"
       id="guide4726" />
    <sodipodi:guide
       position="18,30"
       orientation="0.70710678,0.70710678"
       id="guide4728" />
    <sodipodi:guide
       position="2,27"
       orientation="1,0"
       id="guide4158" />
    <sodipodi:guide
       position="7.0000001,46"
       orientation="0,1"
       id="guide4160" />
    <sodipodi:guide
       position="46.000001,36"
       orientation="1,0"
       id="guide4162" />
    <sodipodi:guide
       position="30.000001,2"
       orientation="0,1"
       id="guide4164" />
    <sodipodi:guide
       position="12,33"
       orientation="1,0"
       id="guide4175" />
    <sodipodi:guide
       position="12,40"
       orientation="0,1"
       id="guide4179" />
    <sodipodi:guide
       position="36.000001,40"
       orientation="1,0"
       id="guide4167" />
    <sodipodi:guide
       position="2,20"
       orientation="1,0"
       id="guide4725" />
    <sodipodi:guide
       position="46.000001,15"
       orientation="1,0"
       id="guide4727" />
  </sodipodi:namedview>
  <metadata
     id="metadata4153">
    <rdf:RDF>
      <cc:Work
         rdf:about="">
        <dc:format>image/svg+xml</dc:format>
        <dc:type
           rdf:resource="http://purl.org/dc/dcmitype/StillImage" />
        <dc:title>Boston Icons</dc:title>
        <dc:description>diazchris.deviantart.com</dc:description>
        <dc:creator>
          <cc:Agent>
            <dc:title>Chris D</dc:title>
          </cc:Agent>
        </dc:creator>
        <dc:publisher>
          <cc:Agent>
            <dc:title>Chris D</dc:title>
          </cc:Agent>
        </dc:publisher>
      </cc:Work>
    </rdf:RDF>
  </metadata>
  <g
     inkscape:label="Capa 1"
     inkscape:groupmode="layer"
     id="layer1"
     transform="translate(0,-1004.3622)">
    <rect
       style="opacity:1;fill:#ffffff;fill-opacity:1;fill-rule:nonzero;stroke:#b6c1c9;stroke-width:1;stroke-linecap:square;stroke-linejoin:miter;stroke-miterlimit:4;stroke-dasharray:none;stroke-dashoffset:0;stroke-opacity:1"
       id="rect4189"
       width="44"
       height="44"
       x="1.9999996"
       y="1006.3622" />
    <path
       style="fill:#e67760"
       d="m 3.3679925,1041.749 c 0.6468576,-0.342 2.0838324,-1.0651 3.1932754,-1.6069 1.109444,-0.5418 2.5011691,-1.2504 3.0927217,-1.5747 1.1275674,-0.6182 2.9486064,-1.7744 2.9486064,-1.8722 0,-0.031 -0.205816,-0.1993 -0.457377,-0.3731 -1.189407,-0.8218 -2.5824324,-2.5978 -3.2703201,-4.1695 -0.8126374,-1.8567 -1.1071719,-3.406 -1.0400702,-5.4709 0.074125,-2.281 0.5146096,-3.6808 1.7307753,-5.5002 1.405153,-2.1022 3.236075,-3.6601 5.67794,-4.8315 2.319572,-1.1127 4.668314,-1.6066 6.787971,-1.4271 1.216044,0.1026 1.897925,0.291 2.98552,0.8237 1.569705,0.7689 2.582678,1.8257 3.396378,3.5434 0.554176,1.1698 0.690146,1.7513 0.688658,2.9445 -0.0013,1.0347 -0.116847,1.654 -0.487693,2.6136 -1.331822,3.4461 -5.203171,7.1605 -11.256783,10.8006 l -0.777054,0.4673 0.820606,0.2968 c 3.910676,1.4151 7.9892,1.4901 12.568467,0.2313 5.037587,-1.3848 10.753128,-4.6549 14.58234,-8.343 l 0.894474,-0.8616 0,3.7966 0,3.7965 -0.370258,0.251 c -1.886934,1.2793 -5.784605,3.0417 -8.777232,3.9686 -3.524729,1.0917 -6.514296,1.562 -9.887995,1.5554 -4.230001,-0.01 -7.908126,-0.8569 -11.52436,-2.6592 l -1.070099,-0.5332 -0.728806,0.3697 c -2.282743,1.1581 -9.6811597,4.1828 -10.6119762,4.3385 -0.1780327,0.03 0.1545375,-0.1843 0.8922907,-0.5744 z m 13.2420675,-7.564 c 2.05417,-1.2838 3.834276,-2.7043 5.579224,-4.4523 1.892765,-1.8961 2.947354,-3.3483 3.686905,-5.0771 0.914583,-2.1381 0.740557,-4.2056 -0.471896,-5.6064 -1.145091,-1.3231 -2.633744,-1.9595 -4.612521,-1.9718 -4.076934,-0.026 -8.308223,2.7642 -9.942601,6.5552 -1.6993652,3.9417 -0.670697,8.0013 2.793572,11.0247 l 0.822354,0.7177 0.615111,-0.3091 c 0.338309,-0.17 1.026747,-0.5664 1.529852,-0.8809 z"
       id="path4148"
       inkscape:connector-curvature="0"
       sodipodi:nodetypes="sssssssssssscsscssscccsssscsssssssssscss" />
  </g>
</svg>
