<?xml version="1.0" encoding="UTF-8" standalone="no"?>
<!-- Created with Inkscape (http://www.inkscape.org/) -->

<svg
   xmlns:dc="http://purl.org/dc/elements/1.1/"
   xmlns:cc="http://creativecommons.org/ns#"
   xmlns:rdf="http://www.w3.org/1999/02/22-rdf-syntax-ns#"
   xmlns:svg="http://www.w3.org/2000/svg"
   xmlns="http://www.w3.org/2000/svg"
   xmlns:sodipodi="http://sodipodi.sourceforge.net/DTD/sodipodi-0.dtd"
   xmlns:inkscape="http://www.inkscape.org/namespaces/inkscape"
   width="48"
   height="48"
   viewBox="0 0 48.000001 48"
   id="svg4148"
   version="1.1"
   inkscape:version="0.91 r13725"
   sodipodi:docname="gcolor3.svg">
  <title
     id="title4159">Boston Icons</title>
  <defs
     id="defs4150" />
  <sodipodi:namedview
     id="base"
     pagecolor="#0f0f0f"
     bordercolor="#666666"
     borderopacity="1.0"
     inkscape:pageopacity="0"
     inkscape:pageshadow="2"
     inkscape:zoom="11.2"
     inkscape:cx="20.042727"
     inkscape:cy="17.064744"
     inkscape:document-units="px"
     inkscape:current-layer="layer1"
     showgrid="false"
     units="px"
     showguides="false"
     inkscape:guide-bbox="true"
     inkscape:window-width="1366"
     inkscape:window-height="704"
     inkscape:window-x="0"
     inkscape:window-y="27"
     inkscape:window-maximized="1">
    <inkscape:grid
       type="xygrid"
       id="grid4696" />
    <sodipodi:guide
       position="0,37"
       orientation="1,0"
       id="guide4698" />
    <sodipodi:guide
       position="7.0000001,48"
       orientation="0,1"
       id="guide4700" />
    <sodipodi:guide
       position="48.000001,37"
       orientation="1,0"
       id="guide4702" />
    <sodipodi:guide
       position="36.000001,0"
       orientation="0,1"
       id="guide4704" />
    <sodipodi:guide
       position="16,40"
       orientation="1,0"
       id="guide4706" />
    <sodipodi:guide
       position="32.000001,46"
       orientation="1,0"
       id="guide4708" />
    <sodipodi:guide
       position="24,40"
       orientation="1,0"
       id="guide4710" />
    <sodipodi:guide
       position="8.0000002,44"
       orientation="1,0"
       id="guide4712" />
    <sodipodi:guide
       position="40.000001,41"
       orientation="1,0"
       id="guide4714" />
    <sodipodi:guide
       position="2,40"
       orientation="0,1"
       id="guide4716" />
    <sodipodi:guide
       position="3.0000001,32"
       orientation="0,1"
       id="guide4718" />
    <sodipodi:guide
       position="7.0000001,24"
       orientation="0,1"
       id="guide4720" />
    <sodipodi:guide
       position="3.0000001,16"
       orientation="0,1"
       id="guide4722" />
    <sodipodi:guide
       position="8.0000002,8"
       orientation="0,1"
       id="guide4724" />
    <sodipodi:guide
       position="33.000001,33"
       orientation="-0.70710678,0.70710678"
       id="guide4726" />
    <sodipodi:guide
       position="18,30"
       orientation="0.70710678,0.70710678"
       id="guide4728" />
    <sodipodi:guide
       position="2,27"
       orientation="1,0"
       id="guide4158" />
    <sodipodi:guide
       position="7.0000001,46"
       orientation="0,1"
       id="guide4160" />
    <sodipodi:guide
       position="46.000001,36"
       orientation="1,0"
       id="guide4162" />
    <sodipodi:guide
       position="30.000001,2"
       orientation="0,1"
       id="guide4164" />
    <sodipodi:guide
       position="12,40"
       orientation="0,1"
       id="guide4179" />
  </sodipodi:namedview>
  <metadata
     id="metadata4153">
    <rdf:RDF>
      <cc:Work
         rdf:about="">
        <dc:format>image/svg+xml</dc:format>
        <dc:type
           rdf:resource="http://purl.org/dc/dcmitype/StillImage" />
        <dc:title>Boston Icons</dc:title>
        <dc:description>diazchris.deviantart.com</dc:description>
        <dc:creator>
          <cc:Agent>
            <dc:title>Chris D</dc:title>
          </cc:Agent>
        </dc:creator>
        <dc:publisher>
          <cc:Agent>
            <dc:title>Chris D</dc:title>
          </cc:Agent>
        </dc:publisher>
      </cc:Work>
    </rdf:RDF>
  </metadata>
  <g
     inkscape:label="Capa 1"
     inkscape:groupmode="layer"
     id="layer1"
     transform="translate(0,-1004.3622)">
    <path
       style="opacity:1;fill:#6acb9c;fill-opacity:1;fill-rule:nonzero;stroke:#ffffff;stroke-width:1;stroke-linecap:square;stroke-linejoin:miter;stroke-miterlimit:4;stroke-dasharray:none;stroke-dashoffset:0;stroke-opacity:1"
       d="M 18.345703 29.654297 L 8.453125 39.546875 A 22 22 0 0 0 24 46 L 24 32 A 8 8 0 0 1 18.345703 29.654297 z "
       id="path4191"
       transform="translate(0,1004.3622)" />
    <path
       style="opacity:1;fill:#99cef3;fill-opacity:1;fill-rule:nonzero;stroke:#ffffff;stroke-width:1;stroke-linecap:square;stroke-linejoin:miter;stroke-miterlimit:4;stroke-dasharray:none;stroke-dashoffset:0;stroke-opacity:1"
       d="M 2 24 A 22 22 0 0 0 8.453125 39.546875 L 18.345703 29.654297 A 8 8 0 0 1 16 24 L 2 24 z "
       id="path4167"
       transform="translate(0,1004.3622)" />
    <path
       style="opacity:1;fill:#6caace;fill-opacity:1;fill-rule:nonzero;stroke:#ffffff;stroke-width:1;stroke-linecap:square;stroke-linejoin:miter;stroke-miterlimit:4;stroke-dasharray:none;stroke-dashoffset:0;stroke-opacity:1"
       d="M 18.345703 18.345703 L 8.453125 8.453125 A 22 22 0 0 0 2 24 L 16 24 A 8 8 0 0 1 18.345703 18.345703 z "
       id="path4183"
       transform="translate(0,1004.3622)" />
    <path
       style="opacity:1;fill:#8990c9;fill-opacity:1;fill-rule:nonzero;stroke:#ffffff;stroke-width:1;stroke-linecap:square;stroke-linejoin:miter;stroke-miterlimit:4;stroke-dasharray:none;stroke-dashoffset:0;stroke-opacity:1"
       d="M 24 2 A 22 22 0 0 0 8.453125 8.453125 L 18.345703 18.345703 A 8 8 0 0 1 24 16 L 24 2 z "
       id="path4162"
       transform="translate(0,1004.3622)" />
    <path
       style="opacity:1;fill:#84e4b6;fill-opacity:1;fill-rule:nonzero;stroke:#ffffff;stroke-width:1;stroke-linecap:square;stroke-linejoin:miter;stroke-miterlimit:4;stroke-dasharray:none;stroke-dashoffset:0;stroke-opacity:1"
       d="M 39.546875 39.546875 L 29.654297 29.654297 A 8 8 0 0 1 24 32 L 24 46 A 22 22 0 0 0 39.546875 39.546875 z "
       id="path4196"
       transform="translate(0,1004.3622)" />
    <path
       style="opacity:1;fill:#fbe865;fill-opacity:1;fill-rule:nonzero;stroke:#ffffff;stroke-width:1;stroke-linecap:square;stroke-linejoin:miter;stroke-miterlimit:4;stroke-dasharray:none;stroke-dashoffset:0;stroke-opacity:1"
       d="M 32 24 A 8 8 0 0 1 29.654297 29.654297 L 39.546875 39.546875 A 22 22 0 0 0 46 24 L 32 24 z "
       id="path4173"
       transform="translate(0,1004.3622)" />
    <path
       style="opacity:1;fill:#fc955b;fill-opacity:1;fill-rule:nonzero;stroke:#ffffff;stroke-width:1;stroke-linecap:square;stroke-linejoin:miter;stroke-miterlimit:4;stroke-dasharray:none;stroke-dashoffset:0;stroke-opacity:1"
       d="M 39.546875 8.453125 L 29.654297 18.345703 A 8 8 0 0 1 32 24 L 46 24 A 22 22 0 0 0 39.546875 8.453125 z "
       id="path4178"
       transform="translate(0,1004.3622)" />
    <path
       style="opacity:1;fill:#e67760;fill-opacity:1;fill-rule:nonzero;stroke:#ffffff;stroke-width:1;stroke-linecap:square;stroke-linejoin:miter;stroke-miterlimit:4;stroke-dasharray:none;stroke-dashoffset:0;stroke-opacity:1"
       d="M 24 2 L 24 16 A 8 8 0 0 1 29.654297 18.345703 L 39.546875 8.453125 A 22 22 0 0 0 24 2 z "
       id="path4169"
       transform="translate(0,1004.3622)" />
    <path
       style="opacity:1;fill:#ffffff;fill-opacity:1;fill-rule:nonzero;stroke:none;stroke-width:1;stroke-linecap:square;stroke-linejoin:miter;stroke-miterlimit:4;stroke-dasharray:none;stroke-dashoffset:0;stroke-opacity:1"
       d="m 26.955467,1020.9295 a 8,8 0 0 0 -10.393506,4.4693 8,8 0 0 0 1.030032,7.7443 l 0.47724,10.0807 7.277502,-6.9855 a 8,8 0 0 0 6.07808,-4.9153 8,8 0 0 0 -4.469348,-10.3935 z"
       id="path4246"
       inkscape:connector-curvature="0"
       inkscape:transform-center-y="3.4480166"
       inkscape:transform-center-x="0.0045449706" />
  </g>
</svg>
