<?xml version="1.0" encoding="UTF-8" standalone="no"?>
<!-- Created with Inkscape (http://www.inkscape.org/) -->

<svg
   xmlns:dc="http://purl.org/dc/elements/1.1/"
   xmlns:cc="http://creativecommons.org/ns#"
   xmlns:rdf="http://www.w3.org/1999/02/22-rdf-syntax-ns#"
   xmlns:svg="http://www.w3.org/2000/svg"
   xmlns="http://www.w3.org/2000/svg"
   xmlns:sodipodi="http://sodipodi.sourceforge.net/DTD/sodipodi-0.dtd"
   xmlns:inkscape="http://www.inkscape.org/namespaces/inkscape"
   width="48"
   height="48"
   viewBox="0 0 48.000001 48"
   id="svg4148"
   version="1.1"
   inkscape:version="0.91 r13725"
   sodipodi:docname="gnome-logs-2.svg">
  <title
     id="title4159">Boston Icons</title>
  <defs
     id="defs4150" />
  <sodipodi:namedview
     id="base"
     pagecolor="#0f0f0f"
     bordercolor="#666666"
     borderopacity="1.0"
     inkscape:pageopacity="0"
     inkscape:pageshadow="2"
     inkscape:zoom="14.479167"
     inkscape:cx="31.526013"
     inkscape:cy="15.429187"
     inkscape:document-units="px"
     inkscape:current-layer="layer1"
     showgrid="false"
     units="px"
     showguides="false"
     inkscape:guide-bbox="true"
     inkscape:window-width="1366"
     inkscape:window-height="704"
     inkscape:window-x="0"
     inkscape:window-y="27"
     inkscape:window-maximized="1">
    <inkscape:grid
       type="xygrid"
       id="grid4696" />
    <sodipodi:guide
       position="0,37"
       orientation="1,0"
       id="guide4698" />
    <sodipodi:guide
       position="7.0000001,48"
       orientation="0,1"
       id="guide4700" />
    <sodipodi:guide
       position="48.000001,37"
       orientation="1,0"
       id="guide4702" />
    <sodipodi:guide
       position="36.000001,0"
       orientation="0,1"
       id="guide4704" />
    <sodipodi:guide
       position="16,40"
       orientation="1,0"
       id="guide4706" />
    <sodipodi:guide
       position="32.000001,46"
       orientation="1,0"
       id="guide4708" />
    <sodipodi:guide
       position="24,40"
       orientation="1,0"
       id="guide4710" />
    <sodipodi:guide
       position="8.0000002,44"
       orientation="1,0"
       id="guide4712" />
    <sodipodi:guide
       position="40.000001,41"
       orientation="1,0"
       id="guide4714" />
    <sodipodi:guide
       position="2,40"
       orientation="0,1"
       id="guide4716" />
    <sodipodi:guide
       position="3.0000001,32"
       orientation="0,1"
       id="guide4718" />
    <sodipodi:guide
       position="7.0000001,24"
       orientation="0,1"
       id="guide4720" />
    <sodipodi:guide
       position="3.0000001,16"
       orientation="0,1"
       id="guide4722" />
    <sodipodi:guide
       position="8.0000002,8"
       orientation="0,1"
       id="guide4724" />
    <sodipodi:guide
       position="33.000001,33"
       orientation="-0.70710678,0.70710678"
       id="guide4726" />
    <sodipodi:guide
       position="18,30"
       orientation="0.70710678,0.70710678"
       id="guide4728" />
    <sodipodi:guide
       position="2,27"
       orientation="1,0"
       id="guide4158" />
    <sodipodi:guide
       position="7.0000001,46"
       orientation="0,1"
       id="guide4160" />
    <sodipodi:guide
       position="46.000001,36"
       orientation="1,0"
       id="guide4162" />
    <sodipodi:guide
       position="30.000001,2"
       orientation="0,1"
       id="guide4164" />
    <sodipodi:guide
       position="12,33"
       orientation="1,0"
       id="guide4175" />
    <sodipodi:guide
       position="36.000001,27"
       orientation="1,0"
       id="guide4177" />
    <sodipodi:guide
       position="12,40"
       orientation="0,1"
       id="guide4179" />
    <sodipodi:guide
       position="-28.303572,27.410714"
       orientation="1,0"
       id="guide4725" />
  </sodipodi:namedview>
  <metadata
     id="metadata4153">
    <rdf:RDF>
      <cc:Work
         rdf:about="">
        <dc:format>image/svg+xml</dc:format>
        <dc:type
           rdf:resource="http://purl.org/dc/dcmitype/StillImage" />
        <dc:title>Boston Icons</dc:title>
        <dc:description>diazchris.deviantart.com</dc:description>
        <dc:creator>
          <cc:Agent>
            <dc:title>Chris D</dc:title>
          </cc:Agent>
        </dc:creator>
        <dc:publisher>
          <cc:Agent>
            <dc:title>Chris D</dc:title>
          </cc:Agent>
        </dc:publisher>
      </cc:Work>
    </rdf:RDF>
  </metadata>
  <g
     inkscape:label="Capa 1"
     inkscape:groupmode="layer"
     id="layer1"
     transform="translate(0,-1004.3622)">
    <path
       style="opacity:1;fill:#ffffff;fill-opacity:1;fill-rule:nonzero;stroke:none;stroke-width:1;stroke-linecap:square;stroke-linejoin:miter;stroke-miterlimit:4;stroke-dasharray:none;stroke-dashoffset:0;stroke-opacity:1"
       d="m 8,2 0,44 1,-1 1,1 1,-1 1,1 1,-1 1,1 1,-1 1,1 1,-1 1,1 1,-1 1,1 1,-1 1,1 1,-1 1,1 1,-1 1,1 1,-1 1,1 1,-1 1,1 1,-1 1,1 1,-1 1,1 1,-1 1,1 1,-1 1,1 1.014,-1 0.986,1 0,-36 0,-8 z m 2.5,2 C 10.776142,4 11,4.2238576 11,4.5 11,4.7761424 10.776142,5 10.5,5 10.223858,5 10,4.7761424 10,4.5 10,4.2238576 10.223858,4 10.5,4 Z m 27,0 C 37.776143,4 38,4.2238578 38,4.5 38,4.7761422 37.776143,5 37.5,5 37.223857,5 37,4.7761422 37,4.5 37,4.2238578 37.223857,4 37.5,4 Z m -27,2 C 10.776142,6 11,6.2238576 11,6.5 11,6.7761424 10.776142,7 10.5,7 10.223858,7 10,6.7761424 10,6.5 10,6.2238576 10.223858,6 10.5,6 Z m 27,0 C 37.776143,6 38,6.2238578 38,6.5 38,6.7761422 37.776143,7 37.5,7 37.223857,7 37,6.7761422 37,6.5 37,6.2238578 37.223857,6 37.5,6 Z m -27,2 C 10.776142,8 11,8.2238576 11,8.5 11,8.7761424 10.776142,9 10.5,9 10.223858,9 10,8.7761424 10,8.5 10,8.2238576 10.223858,8 10.5,8 Z M 37.464844,8 C 37.476559,7.9995879 37.488285,7.9995879 37.5,8 37.776143,8 38,8.2238578 38,8.5 38,8.7761422 37.776143,9 37.5,9 37.223857,9 37,8.7761422 37,8.5 36.999349,8.237024 37.202518,8.0184896 37.464844,8 Z M 37.5,9.9980469 c 0.276143,0 0.500001,0.2238581 0.5,0.5000001 0,0.276142 -0.223857,0.5 -0.5,0.5 -0.276143,0 -0.5,-0.223858 -0.5,-0.5 -10e-7,-0.276142 0.223857,-0.5000001 0.5,-0.5000001 z M 10.5,10 C 10.776142,10 11,10.223858 11,10.5 11,10.776142 10.776142,11 10.5,11 10.223858,11 10,10.776142 10,10.5 10,10.223858 10.223858,10 10.5,10 Z m 27,1.998047 c 0.276143,0 0.5,0.223858 0.5,0.5 0,0.276142 -0.223857,0.5 -0.5,0.5 -0.276143,0 -0.5,-0.223858 -0.5,-0.5 0,-0.276142 0.223857,-0.5 0.5,-0.5 z M 10.5,12 C 10.776142,12 11,12.223858 11,12.5 11,12.776142 10.776142,13 10.5,13 10.223858,13 10,12.776142 10,12.5 10,12.223858 10.223858,12 10.5,12 Z m 0,2 C 10.776142,14 11,14.223858 11,14.5 11,14.776142 10.776142,15 10.5,15 10.223858,15 10,14.776142 10,14.5 10,14.223858 10.223858,14 10.5,14 Z m 27,0 C 37.776143,14 38,14.223858 38,14.5 38,14.776142 37.776143,15 37.5,15 37.223857,15 37,14.776142 37,14.5 37,14.223858 37.223857,14 37.5,14 Z m -27,2 C 10.776142,16 11,16.223858 11,16.5 11,16.776142 10.776142,17 10.5,17 10.223858,17 10,16.776142 10,16.5 10,16.223858 10.223858,16 10.5,16 Z m 26.964844,0 c 0.01172,-4.12e-4 0.02344,-4.12e-4 0.03516,0 0.276143,0 0.5,0.223858 0.5,0.5 C 38,16.776142 37.776143,17 37.5,17 37.223857,17 37,16.776142 37,16.5 36.999349,16.237024 37.202518,16.01849 37.464844,16 Z M 10.5,18 C 10.776142,18 11,18.223858 11,18.5 11,18.776142 10.776142,19 10.5,19 10.223858,19 10,18.776142 10,18.5 10,18.223858 10.223858,18 10.5,18 Z m 26.964844,0 c 0.01172,-4.12e-4 0.02344,-4.12e-4 0.03516,0 0.276143,0 0.5,0.223858 0.5,0.5 C 38,18.776142 37.776143,19 37.5,19 37.223857,19 37,18.776142 37,18.5 36.999349,18.237024 37.202518,18.01849 37.464844,18 Z M 10.5,20 C 10.776142,20 11,20.223858 11,20.5 11,20.776142 10.776142,21 10.5,21 10.223858,21 10,20.776142 10,20.5 10,20.223858 10.223858,20 10.5,20 Z m 27,0 C 37.776143,20 38,20.223858 38,20.5 38,20.776142 37.776143,21 37.5,21 37.223857,21 37,20.776142 37,20.5 37,20.223858 37.223857,20 37.5,20 Z m -27,2 C 10.776142,22 11,22.223858 11,22.5 11,22.776142 10.776142,23 10.5,23 10.223858,23 10,22.776142 10,22.5 10,22.223858 10.223858,22 10.5,22 Z m 27,0 C 37.776143,22 38,22.223858 38,22.5 38,22.776142 37.776143,23 37.5,23 37.223857,23 37,22.776142 37,22.5 37,22.223858 37.223857,22 37.5,22 Z m -27,2 C 10.776142,24 11,24.223858 11,24.5 11,24.776142 10.776142,25 10.5,25 10.223858,25 10,24.776142 10,24.5 10,24.223858 10.223858,24 10.5,24 Z m 27,0 C 37.776143,24 38,24.223858 38,24.5 38,24.776142 37.776143,25 37.5,25 37.223857,25 37,24.776142 37,24.5 37,24.223858 37.223857,24 37.5,24 Z m -27,2 C 10.776142,26 11,26.223858 11,26.5 11,26.776142 10.776142,27 10.5,27 10.223858,27 10,26.776142 10,26.5 10,26.223858 10.223858,26 10.5,26 Z m 27,0 C 37.776143,26 38,26.223858 38,26.5 38,26.776142 37.776143,27 37.5,27 37.223857,27 37,26.776142 37,26.5 37,26.223858 37.223857,26 37.5,26 Z m -27,2 C 10.776142,28 11,28.223858 11,28.5 11,28.776142 10.776142,29 10.5,29 10.223858,29 10,28.776142 10,28.5 10,28.223858 10.223858,28 10.5,28 Z m 27,0 C 37.776143,28 38,28.223858 38,28.5 38,28.776142 37.776143,29 37.5,29 37.223857,29 37,28.776142 37,28.5 37,28.223858 37.223857,28 37.5,28 Z m -27,2 C 10.776142,30 11,30.223858 11,30.5 11,30.776142 10.776142,31 10.5,31 10.223858,31 10,30.776142 10,30.5 10,30.223858 10.223858,30 10.5,30 Z m 27,0 C 37.776143,30 38,30.223858 38,30.5 38,30.776142 37.776143,31 37.5,31 37.223857,31 37,30.776142 37,30.5 37,30.223858 37.223857,30 37.5,30 Z m -27,2 C 10.776142,32 11,32.223858 11,32.5 11,32.776142 10.776142,33 10.5,33 10.223858,33 10,32.776142 10,32.5 10,32.223858 10.223858,32 10.5,32 Z m 27,0 C 37.776143,32 38,32.223858 38,32.5 38,32.776142 37.776143,33 37.5,33 37.223857,33 37,32.776142 37,32.5 37,32.223858 37.223857,32 37.5,32 Z m -27,2 C 10.776142,34 11,34.223858 11,34.5 11,34.776142 10.776142,35 10.5,35 10.223858,35 10,34.776142 10,34.5 10,34.223858 10.223858,34 10.5,34 Z m 27,0 C 37.776143,34 38,34.223858 38,34.5 38,34.776142 37.776143,35 37.5,35 37.223857,35 37,34.776142 37,34.5 37,34.223858 37.223857,34 37.5,34 Z m -27,2 C 10.776142,36 11,36.223858 11,36.5 11,36.776142 10.776142,37 10.5,37 10.223858,37 10,36.776142 10,36.5 10,36.223858 10.223858,36 10.5,36 Z m 27,0 C 37.776143,36 38,36.223858 38,36.5 38,36.776142 37.776143,37 37.5,37 37.223857,37 37,36.776142 37,36.5 37,36.223858 37.223857,36 37.5,36 Z m -27,2 C 10.776142,38 11,38.223858 11,38.5 11,38.776142 10.776142,39 10.5,39 10.223858,39 10,38.776142 10,38.5 10,38.223858 10.223858,38 10.5,38 Z m 27,0 C 37.776143,38 38,38.223858 38,38.5 38,38.776142 37.776143,39 37.5,39 37.223857,39 37,38.776142 37,38.5 37,38.223858 37.223857,38 37.5,38 Z m -27,2 C 10.776142,40 11,40.223858 11,40.5 11,40.776142 10.776142,41 10.5,41 10.223858,41 10,40.776142 10,40.5 10,40.223858 10.223858,40 10.5,40 Z m 27,0 C 37.776143,40 38,40.223858 38,40.5 38,40.776142 37.776143,41 37.5,41 37.223857,41 37,40.776142 37,40.5 37,40.223858 37.223857,40 37.5,40 Z m -27,2 C 10.776142,42 11,42.223858 11,42.5 11,42.776142 10.776142,43 10.5,43 10.223858,43 10,42.776142 10,42.5 10,42.223858 10.223858,42 10.5,42 Z m 27,0 C 37.776143,42 38,42.223858 38,42.5 38,42.776142 37.776143,43 37.5,43 37.223857,43 37,42.776142 37,42.5 37,42.223858 37.223857,42 37.5,42 Z"
       transform="translate(0,1004.3622)"
       id="rect4166"
       inkscape:connector-curvature="0"
       sodipodi:nodetypes="cccccccccccccccccccccccccccccccccccccsssssssssssssssssssssssssccssccsssssssssssssssssssssssssssssssssssccssccsssssccssccssssssssssssssssssssssssssssssssssssssssssssssssssssssssssssssssssssssssssssssssssssssssssssssssssssssssssssssssssssssss" />
    <path
       style="opacity:1;fill:none;fill-opacity:1;fill-rule:nonzero;stroke:#b6c1c9;stroke-width:1;stroke-linecap:square;stroke-linejoin:miter;stroke-miterlimit:4;stroke-dasharray:none;stroke-dashoffset:0;stroke-opacity:1"
       d="m 8,1006.3622 0,44 1.0000003,-1 0.9999997,1 1,-1 1,1 1,-1 1,1 1,-1 1,1 1,-1 1,1 1,-1 1,1 1,-1 1,1 1,-1 1,1 1,-1 1,1 1,-1 1,1 1,-1 1,1 1,-1 1,1 1,-1 1,1 1,-1 1,1 1,-1 1,1 1.014,-1 0.986,1 0,-36 0,-8 z"
       id="rect4166-0"
       inkscape:connector-curvature="0"
       sodipodi:nodetypes="ccccccccccccccccccccccccccccccccccccc" />
    <path
       style="fill:none;fill-rule:evenodd;stroke:#b6c1c9;stroke-width:1px;stroke-linecap:butt;stroke-linejoin:miter;stroke-opacity:1"
       d="m 13,1011.3622 22,0"
       id="path4939"
       inkscape:connector-curvature="0" />
    <rect
       style="opacity:1;fill:#c8e6fc;fill-opacity:1;fill-rule:nonzero;stroke:none;stroke-width:1;stroke-linecap:square;stroke-linejoin:miter;stroke-miterlimit:4;stroke-dasharray:none;stroke-dashoffset:0;stroke-opacity:1"
       id="rect4975"
       width="6"
       height="2.0000174"
       x="25"
       y="1012.3622" />
    <path
       style="fill:none;fill-rule:evenodd;stroke:#b6c1c9;stroke-width:1px;stroke-linecap:butt;stroke-linejoin:miter;stroke-opacity:1"
       d="m 13,1013.3622 18,0"
       id="path4941"
       inkscape:connector-curvature="0" />
    <path
       style="fill:none;fill-rule:evenodd;stroke:#b6c1c9;stroke-width:1px;stroke-linecap:butt;stroke-linejoin:miter;stroke-opacity:1"
       d="m 13,1015.3622 8,0"
       id="path4943"
       inkscape:connector-curvature="0" />
    <path
       style="fill:none;fill-rule:evenodd;stroke:#b6c1c9;stroke-width:1px;stroke-linecap:butt;stroke-linejoin:miter;stroke-opacity:1"
       d="m 13,1017.3622 10,0"
       id="path4945"
       inkscape:connector-curvature="0" />
    <path
       style="fill:none;fill-rule:evenodd;stroke:#b6c1c9;stroke-width:1px;stroke-linecap:butt;stroke-linejoin:miter;stroke-opacity:1"
       d="m 13,1019.3622 4,0"
       id="path4947"
       inkscape:connector-curvature="0" />
    <path
       style="fill:none;fill-rule:evenodd;stroke:#b6c1c9;stroke-width:1px;stroke-linecap:butt;stroke-linejoin:miter;stroke-opacity:1"
       d="m 13,1021.3622 6,0"
       id="path4949"
       inkscape:connector-curvature="0" />
    <path
       style="fill:none;fill-rule:evenodd;stroke:#b6c1c9;stroke-width:1px;stroke-linecap:butt;stroke-linejoin:miter;stroke-opacity:1"
       d="m 13,1023.3622 12,0"
       id="path4951"
       inkscape:connector-curvature="0" />
    <path
       style="fill:none;fill-rule:evenodd;stroke:#b6c1c9;stroke-width:1px;stroke-linecap:butt;stroke-linejoin:miter;stroke-opacity:1"
       d="m 13,1025.3622 14,0"
       id="path4953"
       inkscape:connector-curvature="0" />
    <rect
       style="opacity:1;fill:#c8e6fc;fill-opacity:1;fill-rule:nonzero;stroke:none;stroke-width:1;stroke-linecap:square;stroke-linejoin:miter;stroke-miterlimit:4;stroke-dasharray:none;stroke-dashoffset:0;stroke-opacity:1"
       id="rect4977"
       width="4"
       height="2"
       x="13"
       y="1026.3622" />
    <path
       style="fill:none;fill-rule:evenodd;stroke:#b6c1c9;stroke-width:1px;stroke-linecap:butt;stroke-linejoin:miter;stroke-opacity:1"
       d="m 13,1027.3622 4,0"
       id="path4955"
       inkscape:connector-curvature="0" />
    <path
       style="fill:none;fill-rule:evenodd;stroke:#b6c1c9;stroke-width:1px;stroke-linecap:butt;stroke-linejoin:miter;stroke-opacity:1"
       d="m 13,1029.3622 20,0"
       id="path4957"
       inkscape:connector-curvature="0"
       sodipodi:nodetypes="cc" />
    <path
       style="fill:none;fill-rule:evenodd;stroke:#b6c1c9;stroke-width:1px;stroke-linecap:butt;stroke-linejoin:miter;stroke-opacity:1"
       d="m 13,1031.3622 12,0"
       id="path4959"
       inkscape:connector-curvature="0" />
    <path
       style="fill:none;fill-rule:evenodd;stroke:#b6c1c9;stroke-width:1px;stroke-linecap:butt;stroke-linejoin:miter;stroke-opacity:1"
       d="m 13,1033.3622 6,0"
       id="path4961"
       inkscape:connector-curvature="0" />
    <path
       style="fill:none;fill-rule:evenodd;stroke:#b6c1c9;stroke-width:1px;stroke-linecap:butt;stroke-linejoin:miter;stroke-opacity:1"
       d="m 13,1035.3622 8,0"
       id="path4963"
       inkscape:connector-curvature="0" />
    <rect
       style="opacity:1;fill:#c8e6fc;fill-opacity:1;fill-rule:nonzero;stroke:none;stroke-width:1;stroke-linecap:square;stroke-linejoin:miter;stroke-miterlimit:4;stroke-dasharray:none;stroke-dashoffset:0;stroke-opacity:1"
       id="rect4979"
       width="6"
       height="2"
       x="21"
       y="1036.3622" />
    <path
       style="fill:none;fill-rule:evenodd;stroke:#b6c1c9;stroke-width:1px;stroke-linecap:butt;stroke-linejoin:miter;stroke-opacity:1"
       d="m 13,1037.3622 18,0"
       id="path4965"
       inkscape:connector-curvature="0" />
    <path
       style="fill:none;fill-rule:evenodd;stroke:#b6c1c9;stroke-width:1px;stroke-linecap:butt;stroke-linejoin:miter;stroke-opacity:1"
       d="m 13,1039.3622 16,0"
       id="path4967"
       inkscape:connector-curvature="0" />
    <path
       style="fill:none;fill-rule:evenodd;stroke:#b6c1c9;stroke-width:1px;stroke-linecap:butt;stroke-linejoin:miter;stroke-opacity:1"
       d="m 13,1041.3622 2,0"
       id="path4969"
       inkscape:connector-curvature="0" />
    <path
       style="fill:none;fill-rule:evenodd;stroke:#b6c1c9;stroke-width:1px;stroke-linecap:butt;stroke-linejoin:miter;stroke-opacity:1"
       d="m 13,1043.3622 4,0"
       id="path4971"
       inkscape:connector-curvature="0" />
    <path
       style="fill:none;fill-rule:evenodd;stroke:#b6c1c9;stroke-width:1px;stroke-linecap:butt;stroke-linejoin:miter;stroke-opacity:1"
       d="m 13,1045.3622 2,0"
       id="path4973"
       inkscape:connector-curvature="0" />
    <rect
       style="opacity:1;fill:#fbe865;fill-opacity:1;fill-rule:nonzero;stroke:#fbc342;stroke-width:1;stroke-linecap:square;stroke-linejoin:miter;stroke-miterlimit:4;stroke-dasharray:none;stroke-dashoffset:0;stroke-opacity:1"
       id="rect4981"
       width="18"
       height="5.9999828"
       x="28"
       y="1044.3622" />
    <path
       style="fill:#fbc342;fill-rule:evenodd;stroke:none;stroke-width:1px;stroke-linecap:butt;stroke-linejoin:miter;stroke-opacity:1;fill-opacity:1"
       d="m 24,1037.3622 22,7 -18,0 z"
       id="path4983"
       inkscape:connector-curvature="0" />
  </g>
</svg>
