<?xml version="1.0" encoding="UTF-8" standalone="no"?>
<!-- Created with Inkscape (http://www.inkscape.org/) -->

<svg
   xmlns:dc="http://purl.org/dc/elements/1.1/"
   xmlns:cc="http://creativecommons.org/ns#"
   xmlns:rdf="http://www.w3.org/1999/02/22-rdf-syntax-ns#"
   xmlns:svg="http://www.w3.org/2000/svg"
   xmlns="http://www.w3.org/2000/svg"
   xmlns:sodipodi="http://sodipodi.sourceforge.net/DTD/sodipodi-0.dtd"
   xmlns:inkscape="http://www.inkscape.org/namespaces/inkscape"
   width="48"
   height="48"
   viewBox="0 0 48.000001 48"
   id="svg4148"
   version="1.1"
   inkscape:version="0.91 r13725"
   sodipodi:docname="google-chrome-beta.svg">
  <title
     id="title4159">Boston Icons</title>
  <defs
     id="defs4150" />
  <sodipodi:namedview
     id="base"
     pagecolor="#0f0f0f"
     bordercolor="#666666"
     borderopacity="1.0"
     inkscape:pageopacity="0"
     inkscape:pageshadow="2"
     inkscape:zoom="11.2"
     inkscape:cx="28.552237"
     inkscape:cy="2.426896"
     inkscape:document-units="px"
     inkscape:current-layer="layer1"
     showgrid="false"
     units="px"
     showguides="false"
     inkscape:guide-bbox="true"
     inkscape:window-width="1366"
     inkscape:window-height="704"
     inkscape:window-x="0"
     inkscape:window-y="27"
     inkscape:window-maximized="1">
    <inkscape:grid
       type="xygrid"
       id="grid4696" />
    <sodipodi:guide
       position="0,37"
       orientation="1,0"
       id="guide4698" />
    <sodipodi:guide
       position="7.0000001,48"
       orientation="0,1"
       id="guide4700" />
    <sodipodi:guide
       position="48.000001,37"
       orientation="1,0"
       id="guide4702" />
    <sodipodi:guide
       position="36.000001,0"
       orientation="0,1"
       id="guide4704" />
    <sodipodi:guide
       position="16,40"
       orientation="1,0"
       id="guide4706" />
    <sodipodi:guide
       position="32.000001,46"
       orientation="1,0"
       id="guide4708" />
    <sodipodi:guide
       position="24,40"
       orientation="1,0"
       id="guide4710" />
    <sodipodi:guide
       position="8.0000002,44"
       orientation="1,0"
       id="guide4712" />
    <sodipodi:guide
       position="40.000001,41"
       orientation="1,0"
       id="guide4714" />
    <sodipodi:guide
       position="2,40"
       orientation="0,1"
       id="guide4716" />
    <sodipodi:guide
       position="3.0000001,32"
       orientation="0,1"
       id="guide4718" />
    <sodipodi:guide
       position="7.0000001,24"
       orientation="0,1"
       id="guide4720" />
    <sodipodi:guide
       position="3.0000001,16"
       orientation="0,1"
       id="guide4722" />
    <sodipodi:guide
       position="8.0000002,8"
       orientation="0,1"
       id="guide4724" />
    <sodipodi:guide
       position="33.000001,33"
       orientation="-0.70710678,0.70710678"
       id="guide4726" />
    <sodipodi:guide
       position="18,30"
       orientation="0.70710678,0.70710678"
       id="guide4728" />
    <sodipodi:guide
       position="2,27"
       orientation="1,0"
       id="guide4158" />
    <sodipodi:guide
       position="7.0000001,46"
       orientation="0,1"
       id="guide4160" />
    <sodipodi:guide
       position="46.000001,36"
       orientation="1,0"
       id="guide4162" />
    <sodipodi:guide
       position="30.000001,2"
       orientation="0,1"
       id="guide4164" />
    <sodipodi:guide
       position="12,40"
       orientation="0,1"
       id="guide4179" />
  </sodipodi:namedview>
  <metadata
     id="metadata4153">
    <rdf:RDF>
      <cc:Work
         rdf:about="">
        <dc:format>image/svg+xml</dc:format>
        <dc:type
           rdf:resource="http://purl.org/dc/dcmitype/StillImage" />
        <dc:title>Boston Icons</dc:title>
        <dc:description>diazchris.deviantart.com</dc:description>
        <dc:creator>
          <cc:Agent>
            <dc:title>Chris D</dc:title>
          </cc:Agent>
        </dc:creator>
        <dc:publisher>
          <cc:Agent>
            <dc:title>Chris D</dc:title>
          </cc:Agent>
        </dc:publisher>
      </cc:Work>
    </rdf:RDF>
  </metadata>
  <g
     inkscape:label="Capa 1"
     inkscape:groupmode="layer"
     id="layer1"
     transform="translate(0,-1004.3622)">
    <path
       style="fill:#13151a;fill-opacity:1;fill-rule:evenodd;stroke:none;stroke-width:1px;stroke-linecap:butt;stroke-linejoin:miter;stroke-opacity:1"
       d="m 46,1040.3622 -7,3 0,-3 z"
       id="path4186"
       inkscape:connector-curvature="0"
       sodipodi:nodetypes="cccc" />
    <path
       style="opacity:1;fill:#fbe865;fill-opacity:1;fill-rule:nonzero;stroke:#fbc342;stroke-width:1;stroke-linecap:square;stroke-linejoin:miter;stroke-miterlimit:4;stroke-dasharray:none;stroke-dashoffset:0;stroke-opacity:1"
       d="M 43.570312 14 L 24 14 A 10 10 0 0 1 34 24 A 10 10 0 0 1 30.884766 31.246094 L 24 46 A 22 22 0 0 0 46 24 A 22 22 0 0 0 43.570312 14 z "
       id="path4337"
       transform="translate(0,1004.3622)" />
    <path
       style="opacity:1;fill:#84e4b6;fill-opacity:1;fill-rule:nonzero;stroke:#6acb9c;stroke-width:1;stroke-linecap:square;stroke-linejoin:miter;stroke-miterlimit:4;stroke-dasharray:none;stroke-dashoffset:0;stroke-opacity:1"
       d="M 24 46 L 30.884766 31.246094 A 10 10 0 0 1 24 34 A 10 10 0 0 1 14 24 L 6.0664062 11.304688 A 22 22 0 0 0 2 24 A 22 22 0 0 0 24 46 z "
       id="path4339"
       transform="translate(0,1004.3622)" />
    <path
       style="opacity:1;fill:#e67760;fill-opacity:1;fill-rule:nonzero;stroke:#c4604a;stroke-width:1;stroke-linecap:square;stroke-linejoin:miter;stroke-miterlimit:4;stroke-dasharray:none;stroke-dashoffset:0;stroke-opacity:1"
       d="M 24 2 A 22 22 0 0 0 6.0664062 11.304688 L 14 24 A 10 10 0 0 1 24 14 L 43.570312 14 A 22 22 0 0 0 24 2 z "
       id="path4161"
       transform="translate(0,1004.3622)" />
    <circle
       style="opacity:1;fill:#ffffff;fill-opacity:1;fill-rule:nonzero;stroke:#b6c1c9;stroke-width:1;stroke-linecap:square;stroke-linejoin:miter;stroke-miterlimit:4;stroke-dasharray:none;stroke-dashoffset:0;stroke-opacity:1"
       id="path4362"
       cx="24"
       cy="1028.3622"
       r="10" />
    <circle
       style="opacity:1;fill:#99cef3;fill-opacity:1;fill-rule:nonzero;stroke:#6caace;stroke-width:1;stroke-linecap:square;stroke-linejoin:miter;stroke-miterlimit:4;stroke-dasharray:none;stroke-dashoffset:0;stroke-opacity:1"
       id="path4366"
       cx="24"
       cy="1028.3622"
       r="7" />
    <rect
       style="opacity:0.99957718;fill:#1a1d20;fill-opacity:1;fill-rule:nonzero;stroke:#13151a;stroke-width:1;stroke-linecap:butt;stroke-linejoin:miter;stroke-miterlimit:4;stroke-dasharray:none;stroke-dashoffset:0;stroke-opacity:1"
       id="rect4164"
       width="30"
       height="11.999983"
       x="16"
       y="1028.3622" />
    <g
       style="font-style:normal;font-variant:normal;font-weight:bold;font-stretch:normal;font-size:10px;line-height:125%;font-family:'Museo Sans';-inkscape-font-specification:'Museo Sans, Bold';text-align:start;letter-spacing:0px;word-spacing:0px;writing-mode:lr-tb;text-anchor:start;fill:#ffffff;fill-opacity:1;stroke:none;stroke-width:1px;stroke-linecap:butt;stroke-linejoin:miter;stroke-opacity:1"
       id="text4166"
       transform="matrix(1.0796571,0,0,1.0796571,7.3761739,-98.907844)">
      <path
         d="m 9.84,1053.3622 2.63,0 c 1.42,0 2.72,-0.57 2.72,-2.13 0,-0.63 -0.3,-1.36 -1.12,-1.61 l 0,-0.02 c 0.54,-0.31 0.83,-0.92 0.83,-1.52 0,-1.23 -1,-1.87 -2.43,-1.87 l -2.63,0 0,7.15 z m 1.75,-4.38 0,-1.27 0.87,0 c 0.47,0 0.66,0.28 0.66,0.61 0,0.34 -0.19,0.66 -0.63,0.66 l -0.9,0 z m 0,2.88 0,-1.48 1.06,0 c 0.51,0 0.75,0.33 0.75,0.73 0,0.4 -0.25,0.75 -0.76,0.75 l -1.05,0 z"
         style="fill:#ffffff"
         id="path4171"
         inkscape:connector-curvature="0" />
      <path
         d="m 16.422031,1053.3622 4.62,0 0,-1.5 -2.87,0 0,-1.35 2.18,0 0,-1.5 -2.18,0 0,-1.3 2.73,0 0,-1.5 -4.48,0 0,7.15 z"
         style="fill:#ffffff"
         id="path4173"
         inkscape:connector-curvature="0" />
      <path
         d="m 23.670937,1053.3622 1.75,0 0,-5.65 2.17,0 0,-1.5 -6.09,0 0,1.5 2.17,0 0,5.65 z"
         style="fill:#ffffff"
         id="path4176"
         inkscape:connector-curvature="0" />
      <path
         d="m 32.121719,1053.3622 1.8,0 -2.43,-7.15 -1.84,0 -2.43,7.15 1.8,0 0.43,-1.5 2.23,0 0.44,1.5 z m -1.54,-5.52 c 0,0 0.16,0.78 0.29,1.23 l 0.4,1.39 -1.41,0 0.41,-1.39 c 0.13,-0.45 0.29,-1.23 0.29,-1.23 l 0.02,0 z"
         style="fill:#ffffff"
         id="path4178"
         inkscape:connector-curvature="0" />
    </g>
  </g>
</svg>
