<?xml version="1.0" encoding="UTF-8" standalone="no"?>
<!-- Created with Inkscape (http://www.inkscape.org/) -->

<svg
   xmlns:dc="http://purl.org/dc/elements/1.1/"
   xmlns:cc="http://creativecommons.org/ns#"
   xmlns:rdf="http://www.w3.org/1999/02/22-rdf-syntax-ns#"
   xmlns:svg="http://www.w3.org/2000/svg"
   xmlns="http://www.w3.org/2000/svg"
   xmlns:sodipodi="http://sodipodi.sourceforge.net/DTD/sodipodi-0.dtd"
   xmlns:inkscape="http://www.inkscape.org/namespaces/inkscape"
   width="48"
   height="48"
   viewBox="0 0 48.000001 48"
   id="svg4148"
   version="1.1"
   inkscape:version="0.91 r13725"
   sodipodi:docname="help-browser.svg">
  <title
     id="title4159">Boston Icons</title>
  <defs
     id="defs4150" />
  <sodipodi:namedview
     id="base"
     pagecolor="#0f0f0f"
     bordercolor="#666666"
     borderopacity="1.0"
     inkscape:pageopacity="0"
     inkscape:pageshadow="2"
     inkscape:zoom="11.2"
     inkscape:cx="29.274376"
     inkscape:cy="29.219966"
     inkscape:document-units="px"
     inkscape:current-layer="layer1"
     showgrid="false"
     units="px"
     showguides="false"
     inkscape:guide-bbox="true"
     inkscape:window-width="1366"
     inkscape:window-height="704"
     inkscape:window-x="0"
     inkscape:window-y="27"
     inkscape:window-maximized="1">
    <inkscape:grid
       type="xygrid"
       id="grid4696" />
    <sodipodi:guide
       position="0,37"
       orientation="1,0"
       id="guide4698" />
    <sodipodi:guide
       position="7.0000001,48"
       orientation="0,1"
       id="guide4700" />
    <sodipodi:guide
       position="48.000001,37"
       orientation="1,0"
       id="guide4702" />
    <sodipodi:guide
       position="36.000001,0"
       orientation="0,1"
       id="guide4704" />
    <sodipodi:guide
       position="16,40"
       orientation="1,0"
       id="guide4706" />
    <sodipodi:guide
       position="32.000001,46"
       orientation="1,0"
       id="guide4708" />
    <sodipodi:guide
       position="24,40"
       orientation="1,0"
       id="guide4710" />
    <sodipodi:guide
       position="8.0000002,44"
       orientation="1,0"
       id="guide4712" />
    <sodipodi:guide
       position="40.000001,41"
       orientation="1,0"
       id="guide4714" />
    <sodipodi:guide
       position="2,40"
       orientation="0,1"
       id="guide4716" />
    <sodipodi:guide
       position="3.0000001,32"
       orientation="0,1"
       id="guide4718" />
    <sodipodi:guide
       position="7.0000001,24"
       orientation="0,1"
       id="guide4720" />
    <sodipodi:guide
       position="3.0000001,16"
       orientation="0,1"
       id="guide4722" />
    <sodipodi:guide
       position="8.0000002,8"
       orientation="0,1"
       id="guide4724" />
    <sodipodi:guide
       position="2,27"
       orientation="1,0"
       id="guide4158" />
    <sodipodi:guide
       position="7.0000001,46"
       orientation="0,1"
       id="guide4160" />
    <sodipodi:guide
       position="46.000001,36"
       orientation="1,0"
       id="guide4162" />
    <sodipodi:guide
       position="30.000001,2"
       orientation="0,1"
       id="guide4164" />
    <sodipodi:guide
       position="12,40"
       orientation="0,1"
       id="guide4179" />
    <sodipodi:guide
       position="32.000001,40"
       orientation="-0.70710678,0.70710678"
       id="guide4155" />
    <sodipodi:guide
       position="16,8"
       orientation="-0.70710678,0.70710678"
       id="guide4157" />
    <sodipodi:guide
       position="30.000001,10"
       orientation="0.70710678,0.70710678"
       id="guide4159" />
    <sodipodi:guide
       position="43.000001,13"
       orientation="0.70710678,0.70710678"
       id="guide4161" />
  </sodipodi:namedview>
  <metadata
     id="metadata4153">
    <rdf:RDF>
      <cc:Work
         rdf:about="">
        <dc:format>image/svg+xml</dc:format>
        <dc:type
           rdf:resource="http://purl.org/dc/dcmitype/StillImage" />
        <dc:title>Boston Icons</dc:title>
        <dc:description>diazchris.deviantart.com</dc:description>
        <dc:creator>
          <cc:Agent>
            <dc:title>Chris D</dc:title>
          </cc:Agent>
        </dc:creator>
        <dc:publisher>
          <cc:Agent>
            <dc:title>Chris D</dc:title>
          </cc:Agent>
        </dc:publisher>
      </cc:Work>
    </rdf:RDF>
  </metadata>
  <g
     inkscape:label="Capa 1"
     inkscape:groupmode="layer"
     id="layer1"
     transform="translate(0,-1004.3622)">
    <path
       style="opacity:0.99957718;fill:#ffffff;fill-opacity:1;fill-rule:nonzero;stroke:#b6c1c9;stroke-width:1;stroke-linecap:butt;stroke-linejoin:miter;stroke-miterlimit:4;stroke-dasharray:none;stroke-dashoffset:0;stroke-opacity:1"
       d="M 34.277344 30.166016 L 42.84375 35.306641 A 22 22 0 0 0 46 24 A 22 22 0 0 0 42.841797 12.695312 L 34.279297 17.832031 A 12 12 0 0 1 36 24 A 12 12 0 0 1 34.277344 30.166016 z "
       id="path4185"
       transform="translate(0,1004.3622)" />
    <path
       style="opacity:0.99957718;fill:#ffffff;fill-opacity:1;fill-rule:nonzero;stroke:#b6c1c9;stroke-width:1;stroke-linecap:butt;stroke-linejoin:miter;stroke-miterlimit:4;stroke-dasharray:none;stroke-dashoffset:0;stroke-opacity:1"
       d="M 17.833984 34.277344 L 12.693359 42.84375 A 22 22 0 0 0 24 46 A 22 22 0 0 0 35.304688 42.841797 L 30.167969 34.279297 A 12 12 0 0 1 24 36 A 12 12 0 0 1 17.833984 34.277344 z "
       id="path4192"
       transform="translate(0,1004.3622)" />
    <path
       style="opacity:0.99957718;fill:#ffffff;fill-opacity:1;fill-rule:nonzero;stroke:#b6c1c9;stroke-width:1;stroke-linecap:butt;stroke-linejoin:miter;stroke-miterlimit:4;stroke-dasharray:none;stroke-dashoffset:0;stroke-opacity:1"
       d="M 5.15625 12.693359 A 22 22 0 0 0 2 24 A 22 22 0 0 0 5.1582031 35.304688 L 13.720703 30.167969 A 12 12 0 0 1 12 24 A 12 12 0 0 1 13.722656 17.833984 L 5.15625 12.693359 z "
       id="path4178"
       transform="translate(0,1004.3622)" />
    <path
       style="opacity:0.99957718;fill:#ffffff;fill-opacity:1;fill-rule:nonzero;stroke:#b6c1c9;stroke-width:1;stroke-linecap:butt;stroke-linejoin:miter;stroke-miterlimit:4;stroke-dasharray:none;stroke-dashoffset:0;stroke-opacity:1"
       d="M 24 2 A 22 22 0 0 0 12.695312 5.1582031 L 17.832031 13.720703 A 12 12 0 0 1 24 12 A 12 12 0 0 1 30.166016 13.722656 L 35.306641 5.15625 A 22 22 0 0 0 24 2 z "
       id="path4229"
       transform="translate(0,1004.3622)" />
    <path
       style="opacity:0.99957718;fill:#e67760;fill-opacity:1;fill-rule:nonzero;stroke:#c4604a;stroke-width:1;stroke-linecap:butt;stroke-linejoin:miter;stroke-miterlimit:4;stroke-dasharray:none;stroke-dashoffset:0;stroke-opacity:1"
       d="M 5.15625 12.693359 L 13.722656 17.833984 A 12 12 0 0 1 17.832031 13.720703 L 12.695312 5.1582031 A 22 22 0 0 0 5.15625 12.693359 z "
       id="path4171"
       transform="translate(0,1004.3622)" />
    <path
       style="opacity:0.99957718;fill:#e67760;fill-opacity:1;fill-rule:nonzero;stroke:#c4604a;stroke-width:1;stroke-linecap:butt;stroke-linejoin:miter;stroke-miterlimit:4;stroke-dasharray:none;stroke-dashoffset:0;stroke-opacity:1"
       d="M 30.167969 34.279297 L 35.304688 42.841797 A 22 22 0 0 0 42.84375 35.306641 L 34.277344 30.166016 A 12 12 0 0 1 30.167969 34.279297 z "
       id="path4183"
       transform="translate(0,1004.3622)" />
    <path
       style="opacity:0.99957718;fill:#e67760;fill-opacity:1;fill-rule:nonzero;stroke:#c4604a;stroke-width:1;stroke-linecap:butt;stroke-linejoin:miter;stroke-miterlimit:4;stroke-dasharray:none;stroke-dashoffset:0;stroke-opacity:1"
       d="M 13.720703 30.167969 L 5.1582031 35.304688 A 22 22 0 0 0 12.693359 42.84375 L 17.833984 34.277344 A 12 12 0 0 1 13.720703 30.167969 z "
       id="path4190"
       transform="translate(0,1004.3622)" />
    <path
       style="opacity:0.99957718;fill:#e67760;fill-opacity:1;fill-rule:nonzero;stroke:#c4604a;stroke-width:1;stroke-linecap:butt;stroke-linejoin:miter;stroke-miterlimit:4;stroke-dasharray:none;stroke-dashoffset:0;stroke-opacity:1"
       d="M 35.306641 5.15625 L 30.166016 13.722656 A 12 12 0 0 1 34.279297 17.832031 L 42.841797 12.695312 A 22 22 0 0 0 35.306641 5.15625 z "
       id="path4176"
       transform="translate(0,1004.3622)" />
  </g>
</svg>
