<?xml version="1.0" encoding="UTF-8" standalone="no"?>
<!-- Created with Inkscape (http://www.inkscape.org/) -->

<svg
   xmlns:dc="http://purl.org/dc/elements/1.1/"
   xmlns:cc="http://creativecommons.org/ns#"
   xmlns:rdf="http://www.w3.org/1999/02/22-rdf-syntax-ns#"
   xmlns:svg="http://www.w3.org/2000/svg"
   xmlns="http://www.w3.org/2000/svg"
   xmlns:sodipodi="http://sodipodi.sourceforge.net/DTD/sodipodi-0.dtd"
   xmlns:inkscape="http://www.inkscape.org/namespaces/inkscape"
   width="48"
   height="48"
   viewBox="0 0 48.000001 48"
   id="svg4148"
   version="1.1"
   inkscape:version="0.91 r13725"
   sodipodi:docname="iceweasel.svg">
  <title
     id="title4159">Boston Icons</title>
  <defs
     id="defs4150" />
  <sodipodi:namedview
     id="base"
     pagecolor="#0f0f0f"
     bordercolor="#666666"
     borderopacity="1.0"
     inkscape:pageopacity="0"
     inkscape:pageshadow="2"
     inkscape:zoom="31.678384"
     inkscape:cx="26.208873"
     inkscape:cy="2.9950073"
     inkscape:document-units="px"
     inkscape:current-layer="layer1"
     showgrid="false"
     units="px"
     showguides="false"
     inkscape:guide-bbox="true"
     inkscape:window-width="1366"
     inkscape:window-height="704"
     inkscape:window-x="0"
     inkscape:window-y="27"
     inkscape:window-maximized="1">
    <inkscape:grid
       type="xygrid"
       id="grid4696" />
    <sodipodi:guide
       position="0,37"
       orientation="1,0"
       id="guide4698" />
    <sodipodi:guide
       position="7.0000001,48"
       orientation="0,1"
       id="guide4700" />
    <sodipodi:guide
       position="48.000001,37"
       orientation="1,0"
       id="guide4702" />
    <sodipodi:guide
       position="36.000001,0"
       orientation="0,1"
       id="guide4704" />
    <sodipodi:guide
       position="16,40"
       orientation="1,0"
       id="guide4706" />
    <sodipodi:guide
       position="32.000001,46"
       orientation="1,0"
       id="guide4708" />
    <sodipodi:guide
       position="24,40"
       orientation="1,0"
       id="guide4710" />
    <sodipodi:guide
       position="8.0000002,44"
       orientation="1,0"
       id="guide4712" />
    <sodipodi:guide
       position="40.000001,41"
       orientation="1,0"
       id="guide4714" />
    <sodipodi:guide
       position="2,40"
       orientation="0,1"
       id="guide4716" />
    <sodipodi:guide
       position="3.0000001,32"
       orientation="0,1"
       id="guide4718" />
    <sodipodi:guide
       position="7.0000001,24"
       orientation="0,1"
       id="guide4720" />
    <sodipodi:guide
       position="3.0000001,16"
       orientation="0,1"
       id="guide4722" />
    <sodipodi:guide
       position="8.0000002,8"
       orientation="0,1"
       id="guide4724" />
    <sodipodi:guide
       position="33.000001,33"
       orientation="-0.70710678,0.70710678"
       id="guide4726" />
    <sodipodi:guide
       position="18,30"
       orientation="0.70710678,0.70710678"
       id="guide4728" />
    <sodipodi:guide
       position="2,27"
       orientation="1,0"
       id="guide4158" />
    <sodipodi:guide
       position="7.0000001,46"
       orientation="0,1"
       id="guide4160" />
    <sodipodi:guide
       position="46.000001,36"
       orientation="1,0"
       id="guide4162" />
    <sodipodi:guide
       position="30.000001,2"
       orientation="0,1"
       id="guide4164" />
    <sodipodi:guide
       position="12,40"
       orientation="0,1"
       id="guide4179" />
  </sodipodi:namedview>
  <metadata
     id="metadata4153">
    <rdf:RDF>
      <cc:Work
         rdf:about="">
        <dc:format>image/svg+xml</dc:format>
        <dc:type
           rdf:resource="http://purl.org/dc/dcmitype/StillImage" />
        <dc:title>Boston Icons</dc:title>
        <dc:description>diazchris.deviantart.com</dc:description>
        <dc:creator>
          <cc:Agent>
            <dc:title>Chris D</dc:title>
          </cc:Agent>
        </dc:creator>
        <dc:publisher>
          <cc:Agent>
            <dc:title>Chris D</dc:title>
          </cc:Agent>
        </dc:publisher>
      </cc:Work>
    </rdf:RDF>
  </metadata>
  <g
     inkscape:label="Capa 1"
     inkscape:groupmode="layer"
     id="layer1"
     transform="translate(0,-1004.3622)">
    <path
       style="opacity:1;fill:#99cef3;fill-opacity:1;fill-rule:nonzero;stroke:#6caace;stroke-width:1;stroke-linecap:square;stroke-linejoin:miter;stroke-miterlimit:4;stroke-dasharray:none;stroke-dashoffset:0;stroke-opacity:1"
       d="M 24,2 C 11.849736,2 2,11.849736 2,24 2,36.150264 11.849736,46 24,46 36.150264,46 46,36.150264 46,24 46,11.849736 36.150264,2 24,2 Z"
       transform="translate(0,1004.3622)"
       id="path4169"
       inkscape:connector-curvature="0"
       sodipodi:nodetypes="sssss" />
    <path
       style="fill:#6caace;fill-opacity:1;fill-rule:evenodd;stroke:none;stroke-width:1px;stroke-linecap:butt;stroke-linejoin:miter;stroke-opacity:1"
       d="m 5.9425456,1016.6479 c -0.04282,-1.7688 3.3652949,-1.6795 4.0685734,0.1655 1.192386,0.9379 2.059639,2.157 3.071595,3.2655 1.029628,1.3986 2.929052,0.8969 4.261296,1.5559 1.23881,1.0424 1.658281,2.7737 1.812234,4.3317 0.202278,1.8685 -0.186763,3.7903 -1.170289,5.3916 0.01963,2.1252 -3.34403,0.5887 -2.824252,2.9925 -0.664872,2.5014 -0.492532,5.0845 -0.504833,7.6446 -1.343627,0.5629 -2.928119,2.3158 -3.739056,3.5884 -1.7219099,-0.4258 -3.5178262,-3.2214 -4.501814,-4.1679 -1.4211667,-1.4938 -2.0539011,-3.3547 -2.9158753,-5.1706 -0.7336725,-1.5916 -1.1521906,-3.4632 -1.2701269,-5.2214 -0.1034016,-1.997 -0.45296,-4.2322 0.1174898,-6.1489 0.1578178,-1.9846 1.0176366,-3.8314 1.7943647,-5.6779 0.338447,-0.8981 0.8787339,-2.2712 1.8006933,-2.549 z"
       id="path4159"
       inkscape:connector-curvature="0"
       sodipodi:nodetypes="ccccccccccccccc" />
    <path
       style="fill:#6caace;fill-opacity:1;fill-rule:evenodd;stroke:none;stroke-width:1px;stroke-linecap:butt;stroke-linejoin:miter;stroke-opacity:1"
       d="m 33.90028,1012.6619 c 0.60324,1.6631 1.070924,3.6263 0.176185,5.2759 -1.448458,1.2133 -3.811704,1.1456 -4.766816,2.967 -1.288143,0.8984 -0.52025,3.7835 1.223635,2.7222 0.450355,0.4265 1.137349,2.5053 1.559478,0.9653 -0.662514,-1.7047 1.430327,-3.6388 2.517082,-1.6127 1.460008,1.4523 -0.02893,3.0323 -0.242459,4.5067 -0.67363,0.8557 -1.856225,0.9457 -2.049718,2.2951 -0.760397,0.93 -0.180707,3.5654 1.020731,1.823 0.71253,-0.9862 2.00919,-1.2225 2.925067,-0.6287 0.710398,-0.6248 0.651384,-3.1997 1.947183,-1.5729 1.587131,1.5068 -0.01237,3.4447 -0.475929,4.8851 0.456404,1.8005 -1.772192,3.7676 -2.770108,1.5715 -0.926676,-1.484 -2.676562,-0.4307 -3.772661,-1.5129 -1.206636,-0.9948 -3.131323,-0.8042 -3.447954,0.9299 -0.852199,1.3659 -3.079687,1.5545 -3.29772,3.3558 -0.439226,2.1161 2.079032,2.4821 3.618517,2.2863 1.796405,0.5783 2.33452,-2.0064 2.574669,-2.5501 1.277745,0.737 2.051847,3.7081 0.132631,3.9805 -1.745657,0.3655 -3.540922,0.3372 -5.302844,0.2027 -1.652462,0.3901 -2.200103,3.2968 -0.364261,3.853 1.670852,0.1412 2.9767,2.854 4.584304,3.0276 1.800334,0.028 4.112116,-1.2957 5.460941,-2.3085 1.803162,-0.8533 2.581161,-1.4944 3.726206,-2.8327 2.717737,-1.7072 5.276379,-6.7238 6.189576,-9.7781 1.292493,-4.6608 0.992101,-7.9141 -0.304427,-12.9086 -0.703472,-3.0055 -3.754165,-7.371 -6.367361,-9.7261 -1.501215,-0.7595 -2.556226,-0.5599 -4.210894,0.4159 l -0.157695,0.1601 -0.125353,0.1964"
       id="path4163"
       inkscape:connector-curvature="0"
       sodipodi:nodetypes="cccccccccccccccccccccccccccccc" />
    <path
       style="fill:#6caace;fill-opacity:1;fill-rule:evenodd;stroke:none;stroke-width:1px;stroke-linecap:butt;stroke-linejoin:miter;stroke-opacity:1"
       d="m 16,1008.3622 c 0.125358,0.8309 1.094343,1.1885 1.839666,1.0808 0.781335,-0.1505 1.621185,-0.1318 2.323389,0.2843 0.488254,0.3112 0.84939,0.8861 1.414293,0.3583 0.509759,-0.2973 1.058279,-0.6412 1.677243,-0.5499 0.669996,0.035 1.594559,-0.1389 1.738831,-0.9186 0.392237,0.5672 1.204503,0.6538 1.749273,1.0641 0.317257,0.014 0.868039,-0.3246 1.286975,-0.021 0.536455,0.193 1.042709,0.755 1.645764,0.4345 0.571972,-0.4339 1.211356,-0.8378 1.66669,-1.4037 0.361477,-0.6056 -0.17269,-1.2714 -0.678556,-1.5861 -1.086005,-0.7196 -2.896697,-0.7405 -4.120812,-0.594 -0.828482,0.073 -1.646813,-0.3672 -2.478201,-0.2956 -1.110056,0.011 -2.036336,0.1379 -3.145811,0.1647 -1.216102,0.7166 -2.483522,0.6602 -3.702183,1.376 -0.412998,0.1865 -0.8251,0.3779 -1.216561,0.6066 z"
       id="path4181"
       inkscape:connector-curvature="0"
       sodipodi:nodetypes="ccccccccccccccccc" />
  </g>
</svg>
