<?xml version="1.0" encoding="UTF-8" standalone="no"?>
<!-- Created with Inkscape (http://www.inkscape.org/) -->

<svg
   xmlns:dc="http://purl.org/dc/elements/1.1/"
   xmlns:cc="http://creativecommons.org/ns#"
   xmlns:rdf="http://www.w3.org/1999/02/22-rdf-syntax-ns#"
   xmlns:svg="http://www.w3.org/2000/svg"
   xmlns="http://www.w3.org/2000/svg"
   xmlns:sodipodi="http://sodipodi.sourceforge.net/DTD/sodipodi-0.dtd"
   xmlns:inkscape="http://www.inkscape.org/namespaces/inkscape"
   width="48"
   height="48"
   viewBox="0 0 48.000001 48"
   id="svg4148"
   version="1.1"
   inkscape:version="0.91 r13725"
   sodipodi:docname="input-keyboard-2.svg">
  <title
     id="title4159">Boston Icons</title>
  <defs
     id="defs4150" />
  <sodipodi:namedview
     id="base"
     pagecolor="#0f0f0f"
     bordercolor="#666666"
     borderopacity="1.0"
     inkscape:pageopacity="0"
     inkscape:pageshadow="2"
     inkscape:zoom="11.2"
     inkscape:cx="25.833509"
     inkscape:cy="10.038809"
     inkscape:document-units="px"
     inkscape:current-layer="layer1"
     showgrid="false"
     units="px"
     showguides="false"
     inkscape:guide-bbox="true"
     inkscape:window-width="1366"
     inkscape:window-height="704"
     inkscape:window-x="0"
     inkscape:window-y="27"
     inkscape:window-maximized="1">
    <inkscape:grid
       type="xygrid"
       id="grid4696" />
    <sodipodi:guide
       position="0,37"
       orientation="1,0"
       id="guide4698" />
    <sodipodi:guide
       position="7.0000001,48"
       orientation="0,1"
       id="guide4700" />
    <sodipodi:guide
       position="48.000001,37"
       orientation="1,0"
       id="guide4702" />
    <sodipodi:guide
       position="36.000001,0"
       orientation="0,1"
       id="guide4704" />
    <sodipodi:guide
       position="16,40"
       orientation="1,0"
       id="guide4706" />
    <sodipodi:guide
       position="32.000001,46"
       orientation="1,0"
       id="guide4708" />
    <sodipodi:guide
       position="24,40"
       orientation="1,0"
       id="guide4710" />
    <sodipodi:guide
       position="8.0000002,44"
       orientation="1,0"
       id="guide4712" />
    <sodipodi:guide
       position="40.000001,41"
       orientation="1,0"
       id="guide4714" />
    <sodipodi:guide
       position="2,40"
       orientation="0,1"
       id="guide4716" />
    <sodipodi:guide
       position="3.0000001,32"
       orientation="0,1"
       id="guide4718" />
    <sodipodi:guide
       position="7.0000001,24"
       orientation="0,1"
       id="guide4720" />
    <sodipodi:guide
       position="3.0000001,16"
       orientation="0,1"
       id="guide4722" />
    <sodipodi:guide
       position="8.0000002,8"
       orientation="0,1"
       id="guide4724" />
    <sodipodi:guide
       position="33.000001,33"
       orientation="-0.70710678,0.70710678"
       id="guide4726" />
    <sodipodi:guide
       position="18,30"
       orientation="0.70710678,0.70710678"
       id="guide4728" />
    <sodipodi:guide
       position="2,27"
       orientation="1,0"
       id="guide4158" />
    <sodipodi:guide
       position="7.0000001,46"
       orientation="0,1"
       id="guide4160" />
    <sodipodi:guide
       position="46.000001,36"
       orientation="1,0"
       id="guide4162" />
    <sodipodi:guide
       position="30.000001,2"
       orientation="0,1"
       id="guide4164" />
    <sodipodi:guide
       position="12,40"
       orientation="0,1"
       id="guide4179" />
  </sodipodi:namedview>
  <metadata
     id="metadata4153">
    <rdf:RDF>
      <cc:Work
         rdf:about="">
        <dc:format>image/svg+xml</dc:format>
        <dc:type
           rdf:resource="http://purl.org/dc/dcmitype/StillImage" />
        <dc:title>Boston Icons</dc:title>
        <dc:description>diazchris.deviantart.com</dc:description>
        <dc:creator>
          <cc:Agent>
            <dc:title>Chris D</dc:title>
          </cc:Agent>
        </dc:creator>
        <dc:publisher>
          <cc:Agent>
            <dc:title>Chris D</dc:title>
          </cc:Agent>
        </dc:publisher>
      </cc:Work>
    </rdf:RDF>
  </metadata>
  <g
     inkscape:label="Capa 1"
     inkscape:groupmode="layer"
     id="layer1"
     transform="translate(0,-1004.3622)">
    <rect
       style="opacity:0.99957718;fill:#1a1d20;fill-opacity:1;fill-rule:nonzero;stroke:#13151a;stroke-width:1;stroke-linecap:butt;stroke-linejoin:miter;stroke-miterlimit:4;stroke-dasharray:none;stroke-dashoffset:0;stroke-opacity:1"
       id="rect4158"
       width="21"
       height="21.000017"
       x="2"
       y="1006.3622"
       ry="2.0000174"
       rx="1" />
    <rect
       style="opacity:0.99957718;fill:#1a1d20;fill-opacity:1;fill-rule:nonzero;stroke:#13151a;stroke-width:1;stroke-linecap:butt;stroke-linejoin:miter;stroke-miterlimit:4;stroke-dasharray:none;stroke-dashoffset:0;stroke-opacity:1"
       id="rect4175"
       width="21"
       height="21"
       x="25"
       y="1006.3622"
       ry="2.0000174"
       rx="2" />
    <rect
       style="opacity:0.99957718;fill:#1a1d20;fill-opacity:1;fill-rule:nonzero;stroke:#13151a;stroke-width:1;stroke-linecap:butt;stroke-linejoin:miter;stroke-miterlimit:4;stroke-dasharray:none;stroke-dashoffset:0;stroke-opacity:1"
       id="rect4175-3"
       width="34"
       height="20.999983"
       x="12"
       y="1029.3622"
       ry="2.0000174"
       rx="2" />
    <g
       style="font-style:normal;font-variant:normal;font-weight:bold;font-stretch:normal;font-size:10px;line-height:125%;font-family:'Museo Sans';-inkscape-font-specification:'Museo Sans, Bold';text-align:start;letter-spacing:0px;word-spacing:0px;writing-mode:lr-tb;text-anchor:start;fill:#ffffff;fill-opacity:1;stroke:none;stroke-width:1px;stroke-linecap:butt;stroke-linejoin:miter;stroke-opacity:1"
       id="text4192"
       transform="translate(2.33,-19.925009)">
      <path
         d="m 7.38,1040.3622 5.58,0 0,-1.5 -2.82,0 c -0.32,0 -0.55,0.03 -0.55,0.03 l 0,-0.02 c 0,0 0.24,-0.21 0.55,-0.65 l 2.77,-3.93 0,-1.08 -5.4,0 0,1.5 2.63,0 c 0.32,0 0.55,-0.03 0.55,-0.03 l 0,0.02 c 0,0 -0.24,0.21 -0.55,0.65 l -2.76,3.91 0,1.1 z"
         id="path4208"
         inkscape:connector-curvature="0"
         style="fill:#ffffff" />
    </g>
    <g
       style="font-style:normal;font-variant:normal;font-weight:bold;font-stretch:normal;font-size:10px;line-height:125%;font-family:'Museo Sans';-inkscape-font-specification:'Museo Sans, Bold';text-align:start;letter-spacing:0px;word-spacing:0px;writing-mode:lr-tb;text-anchor:start;fill:#ffffff;fill-opacity:1;stroke:none;stroke-width:1px;stroke-linecap:butt;stroke-linejoin:miter;stroke-opacity:1"
       id="text4196"
       transform="translate(28.125,-27.925017)">
      <path
         d="m 4.16,1048.3622 1.94,0 0.82,-1.5 c 0.25,-0.45 0.44,-0.89 0.44,-0.89 l 0.02,0 c 0,0 0.19,0.44 0.44,0.89 l 0.82,1.5 1.95,0 -2.18,-3.55 2.19,-3.6 -1.99,0 -0.79,1.47 c -0.25,0.46 -0.44,0.92 -0.44,0.92 l -0.02,0 c 0,0 -0.2,-0.47 -0.44,-0.92 l -0.78,-1.47 -1.99,0 2.18,3.6 -2.17,3.55 z"
         id="path4205"
         inkscape:connector-curvature="0"
         style="fill:#ffffff" />
    </g>
    <g
       style="font-style:normal;font-variant:normal;font-weight:bold;font-stretch:normal;font-size:10px;line-height:125%;font-family:'Museo Sans';-inkscape-font-specification:'Museo Sans, Bold';text-align:start;letter-spacing:0px;word-spacing:0px;writing-mode:lr-tb;text-anchor:start;fill:#ffffff;fill-opacity:1;stroke:none;stroke-width:1px;stroke-linecap:butt;stroke-linejoin:miter;stroke-opacity:1"
       id="text4200"
       transform="translate(1.2276565,-7.950026)">
      <path
         d="m 25.86,1051.3622 1.8,0 -2.43,-7.15 -1.84,0 -2.43,7.15 1.8,0 0.43,-1.5 2.23,0 0.44,1.5 z m -1.54,-5.52 c 0,0 0.16,0.78 0.29,1.23 l 0.4,1.39 -1.41,0 0.41,-1.39 c 0.13,-0.45 0.29,-1.23 0.29,-1.23 l 0.02,0 z"
         id="path4211"
         inkscape:connector-curvature="0"
         style="fill:#ffffff" />
      <path
         d="m 28.191094,1049.4622 c 0,1.73 0.98,1.95 1.9,1.95 0.28,0 0.52,-0.03 0.52,-0.03 l 0,-1.5 c 0,0 -0.1,0.01 -0.21,0.01 -0.39,0 -0.48,-0.17 -0.48,-0.66 l 0,-5.02 -1.73,0 0,5.25 z"
         id="path4213"
         inkscape:connector-curvature="0"
         style="fill:#ffffff" />
      <path
         d="m 31.704687,1049.4622 c 0,1.73 1.590001,1.95 2.410001,1.95 0.28,0 0.469999,-0.03 0.469999,-0.03 l 0,-1.5 c 0,0 -0.09,0.01 -0.23,0.01 -0.33,0 -0.919999,-0.08 -0.919999,-0.66 l 0,-1.58 1.079999,0 0,-1.35 -1.079999,0 0,-1.48 -1.680001,0 0,1.48 -0.71,0 0,1.35 0.66,0 0,1.81 z"
         id="path4215"
         inkscape:connector-curvature="0"
         style="fill:#ffffff" />
    </g>
  </g>
</svg>
