<?xml version="1.0" encoding="UTF-8" standalone="no"?>
<!-- Created with Inkscape (http://www.inkscape.org/) -->

<svg
   xmlns:dc="http://purl.org/dc/elements/1.1/"
   xmlns:cc="http://creativecommons.org/ns#"
   xmlns:rdf="http://www.w3.org/1999/02/22-rdf-syntax-ns#"
   xmlns:svg="http://www.w3.org/2000/svg"
   xmlns="http://www.w3.org/2000/svg"
   xmlns:sodipodi="http://sodipodi.sourceforge.net/DTD/sodipodi-0.dtd"
   xmlns:inkscape="http://www.inkscape.org/namespaces/inkscape"
   width="48"
   height="48"
   viewBox="0 0 48.000001 48"
   id="svg4148"
   version="1.1"
   inkscape:version="0.91 r13725"
   sodipodi:docname="preferences-system-privacy.svg">
  <title
     id="title4159">Boston Icons</title>
  <defs
     id="defs4150" />
  <sodipodi:namedview
     id="base"
     pagecolor="#0f0f0f"
     bordercolor="#666666"
     borderopacity="1.0"
     inkscape:pageopacity="0"
     inkscape:pageshadow="2"
     inkscape:zoom="15.839192"
     inkscape:cx="25.927508"
     inkscape:cy="10.987977"
     inkscape:document-units="px"
     inkscape:current-layer="layer1"
     showgrid="false"
     units="px"
     showguides="false"
     inkscape:guide-bbox="true"
     inkscape:window-width="1366"
     inkscape:window-height="704"
     inkscape:window-x="0"
     inkscape:window-y="27"
     inkscape:window-maximized="1">
    <inkscape:grid
       type="xygrid"
       id="grid4696" />
    <sodipodi:guide
       position="0,37"
       orientation="1,0"
       id="guide4698" />
    <sodipodi:guide
       position="7.0000001,48"
       orientation="0,1"
       id="guide4700" />
    <sodipodi:guide
       position="48.000001,37"
       orientation="1,0"
       id="guide4702" />
    <sodipodi:guide
       position="36.000001,0"
       orientation="0,1"
       id="guide4704" />
    <sodipodi:guide
       position="16,40"
       orientation="1,0"
       id="guide4706" />
    <sodipodi:guide
       position="32.000001,46"
       orientation="1,0"
       id="guide4708" />
    <sodipodi:guide
       position="24,40"
       orientation="1,0"
       id="guide4710" />
    <sodipodi:guide
       position="8.0000002,44"
       orientation="1,0"
       id="guide4712" />
    <sodipodi:guide
       position="40.000001,41"
       orientation="1,0"
       id="guide4714" />
    <sodipodi:guide
       position="2,40"
       orientation="0,1"
       id="guide4716" />
    <sodipodi:guide
       position="3.0000001,32"
       orientation="0,1"
       id="guide4718" />
    <sodipodi:guide
       position="7.0000001,24"
       orientation="0,1"
       id="guide4720" />
    <sodipodi:guide
       position="3.0000001,16"
       orientation="0,1"
       id="guide4722" />
    <sodipodi:guide
       position="8.0000002,8"
       orientation="0,1"
       id="guide4724" />
    <sodipodi:guide
       position="33.000001,33"
       orientation="-0.70710678,0.70710678"
       id="guide4726" />
    <sodipodi:guide
       position="18,30"
       orientation="0.70710678,0.70710678"
       id="guide4728" />
    <sodipodi:guide
       position="2,27"
       orientation="1,0"
       id="guide4158" />
    <sodipodi:guide
       position="7.0000001,46"
       orientation="0,1"
       id="guide4160" />
    <sodipodi:guide
       position="46.000001,36"
       orientation="1,0"
       id="guide4162" />
    <sodipodi:guide
       position="30.000001,2"
       orientation="0,1"
       id="guide4164" />
    <sodipodi:guide
       position="12,40"
       orientation="0,1"
       id="guide4179" />
    <sodipodi:guide
       position="26.000001,12"
       orientation="0.70710678,0.70710678"
       id="guide4242" />
    <sodipodi:guide
       position="20,10"
       orientation="-0.70710678,0.70710678"
       id="guide4244" />
  </sodipodi:namedview>
  <metadata
     id="metadata4153">
    <rdf:RDF>
      <cc:Work
         rdf:about="">
        <dc:format>image/svg+xml</dc:format>
        <dc:type
           rdf:resource="http://purl.org/dc/dcmitype/StillImage" />
        <dc:title>Boston Icons</dc:title>
        <dc:description>diazchris.deviantart.com</dc:description>
        <dc:creator>
          <cc:Agent>
            <dc:title>Chris D</dc:title>
          </cc:Agent>
        </dc:creator>
        <dc:publisher>
          <cc:Agent>
            <dc:title>Chris D</dc:title>
          </cc:Agent>
        </dc:publisher>
      </cc:Work>
    </rdf:RDF>
  </metadata>
  <g
     inkscape:label="Capa 1"
     inkscape:groupmode="layer"
     id="layer1"
     transform="translate(0,-1004.3622)">
    <path
       style="opacity:0.99957718;fill:#e0e4e7;fill-opacity:1;fill-rule:nonzero;stroke:#5f7a8d;stroke-width:1;stroke-linecap:square;stroke-linejoin:miter;stroke-miterlimit:4;stroke-dasharray:none;stroke-dashoffset:0;stroke-opacity:1"
       d="M 24 2 C 18.46 2 14 6.4599905 14 12 L 14 27.380859 A 12 12 0 0 0 12 34 A 12 12 0 0 0 24 46 A 12 12 0 0 0 36 34 A 12 12 0 0 0 34 27.378906 L 34 12 C 34 6.4599905 29.54 2 24 2 z M 24 4 C 28.432 4 32 7.5679905 32 12 L 32 25.072266 A 12 12 0 0 0 24 22 A 12 12 0 0 0 16 25.074219 L 16 12 C 16 7.5679905 19.568 4 24 4 z "
       transform="translate(0,1004.3622)"
       id="rect4166" />
    <path
       style="opacity:0.99957718;fill:#5f7a8d;fill-opacity:1;fill-rule:nonzero;stroke:none;stroke-width:1;stroke-linecap:square;stroke-linejoin:miter;stroke-miterlimit:4;stroke-dasharray:none;stroke-dashoffset:0;stroke-opacity:1"
       d="M 33.441406 37.240234 A 10 10 0 0 0 33.976562 34.5 L 31.974609 34.5 A 8 8 0 0 1 31.576172 36.494141 L 33.441406 37.240234 z "
       id="path4336"
       transform="translate(0,1004.3622)" />
    <path
       style="opacity:0.99957718;fill:#5f7a8d;fill-opacity:1;fill-rule:nonzero;stroke:none;stroke-width:1;stroke-linecap:square;stroke-linejoin:miter;stroke-miterlimit:4;stroke-dasharray:none;stroke-dashoffset:0;stroke-opacity:1"
       d="M 31.207031 37.421875 A 8 8 0 0 1 29.986328 39.279297 L 31.400391 40.693359 A 10 10 0 0 0 33.070312 38.166016 L 31.207031 37.421875 z "
       id="path4334"
       transform="translate(0,1004.3622)" />
    <path
       style="opacity:0.99957718;fill:#5f7a8d;fill-opacity:1;fill-rule:nonzero;stroke:none;stroke-width:1;stroke-linecap:square;stroke-linejoin:miter;stroke-miterlimit:4;stroke-dasharray:none;stroke-dashoffset:0;stroke-opacity:1"
       d="M 28.164062 43.0625 A 10 10 0 0 0 30.693359 41.400391 L 29.283203 39.990234 A 8 8 0 0 1 27.423828 41.212891 L 28.164062 43.0625 z "
       id="path4331"
       transform="translate(0,1004.3622)" />
    <path
       style="opacity:0.99957718;fill:#5f7a8d;fill-opacity:1;fill-rule:nonzero;stroke:none;stroke-width:1;stroke-linecap:square;stroke-linejoin:miter;stroke-miterlimit:4;stroke-dasharray:none;stroke-dashoffset:0;stroke-opacity:1"
       d="M 26.496094 41.591797 A 8 8 0 0 1 24.5 41.982422 L 24.5 43.974609 A 10 10 0 0 0 27.234375 43.435547 L 26.496094 41.591797 z "
       id="path4329"
       transform="translate(0,1004.3622)" />
    <path
       style="opacity:0.99957718;fill:#5f7a8d;fill-opacity:1;fill-rule:nonzero;stroke:none;stroke-width:1;stroke-linecap:square;stroke-linejoin:miter;stroke-miterlimit:4;stroke-dasharray:none;stroke-dashoffset:0;stroke-opacity:1"
       d="M 24.5 24.017578 L 24.5 26.025391 A 8 8 0 0 1 31.974609 33.5 L 33.974609 33.5 A 10 10 0 0 0 24.5 24.017578 z "
       id="path4222"
       transform="translate(0,1004.3622)" />
    <path
       style="opacity:0.99957718;fill:#5f7a8d;fill-opacity:1;fill-rule:nonzero;stroke:none;stroke-width:1;stroke-linecap:square;stroke-linejoin:miter;stroke-miterlimit:4;stroke-dasharray:none;stroke-dashoffset:0;stroke-opacity:1"
       d="M 20.761719 43.445312 A 10 10 0 0 0 23.5 43.982422 L 23.5 41.974609 A 8 8 0 0 1 21.509766 41.576172 L 20.761719 43.445312 z "
       id="path4326"
       transform="translate(0,1004.3622)" />
    <path
       style="opacity:0.99957718;fill:#5f7a8d;fill-opacity:1;fill-rule:nonzero;stroke:none;stroke-width:1;stroke-linecap:square;stroke-linejoin:miter;stroke-miterlimit:4;stroke-dasharray:none;stroke-dashoffset:0;stroke-opacity:1"
       d="M 20.578125 41.205078 A 8 8 0 0 1 18.722656 39.984375 L 17.304688 41.402344 A 10 10 0 0 0 19.832031 43.072266 L 20.578125 41.205078 z "
       id="path4324"
       transform="translate(0,1004.3622)" />
    <path
       style="opacity:0.99957718;fill:#5f7a8d;fill-opacity:1;fill-rule:nonzero;stroke:none;stroke-width:1;stroke-linecap:square;stroke-linejoin:miter;stroke-miterlimit:4;stroke-dasharray:none;stroke-dashoffset:0;stroke-opacity:1"
       d="M 14.935547 38.164062 A 10 10 0 0 0 16.597656 40.695312 L 18.013672 39.279297 A 8 8 0 0 1 16.792969 37.421875 L 14.935547 38.164062 z "
       id="path4321"
       transform="translate(0,1004.3622)" />
    <path
       style="opacity:0.99957718;fill:#5f7a8d;fill-opacity:1;fill-rule:nonzero;stroke:none;stroke-width:1;stroke-linecap:square;stroke-linejoin:miter;stroke-miterlimit:4;stroke-dasharray:none;stroke-dashoffset:0;stroke-opacity:1"
       d="M 16.416016 36.496094 A 8 8 0 0 1 16.025391 34.5 L 14.025391 34.5 A 10 10 0 0 0 14.564453 37.238281 L 16.416016 36.496094 z "
       id="path4319"
       transform="translate(0,1004.3622)" />
    <path
       style="opacity:0.99957718;fill:#5f7a8d;fill-opacity:1;fill-rule:nonzero;stroke:none;stroke-width:1;stroke-linecap:square;stroke-linejoin:miter;stroke-miterlimit:4;stroke-dasharray:none;stroke-dashoffset:0;stroke-opacity:1"
       d="M 16.421875 31.507812 L 14.558594 30.761719 A 10 10 0 0 0 14.023438 33.5 L 16.025391 33.5 A 8 8 0 0 1 16.421875 31.507812 z "
       id="path4316"
       transform="translate(0,1004.3622)" />
    <path
       style="opacity:0.99957718;fill:#5f7a8d;fill-opacity:1;fill-rule:nonzero;stroke:none;stroke-width:1;stroke-linecap:square;stroke-linejoin:miter;stroke-miterlimit:4;stroke-dasharray:none;stroke-dashoffset:0;stroke-opacity:1"
       d="M 16.599609 27.306641 A 10 10 0 0 0 14.929688 29.833984 L 16.792969 30.580078 A 8 8 0 0 1 18.013672 28.720703 L 16.599609 27.306641 z "
       id="path4260"
       transform="translate(0,1004.3622)" />
    <path
       style="opacity:0.99957718;fill:#5f7a8d;fill-opacity:1;fill-rule:nonzero;stroke:none;stroke-width:1;stroke-linecap:square;stroke-linejoin:miter;stroke-miterlimit:4;stroke-dasharray:none;stroke-dashoffset:0;stroke-opacity:1"
       d="M 21.501953 26.408203 A 8 8 0 0 1 23.5 26.017578 L 23.5 24.025391 A 10 10 0 0 0 20.765625 24.564453 L 21.501953 26.408203 z "
       id="path4311"
       transform="translate(0,1004.3622)" />
    <path
       style="opacity:0.99957718;fill:#5f7a8d;fill-opacity:1;fill-rule:nonzero;stroke:none;stroke-width:1;stroke-linecap:square;stroke-linejoin:miter;stroke-miterlimit:4;stroke-dasharray:none;stroke-dashoffset:0;stroke-opacity:1"
       d="M 19.835938 24.9375 A 10 10 0 0 0 17.306641 26.599609 L 18.716797 28.009766 A 8 8 0 0 1 20.576172 26.787109 L 19.835938 24.9375 z "
       id="path4309"
       transform="translate(0,1004.3622)" />
    <path
       style="opacity:0.99957718;fill:#8698a6;fill-opacity:1;fill-rule:nonzero;stroke:#5f7a8d;stroke-width:1;stroke-linecap:square;stroke-linejoin:miter;stroke-miterlimit:4;stroke-dasharray:none;stroke-dashoffset:0;stroke-opacity:1"
       d="M 28 30 L 24.722656 31.091797 A 3 3 0 0 0 24 31 A 3 3 0 0 0 21 34 A 3 3 0 0 0 24 37 A 3 3 0 0 0 27 34 A 3 3 0 0 0 26.908203 33.275391 L 28 30 z "
       transform="translate(0,1004.3622)"
       id="path4185" />
  </g>
</svg>
