<?xml version="1.0" encoding="UTF-8" standalone="no"?>
<!-- Created with Inkscape (http://www.inkscape.org/) -->

<svg
   xmlns:dc="http://purl.org/dc/elements/1.1/"
   xmlns:cc="http://creativecommons.org/ns#"
   xmlns:rdf="http://www.w3.org/1999/02/22-rdf-syntax-ns#"
   xmlns:svg="http://www.w3.org/2000/svg"
   xmlns="http://www.w3.org/2000/svg"
   xmlns:sodipodi="http://sodipodi.sourceforge.net/DTD/sodipodi-0.dtd"
   xmlns:inkscape="http://www.inkscape.org/namespaces/inkscape"
   width="48"
   height="48"
   viewBox="0 0 48.000001 48"
   id="svg4148"
   version="1.1"
   inkscape:version="0.91 r13725"
   sodipodi:docname="gnome-disks.svg">
  <title
     id="title4159">Boston Icons</title>
  <defs
     id="defs4150" />
  <sodipodi:namedview
     id="base"
     pagecolor="#0f0f0f"
     bordercolor="#666666"
     borderopacity="1.0"
     inkscape:pageopacity="0"
     inkscape:pageshadow="2"
     inkscape:zoom="14.479167"
     inkscape:cx="23.508857"
     inkscape:cy="25.198307"
     inkscape:document-units="px"
     inkscape:current-layer="layer1"
     showgrid="false"
     units="px"
     showguides="false"
     inkscape:guide-bbox="true"
     inkscape:window-width="1366"
     inkscape:window-height="704"
     inkscape:window-x="0"
     inkscape:window-y="27"
     inkscape:window-maximized="1">
    <inkscape:grid
       type="xygrid"
       id="grid4696" />
    <sodipodi:guide
       position="0,37"
       orientation="1,0"
       id="guide4698" />
    <sodipodi:guide
       position="7.0000001,48"
       orientation="0,1"
       id="guide4700" />
    <sodipodi:guide
       position="48.000001,37"
       orientation="1,0"
       id="guide4702" />
    <sodipodi:guide
       position="36.000001,0"
       orientation="0,1"
       id="guide4704" />
    <sodipodi:guide
       position="16,40"
       orientation="1,0"
       id="guide4706" />
    <sodipodi:guide
       position="32.000001,46"
       orientation="1,0"
       id="guide4708" />
    <sodipodi:guide
       position="24,40"
       orientation="1,0"
       id="guide4710" />
    <sodipodi:guide
       position="8.0000002,44"
       orientation="1,0"
       id="guide4712" />
    <sodipodi:guide
       position="40.000001,41"
       orientation="1,0"
       id="guide4714" />
    <sodipodi:guide
       position="2,40"
       orientation="0,1"
       id="guide4716" />
    <sodipodi:guide
       position="3.0000001,32"
       orientation="0,1"
       id="guide4718" />
    <sodipodi:guide
       position="7.0000001,24"
       orientation="0,1"
       id="guide4720" />
    <sodipodi:guide
       position="3.0000001,16"
       orientation="0,1"
       id="guide4722" />
    <sodipodi:guide
       position="8.0000002,8"
       orientation="0,1"
       id="guide4724" />
    <sodipodi:guide
       position="33.000001,33"
       orientation="-0.70710678,0.70710678"
       id="guide4726" />
    <sodipodi:guide
       position="18,30"
       orientation="0.70710678,0.70710678"
       id="guide4728" />
    <sodipodi:guide
       position="2,27"
       orientation="1,0"
       id="guide4158" />
    <sodipodi:guide
       position="7.0000001,46"
       orientation="0,1"
       id="guide4160" />
    <sodipodi:guide
       position="46.000001,36"
       orientation="1,0"
       id="guide4162" />
    <sodipodi:guide
       position="30.000001,2"
       orientation="0,1"
       id="guide4164" />
    <sodipodi:guide
       position="12,33"
       orientation="1,0"
       id="guide4175" />
    <sodipodi:guide
       position="36.000001,27"
       orientation="1,0"
       id="guide4177" />
    <sodipodi:guide
       position="12,40"
       orientation="0,1"
       id="guide4179" />
    <sodipodi:guide
       position="-28.303572,27.410714"
       orientation="1,0"
       id="guide4725" />
  </sodipodi:namedview>
  <metadata
     id="metadata4153">
    <rdf:RDF>
      <cc:Work
         rdf:about="">
        <dc:format>image/svg+xml</dc:format>
        <dc:type
           rdf:resource="http://purl.org/dc/dcmitype/StillImage" />
        <dc:title>Boston Icons</dc:title>
        <dc:description>diazchris.deviantart.com</dc:description>
        <dc:creator>
          <cc:Agent>
            <dc:title>Chris D</dc:title>
          </cc:Agent>
        </dc:creator>
        <dc:publisher>
          <cc:Agent>
            <dc:title>Chris D</dc:title>
          </cc:Agent>
        </dc:publisher>
      </cc:Work>
    </rdf:RDF>
  </metadata>
  <g
     inkscape:label="Capa 1"
     inkscape:groupmode="layer"
     id="layer1"
     transform="translate(0,-1004.3622)">
    <rect
       style="opacity:0.99957718;fill:#a9b0b9;fill-opacity:1;fill-rule:nonzero;stroke:#464d56;stroke-width:1;stroke-linecap:square;stroke-linejoin:round;stroke-miterlimit:4;stroke-dasharray:none;stroke-dashoffset:0;stroke-opacity:1"
       id="rect4165"
       width="32"
       height="44.000019"
       x="8"
       y="1006.3622"
       ry="0"
       rx="0" />
    <rect
       style="opacity:0.99957718;fill:#ffffff;fill-opacity:1;fill-rule:nonzero;stroke:none;stroke-width:0.5;stroke-linecap:square;stroke-linejoin:round;stroke-miterlimit:4;stroke-dasharray:none;stroke-dashoffset:0;stroke-opacity:1"
       id="rect4277"
       width="24"
       height="26.999983"
       x="12"
       y="1016.3622" />
    <circle
       style="opacity:0.99957718;fill:#464d56;fill-opacity:1;fill-rule:nonzero;stroke:none;stroke-width:1;stroke-linecap:square;stroke-linejoin:round;stroke-miterlimit:4;stroke-dasharray:none;stroke-dashoffset:0;stroke-opacity:1"
       id="path4214"
       cx="10.5"
       cy="1008.8622"
       r="0.5" />
    <circle
       style="opacity:0.99957718;fill:#464d56;fill-opacity:1;fill-rule:nonzero;stroke:none;stroke-width:1;stroke-linecap:square;stroke-linejoin:round;stroke-miterlimit:4;stroke-dasharray:none;stroke-dashoffset:0;stroke-opacity:1"
       id="path4216"
       cx="37.5"
       cy="1008.8622"
       r="0.5" />
    <circle
       style="opacity:0.99957718;fill:#464d56;fill-opacity:1;fill-rule:nonzero;stroke:none;stroke-width:1;stroke-linecap:square;stroke-linejoin:round;stroke-miterlimit:4;stroke-dasharray:none;stroke-dashoffset:0;stroke-opacity:1"
       id="path4218"
       cx="10.5"
       cy="1044.8622"
       r="0.5" />
    <circle
       style="opacity:0.99957718;fill:#464d56;fill-opacity:1;fill-rule:nonzero;stroke:none;stroke-width:1;stroke-linecap:square;stroke-linejoin:round;stroke-miterlimit:4;stroke-dasharray:none;stroke-dashoffset:0;stroke-opacity:1"
       id="path4220"
       cx="37.5"
       cy="1044.8622"
       r="0.5" />
    <path
       style="opacity:0.99957718;fill:#464d56;fill-opacity:1;fill-rule:nonzero;stroke:none;stroke-width:1;stroke-linecap:square;stroke-linejoin:round;stroke-miterlimit:4;stroke-dasharray:none;stroke-dashoffset:0;stroke-opacity:1"
       d="m 16,1047.3622 20,0 c 0,0 0,0.446 0,1 l 0,2 -1.000017,0 -17.999966,0 -1.000017,0 0,-2 c 0,-0.554 0,-1 0,-1 z"
       id="rect4222"
       inkscape:connector-curvature="0"
       sodipodi:nodetypes="ccscsscsc" />
    <rect
       style="opacity:0.99957718;fill:#464d56;fill-opacity:1;fill-rule:nonzero;stroke:none;stroke-width:1;stroke-linecap:square;stroke-linejoin:round;stroke-miterlimit:4;stroke-dasharray:none;stroke-dashoffset:0;stroke-opacity:1"
       id="rect4224"
       width="1"
       height="2"
       x="13"
       y="1040.3622" />
    <rect
       style="opacity:0.99957718;fill:#464d56;fill-opacity:1;fill-rule:nonzero;stroke:none;stroke-width:1;stroke-linecap:square;stroke-linejoin:round;stroke-miterlimit:4;stroke-dasharray:none;stroke-dashoffset:0;stroke-opacity:1"
       id="rect4226"
       width="2"
       height="2"
       x="15"
       y="1040.3622" />
    <rect
       style="opacity:0.99957718;fill:#464d56;fill-opacity:1;fill-rule:nonzero;stroke:none;stroke-width:1;stroke-linecap:square;stroke-linejoin:round;stroke-miterlimit:4;stroke-dasharray:none;stroke-dashoffset:0;stroke-opacity:1"
       id="rect4228"
       width="1"
       height="2"
       x="18"
       y="1040.3622" />
    <rect
       style="opacity:0.99957718;fill:#464d56;fill-opacity:1;fill-rule:nonzero;stroke:none;stroke-width:1;stroke-linecap:square;stroke-linejoin:round;stroke-miterlimit:4;stroke-dasharray:none;stroke-dashoffset:0;stroke-opacity:1"
       id="rect4230"
       width="1"
       height="2"
       x="20"
       y="1040.3622" />
    <g
       style="font-style:normal;font-variant:normal;font-weight:bold;font-stretch:normal;font-size:10px;line-height:125%;font-family:'Museo Sans';-inkscape-font-specification:'Museo Sans, Bold';text-align:start;letter-spacing:0px;word-spacing:0px;writing-mode:lr-tb;text-anchor:start;fill:#464d56;fill-opacity:1;stroke:none;stroke-width:1px;stroke-linecap:butt;stroke-linejoin:miter;stroke-opacity:1"
       id="text4244"
       transform="matrix(0.43567222,0,0,0.43567222,7.636875,570.31572)">
      <path
         d="m 12.31,1032.4622 c 0,0 0.93,1.02 2.61,1.02 1.61,0 2.52,-1.03 2.52,-2.22 0,-2.26 -3.22,-2.1 -3.22,-3 0,-0.4 0.4,-0.56 0.76,-0.56 0.86,0 1.58,0.63 1.58,0.63 l 0.74,-1.43 c 0,0 -0.76,-0.81 -2.3,-0.81 -1.42,0 -2.53,0.87 -2.53,2.19 0,2.2 3.22,2.17 3.22,3.02 0,0.43 -0.39,0.57 -0.75,0.57 -0.9,0 -1.71,-0.74 -1.71,-0.74 l -0.92,1.33 z"
         id="path4249"
         inkscape:connector-curvature="0"
         style="fill:#464d56" />
      <path
         d="m 18.110781,1032.4622 c 0,0 0.93,1.02 2.61,1.02 1.61,0 2.52,-1.03 2.52,-2.22 0,-2.26 -3.22,-2.1 -3.22,-3 0,-0.4 0.4,-0.56 0.76,-0.56 0.86,0 1.58,0.63 1.58,0.63 l 0.74,-1.43 c 0,0 -0.76,-0.81 -2.3,-0.81 -1.42,0 -2.53,0.87 -2.53,2.19 0,2.2 3.22,2.17 3.22,3.02 0,0.43 -0.39,0.57 -0.75,0.57 -0.9,0 -1.71,-0.74 -1.71,-0.74 l -0.92,1.33 z"
         id="path4251"
         inkscape:connector-curvature="0"
         style="fill:#464d56" />
      <path
         d="m 24.441562,1033.3622 2.54,0 c 2.250001,0 3.69,-1.34 3.69,-3.59 0,-2.25 -1.439999,-3.56 -3.69,-3.56 l -2.54,0 0,7.15 z m 1.75,-1.5 0,-4.15 0.72,0 c 1.180001,0 1.95,0.7 1.95,2.06 0,1.37 -0.74,2.09 -1.95,2.09 l -0.72,0 z"
         id="path4253"
         inkscape:connector-curvature="0"
         style="fill:#464d56" />
    </g>
    <g
       style="font-style:normal;font-variant:normal;font-weight:300;font-stretch:normal;font-size:10px;line-height:125%;font-family:'Museo Sans';-inkscape-font-specification:'Museo Sans, Light';text-align:start;letter-spacing:0px;word-spacing:0px;writing-mode:lr-tb;text-anchor:start;fill:#464d56;fill-opacity:1;stroke:none;stroke-width:1px;stroke-linecap:butt;stroke-linejoin:miter;stroke-opacity:1"
       id="text4255"
       transform="matrix(0.26471169,0,0,0.26471169,9.399921,750.2168)">
      <path
         d="m 13.64,1031.3622 4.39,0 0,-0.62 -3.67,0 c 0.01,-1.87 3.56,-2.2 3.56,-4.56 0,-1.1 -0.8,-1.97 -2.14,-1.97 -1.49,0 -2.13,1.27 -2.13,1.27 l 0.52,0.35 c 0,0 0.54,-0.96 1.57,-0.96 0.88,0 1.46,0.58 1.46,1.35 0,1.9 -3.6,2.22 -3.6,4.69 0,0.14 0.01,0.29 0.04,0.45 z"
         style="fill:#464d56"
         id="path4260"
         inkscape:connector-curvature="0" />
      <path
         d="m 19.184531,1030.4822 c 0,0 0.66,1 2.06,1 1.37,0 2.44,-1.01 2.44,-2.31 0,-1.27 -1.01,-2.29 -2.42,-2.29 -0.63,0 -1.07,0.27 -1.07,0.27 l -0.02,0 c 0,0 0.04,-0.15 0.07,-0.4 l 0.2,-1.8 2.8,0 0,-0.62 -3.4,0 -0.38,3.41 0.44,0.16 c 0,0 0.53,-0.38 1.28,-0.38 1,0 1.78,0.69 1.78,1.65 0,0.96 -0.78,1.65 -1.75,1.65 -1.07,0 -1.59,-0.82 -1.59,-0.82 l -0.44,0.48 z"
         style="fill:#464d56"
         id="path4262"
         inkscape:connector-curvature="0" />
      <path
         d="m 27.360469,1031.4822 c 1.83,0 2.42,-1.6 2.42,-3.64 0,-2.02 -0.59,-3.63 -2.42,-3.63 -1.83,0 -2.43,1.61 -2.43,3.63 0,2.04 0.6,3.64 2.43,3.64 z m 0,-0.65 c -1.34,0 -1.71,-1.31 -1.71,-2.99 0,-1.67 0.37,-2.98 1.71,-2.98 1.33,0 1.7,1.31 1.7,2.98 0,1.68 -0.37,2.99 -1.7,2.99 z"
         style="fill:#464d56"
         id="path4264"
         inkscape:connector-curvature="0" />
      <path
         d="m 31.030469,1027.8422 c 0,2.09 1.52,3.64 3.44,3.64 1.48,0 2.29,-0.95 2.29,-0.95 l 0.02,0 c 0,0 -0.01,0.15 -0.01,0.3 l 0,0.53 0.64,0 0,-3.36 -1.86,0 0,0.62 1.2,0 0,1.19 c 0,0 -0.84,1.03 -2.21,1.03 -1.6,0 -2.79,-1.28 -2.79,-3.01 0,-1.67 1.15,-2.98 2.85,-2.98 1.28,0 2.1,0.7 2.1,0.7 l 0.37,-0.52 c 0,0 -0.87,-0.82 -2.5,-0.82 -2.02,0 -3.54,1.6 -3.54,3.63 z"
         style="fill:#464d56"
         id="path4266"
         inkscape:connector-curvature="0" />
      <path
         d="m 39.078594,1031.3622 2.48,0 c 1.18,0 2.11,-0.72 2.11,-1.97 0,-0.85 -0.46,-1.54 -1.18,-1.74 l 0,-0.02 c 0.54,-0.27 0.89,-0.8 0.89,-1.53 0,-1.1 -0.79,-1.77 -1.9,-1.77 l -2.4,0 0,7.03 z m 0.69,-3.98 0,-2.43 1.7,0 c 0.75,0 1.2,0.48 1.2,1.2 0,0.73 -0.48,1.23 -1.19,1.23 l -1.71,0 z m 0,3.36 0,-2.76 1.79,0 c 0.82,0 1.39,0.55 1.39,1.39 0,0.84 -0.53,1.37 -1.38,1.37 l -1.8,0 z"
         style="fill:#464d56"
         id="path4268"
         inkscape:connector-curvature="0" />
    </g>
    <path
       style="fill:none;fill-rule:evenodd;stroke:#464d56;stroke-width:0.5;stroke-linecap:butt;stroke-linejoin:miter;stroke-miterlimit:4;stroke-dasharray:none;stroke-opacity:1"
       d="m 13,1025.5622 22,0"
       id="path4270"
       inkscape:connector-curvature="0" />
    <rect
       style="opacity:0.99957718;fill:#fbc342;fill-opacity:1;fill-rule:nonzero;stroke:none;stroke-width:0.5;stroke-linecap:square;stroke-linejoin:round;stroke-miterlimit:4;stroke-dasharray:none;stroke-dashoffset:0;stroke-opacity:1"
       id="rect4273"
       width="4"
       height="1"
       x="17"
       y="1048.3622"
       ry="1.7382812e-05" />
    <rect
       style="opacity:0.99957718;fill:#fbc342;fill-opacity:1;fill-rule:nonzero;stroke:none;stroke-width:0.5;stroke-linecap:square;stroke-linejoin:round;stroke-miterlimit:4;stroke-dasharray:none;stroke-dashoffset:0;stroke-opacity:1"
       id="rect4275"
       width="12"
       height="1"
       x="23"
       y="1048.3622"
       ry="1.7382799e-05" />
    <rect
       style="opacity:0.99957718;fill:#6caace;fill-opacity:1;fill-rule:nonzero;stroke:none;stroke-width:0.5;stroke-linecap:square;stroke-linejoin:round;stroke-miterlimit:4;stroke-dasharray:none;stroke-dashoffset:0;stroke-opacity:1"
       id="rect4279"
       width="24"
       height="5.9999828"
       x="12"
       y="1010.3622" />
  </g>
</svg>
