<?xml version="1.0" encoding="UTF-8" standalone="no"?>
<!-- Created with Inkscape (http://www.inkscape.org/) -->

<svg
   xmlns:dc="http://purl.org/dc/elements/1.1/"
   xmlns:cc="http://creativecommons.org/ns#"
   xmlns:rdf="http://www.w3.org/1999/02/22-rdf-syntax-ns#"
   xmlns:svg="http://www.w3.org/2000/svg"
   xmlns="http://www.w3.org/2000/svg"
   xmlns:sodipodi="http://sodipodi.sourceforge.net/DTD/sodipodi-0.dtd"
   xmlns:inkscape="http://www.inkscape.org/namespaces/inkscape"
   width="48"
   height="48"
   viewBox="0 0 48.000001 48"
   id="svg4148"
   version="1.1"
   inkscape:version="0.91 r13725"
   sodipodi:docname="input-mouse.svg">
  <title
     id="title4159">Boston Icons</title>
  <defs
     id="defs4150" />
  <sodipodi:namedview
     id="base"
     pagecolor="#0f0f0f"
     bordercolor="#666666"
     borderopacity="1.0"
     inkscape:pageopacity="0"
     inkscape:pageshadow="2"
     inkscape:zoom="11.2"
     inkscape:cx="26.625639"
     inkscape:cy="16.706299"
     inkscape:document-units="px"
     inkscape:current-layer="layer1"
     showgrid="false"
     units="px"
     showguides="false"
     inkscape:guide-bbox="true"
     inkscape:window-width="1366"
     inkscape:window-height="704"
     inkscape:window-x="0"
     inkscape:window-y="27"
     inkscape:window-maximized="1">
    <inkscape:grid
       type="xygrid"
       id="grid4696" />
    <sodipodi:guide
       position="0,37"
       orientation="1,0"
       id="guide4698" />
    <sodipodi:guide
       position="7.0000001,48"
       orientation="0,1"
       id="guide4700" />
    <sodipodi:guide
       position="48.000001,37"
       orientation="1,0"
       id="guide4702" />
    <sodipodi:guide
       position="36.000001,0"
       orientation="0,1"
       id="guide4704" />
    <sodipodi:guide
       position="16,40"
       orientation="1,0"
       id="guide4706" />
    <sodipodi:guide
       position="32.000001,46"
       orientation="1,0"
       id="guide4708" />
    <sodipodi:guide
       position="24,40"
       orientation="1,0"
       id="guide4710" />
    <sodipodi:guide
       position="8.0000002,44"
       orientation="1,0"
       id="guide4712" />
    <sodipodi:guide
       position="40.000001,41"
       orientation="1,0"
       id="guide4714" />
    <sodipodi:guide
       position="2,40"
       orientation="0,1"
       id="guide4716" />
    <sodipodi:guide
       position="3.0000001,32"
       orientation="0,1"
       id="guide4718" />
    <sodipodi:guide
       position="7.0000001,24"
       orientation="0,1"
       id="guide4720" />
    <sodipodi:guide
       position="3.0000001,16"
       orientation="0,1"
       id="guide4722" />
    <sodipodi:guide
       position="8.0000002,8"
       orientation="0,1"
       id="guide4724" />
    <sodipodi:guide
       position="33.000001,33"
       orientation="-0.70710678,0.70710678"
       id="guide4726" />
    <sodipodi:guide
       position="18,30"
       orientation="0.70710678,0.70710678"
       id="guide4728" />
    <sodipodi:guide
       position="2,27"
       orientation="1,0"
       id="guide4158" />
    <sodipodi:guide
       position="7.0000001,46"
       orientation="0,1"
       id="guide4160" />
    <sodipodi:guide
       position="46.000001,36"
       orientation="1,0"
       id="guide4162" />
    <sodipodi:guide
       position="30.000001,2"
       orientation="0,1"
       id="guide4164" />
    <sodipodi:guide
       position="12,40"
       orientation="0,1"
       id="guide4179" />
  </sodipodi:namedview>
  <metadata
     id="metadata4153">
    <rdf:RDF>
      <cc:Work
         rdf:about="">
        <dc:format>image/svg+xml</dc:format>
        <dc:type
           rdf:resource="http://purl.org/dc/dcmitype/StillImage" />
        <dc:title>Boston Icons</dc:title>
        <dc:description>diazchris.deviantart.com</dc:description>
        <dc:creator>
          <cc:Agent>
            <dc:title>Chris D</dc:title>
          </cc:Agent>
        </dc:creator>
        <dc:publisher>
          <cc:Agent>
            <dc:title>Chris D</dc:title>
          </cc:Agent>
        </dc:publisher>
      </cc:Work>
    </rdf:RDF>
  </metadata>
  <g
     inkscape:label="Capa 1"
     inkscape:groupmode="layer"
     id="layer1"
     transform="translate(0,-1004.3622)">
    <rect
       style="opacity:0.99957718;fill:#b6c1c9;fill-opacity:1;fill-rule:nonzero;stroke:none;stroke-width:1;stroke-linecap:butt;stroke-linejoin:miter;stroke-miterlimit:4;stroke-dasharray:none;stroke-dashoffset:0;stroke-opacity:1"
       id="rect4223"
       width="20"
       height="30"
       x="26"
       y="1020.3622"
       ry="6.0000172" />
    <rect
       style="opacity:1;fill:#ffffff;fill-opacity:1;fill-rule:nonzero;stroke:#b6c1c9;stroke-width:1;stroke-linecap:square;stroke-linejoin:miter;stroke-miterlimit:4;stroke-dasharray:none;stroke-dashoffset:0;stroke-opacity:1"
       id="rect4189"
       width="30"
       height="22.000017"
       x="1.9999996"
       y="1006.3622" />
    <path
       style="opacity:0.99957718;fill:#c8e6fc;fill-opacity:1;fill-rule:nonzero;stroke:none;stroke-width:1;stroke-linecap:butt;stroke-linejoin:miter;stroke-miterlimit:4;stroke-dasharray:none;stroke-dashoffset:0;stroke-opacity:1"
       d="M 17 4 A 9 9 0 0 0 8 13 A 9 9 0 0 0 17 22 A 9 9 0 0 0 26 13 A 9 9 0 0 0 17 4 z M 17 6 A 6.9999995 7 0 0 1 24 13 A 6.9999995 7 0 0 1 17 20 A 6.9999995 7 0 0 1 10 13 A 6.9999995 7 0 0 1 17 6 z "
       transform="translate(0,1004.3622)"
       id="path4164" />
    <path
       style="opacity:0.99957718;fill:#99cef3;fill-opacity:1;fill-rule:nonzero;stroke:none;stroke-width:1;stroke-linecap:butt;stroke-linejoin:miter;stroke-miterlimit:4;stroke-dasharray:none;stroke-dashoffset:0;stroke-opacity:1"
       d="M 17 8 A 5 5 0 0 0 12 13 A 5 5 0 0 0 17 18 A 5 5 0 0 0 22 13 A 5 5 0 0 0 17 8 z M 17 10 A 3 3 0 0 1 20 13 A 3 3 0 0 1 17 16 A 3 3 0 0 1 14 13 A 3 3 0 0 1 17 10 z "
       transform="translate(0,1004.3622)"
       id="path4172" />
    <ellipse
       style="opacity:0.99957718;fill:#6caace;fill-opacity:1;fill-rule:nonzero;stroke:none;stroke-width:1;stroke-linecap:butt;stroke-linejoin:miter;stroke-miterlimit:4;stroke-dasharray:none;stroke-dashoffset:0;stroke-opacity:1"
       id="path4178"
       cx="17"
       cy="1017.3622"
       rx="1.0000001"
       ry="1" />
    <path
       style="opacity:0.99957718;fill:#ffffff;fill-opacity:1;fill-rule:nonzero;stroke:none;stroke-width:1;stroke-linecap:butt;stroke-linejoin:miter;stroke-miterlimit:4;stroke-dasharray:none;stroke-dashoffset:0;stroke-opacity:1"
       d="M 32 16 C 28.676 16 26 18.67599 26 22 L 26 25 L 35 25 L 35 16 L 32 16 z M 37 16 L 37 25 L 46 25 L 46 22 C 46 18.67599 43.324 16 40 16 L 37 16 z M 26 26 L 26 40 C 26 43.32401 28.676 46 32 46 L 40 46 C 43.324 46 46 43.32401 46 40 L 46 26 L 26 26 z "
       transform="translate(0,1004.3622)"
       id="rect4199" />
    <rect
       style="opacity:0.99957718;fill:none;fill-opacity:1;fill-rule:nonzero;stroke:#b6c1c9;stroke-width:1;stroke-linecap:butt;stroke-linejoin:miter;stroke-miterlimit:4;stroke-dasharray:none;stroke-dashoffset:0;stroke-opacity:1"
       id="rect4221"
       width="20"
       height="30"
       x="26"
       y="1020.3622"
       rx="6"
       ry="6.00002" />
  </g>
</svg>
