<?xml version="1.0" encoding="UTF-8" standalone="no"?>
<!-- Created with Inkscape (http://www.inkscape.org/) -->

<svg
   xmlns:dc="http://purl.org/dc/elements/1.1/"
   xmlns:cc="http://creativecommons.org/ns#"
   xmlns:rdf="http://www.w3.org/1999/02/22-rdf-syntax-ns#"
   xmlns:svg="http://www.w3.org/2000/svg"
   xmlns="http://www.w3.org/2000/svg"
   xmlns:sodipodi="http://sodipodi.sourceforge.net/DTD/sodipodi-0.dtd"
   xmlns:inkscape="http://www.inkscape.org/namespaces/inkscape"
   width="16"
   height="16"
   id="svg4159"
   version="1.1"
   inkscape:version="0.91 r13725"
   viewBox="0 0 16 16"
   sodipodi:docname="evince-symbolic.svg">
  <defs
     id="defs4161">
    <inkscape:perspective
       sodipodi:type="inkscape:persp3d"
       inkscape:vp_x="0 : 8 : 1"
       inkscape:vp_y="0 : 1000 : 0"
       inkscape:vp_z="16 : 8 : 1"
       inkscape:persp3d-origin="8 : 5.3333333 : 1"
       id="perspective4709" />
  </defs>
  <sodipodi:namedview
     id="base"
     pagecolor="#222222"
     bordercolor="#00fff6"
     borderopacity="1"
     inkscape:pageopacity="0"
     inkscape:pageshadow="2"
     inkscape:zoom="22.197802"
     inkscape:cx="7.0559829"
     inkscape:cy="8.0225914"
     inkscape:current-layer="layer1"
     showgrid="false"
     inkscape:grid-bbox="true"
     inkscape:document-units="px"
     inkscape:window-width="1366"
     inkscape:window-height="704"
     inkscape:window-x="0"
     inkscape:window-y="27"
     inkscape:window-maximized="1"
     showguides="false"
     inkscape:guide-bbox="true">
    <inkscape:grid
       type="xygrid"
       id="grid4707" />
  </sodipodi:namedview>
  <metadata
     id="metadata4164">
    <rdf:RDF>
      <cc:Work
         rdf:about="">
        <dc:format>image/svg+xml</dc:format>
        <dc:type
           rdf:resource="http://purl.org/dc/dcmitype/StillImage" />
        <dc:title />
        <cc:license
           rdf:resource="http://creativecommons.org/licenses/by-nc-nd/3.0/" />
        <dc:creator>
          <cc:Agent>
            <dc:title>Chris D</dc:title>
          </cc:Agent>
        </dc:creator>
        <dc:description>diazchris.deviantart.com</dc:description>
      </cc:Work>
      <cc:License
         rdf:about="http://creativecommons.org/licenses/by-nc-nd/3.0/">
        <cc:permits
           rdf:resource="http://creativecommons.org/ns#Reproduction" />
        <cc:permits
           rdf:resource="http://creativecommons.org/ns#Distribution" />
        <cc:requires
           rdf:resource="http://creativecommons.org/ns#Notice" />
        <cc:requires
           rdf:resource="http://creativecommons.org/ns#Attribution" />
        <cc:prohibits
           rdf:resource="http://creativecommons.org/ns#CommercialUse" />
      </cc:License>
    </rdf:RDF>
  </metadata>
  <g
     id="layer1"
     inkscape:label="Layer 1"
     inkscape:groupmode="layer">
    <path
       style="opacity:1;fill:#bebebe;fill-opacity:1;fill-rule:nonzero;stroke:none;stroke-width:0.5;stroke-linecap:square;stroke-linejoin:miter;stroke-miterlimit:4;stroke-dasharray:none;stroke-dashoffset:0;stroke-opacity:1"
       d="M 0 0 L 0 16 L 2 16 L 16 16 L 16 14 L 16 0 L 14 0 L 2 0 L 0 0 z M 2 2 L 14 2 L 14 7.6738281 L 13.75 7.9140625 C 12.681826 8.9428987 11.088848 9.8558884 9.6835938 10.242188 C 8.4061893 10.593332 7.2666799 10.572464 6.1757812 10.177734 L 5.9472656 10.095703 L 6.1640625 9.9648438 C 7.8527416 8.9494327 8.9331705 7.9124739 9.3046875 6.9511719 C 9.4081335 6.6834987 9.4410301 6.5112903 9.4414062 6.2226562 C 9.4418211 5.889786 9.4026362 5.7267322 9.2480469 5.4003906 C 9.021062 4.9212199 8.738657 4.6265691 8.3007812 4.4121094 C 7.9973926 4.2635177 7.8079702 4.2123045 7.46875 4.1835938 C 6.8774634 4.1335492 6.2212724 4.2696869 5.5742188 4.5800781 C 4.8930512 4.9068317 4.3822076 5.3432786 3.9902344 5.9296875 C 3.6509802 6.4372271 3.5284884 6.8266187 3.5078125 7.4628906 C 3.4890941 8.0389098 3.5721395 8.4703402 3.7988281 8.9882812 C 3.9907171 9.4267092 4.3791479 9.9231137 4.7109375 10.152344 C 4.7811107 10.200825 4.8378906 10.247159 4.8378906 10.255859 C 4.8378906 10.28315 4.3301645 10.606876 4.015625 10.779297 C 3.8506092 10.869755 3.4618279 11.067608 3.1523438 11.21875 C 2.8428602 11.369893 2.4421628 11.570606 2.2617188 11.666016 C 2.05592 11.77483 1.9640089 11.834572 2.0136719 11.826172 C 2.273327 11.782737 4.335876 10.938291 4.9726562 10.615234 L 5.1757812 10.513672 L 5.4746094 10.662109 C 6.4833722 11.164848 7.5094773 11.401897 8.6894531 11.404297 C 9.6305597 11.406137 10.465983 11.273295 11.449219 10.96875 C 12.284025 10.710181 13.370117 10.220158 13.896484 9.8632812 L 14 9.7929688 L 14 14 L 2 14 L 2 2 z M 7.1230469 4.7832031 C 7.6750351 4.786648 8.088775 4.9649146 8.4082031 5.3339844 C 8.7464215 5.7247654 8.7961427 6.3020376 8.5410156 6.8984375 C 8.3347149 7.3806982 8.0397129 7.785538 7.5117188 8.3144531 C 7.0249586 8.8020621 6.5280968 9.1985156 5.9550781 9.5566406 C 5.8147349 9.6443536 5.6236699 9.7553144 5.5292969 9.8027344 L 5.3574219 9.8886719 L 5.1289062 9.6875 C 4.1625346 8.84411 3.8755645 7.7128393 4.3496094 6.6132812 C 4.8055255 5.5557758 5.9857701 4.776104 7.1230469 4.7832031 z "
       id="rect4136" />
  </g>
</svg>
