<?xml version="1.0" encoding="UTF-8" standalone="no"?>
<!-- Created with Inkscape (http://www.inkscape.org/) -->

<svg
   xmlns:dc="http://purl.org/dc/elements/1.1/"
   xmlns:cc="http://creativecommons.org/ns#"
   xmlns:rdf="http://www.w3.org/1999/02/22-rdf-syntax-ns#"
   xmlns:svg="http://www.w3.org/2000/svg"
   xmlns="http://www.w3.org/2000/svg"
   xmlns:sodipodi="http://sodipodi.sourceforge.net/DTD/sodipodi-0.dtd"
   xmlns:inkscape="http://www.inkscape.org/namespaces/inkscape"
   width="16"
   height="16"
   id="svg4159"
   version="1.1"
   inkscape:version="0.91 r13725"
   viewBox="0 0 16 16"
   sodipodi:docname="gnome-sound-recorder-symbolic.svg">
  <defs
     id="defs4161">
    <inkscape:perspective
       sodipodi:type="inkscape:persp3d"
       inkscape:vp_x="0 : 8 : 1"
       inkscape:vp_y="0 : 1000 : 0"
       inkscape:vp_z="16 : 8 : 1"
       inkscape:persp3d-origin="8 : 5.3333333 : 1"
       id="perspective4709" />
    <linearGradient
       x1="0"
       y1="0"
       x2="1"
       y2="0"
       gradientUnits="userSpaceOnUse"
       gradientTransform="matrix(0,150.61848,150.61848,0,251.27441,183.7959)"
       spreadMethod="pad"
       id="linearGradient5199">
      <stop
         style="stop-opacity:1;stop-color:#a81e22"
         offset="0"
         id="stop5201" />
      <stop
         style="stop-opacity:1;stop-color:#d02026"
         offset="0.395203"
         id="stop5203" />
      <stop
         style="stop-opacity:1;stop-color:#e51e26"
         offset="1"
         id="stop5205" />
    </linearGradient>
  </defs>
  <sodipodi:namedview
     id="base"
     pagecolor="#222222"
     bordercolor="#00fff6"
     borderopacity="1"
     inkscape:pageopacity="0"
     inkscape:pageshadow="2"
     inkscape:zoom="44.395604"
     inkscape:cx="3.5463513"
     inkscape:cy="10.796552"
     inkscape:current-layer="layer1"
     showgrid="false"
     inkscape:grid-bbox="true"
     inkscape:document-units="px"
     inkscape:window-width="1366"
     inkscape:window-height="704"
     inkscape:window-x="0"
     inkscape:window-y="27"
     inkscape:window-maximized="1"
     showguides="false"
     inkscape:guide-bbox="true">
    <inkscape:grid
       type="xygrid"
       id="grid4707" />
  </sodipodi:namedview>
  <metadata
     id="metadata4164">
    <rdf:RDF>
      <cc:Work
         rdf:about="">
        <dc:format>image/svg+xml</dc:format>
        <dc:type
           rdf:resource="http://purl.org/dc/dcmitype/StillImage" />
        <dc:title />
        <cc:license
           rdf:resource="http://creativecommons.org/licenses/by-nc-nd/3.0/" />
        <dc:creator>
          <cc:Agent>
            <dc:title>Chris D</dc:title>
          </cc:Agent>
        </dc:creator>
        <dc:description>diazchris.deviantart.com</dc:description>
      </cc:Work>
      <cc:License
         rdf:about="http://creativecommons.org/licenses/by-nc-nd/3.0/">
        <cc:permits
           rdf:resource="http://creativecommons.org/ns#Reproduction" />
        <cc:permits
           rdf:resource="http://creativecommons.org/ns#Distribution" />
        <cc:requires
           rdf:resource="http://creativecommons.org/ns#Notice" />
        <cc:requires
           rdf:resource="http://creativecommons.org/ns#Attribution" />
        <cc:prohibits
           rdf:resource="http://creativecommons.org/ns#CommercialUse" />
      </cc:License>
    </rdf:RDF>
  </metadata>
  <g
     id="layer1"
     inkscape:label="Layer 1"
     inkscape:groupmode="layer">
    <path
       style="color:#000000;font-style:normal;font-variant:normal;font-weight:normal;font-stretch:normal;font-size:medium;line-height:normal;font-family:sans-serif;text-indent:0;text-align:start;text-decoration:none;text-decoration-line:none;text-decoration-style:solid;text-decoration-color:#000000;letter-spacing:normal;word-spacing:normal;text-transform:none;direction:ltr;block-progression:tb;writing-mode:lr-tb;baseline-shift:baseline;text-anchor:start;white-space:normal;clip-rule:nonzero;display:inline;overflow:visible;visibility:visible;opacity:1;isolation:auto;mix-blend-mode:normal;color-interpolation:sRGB;color-interpolation-filters:linearRGB;solid-color:#000000;solid-opacity:1;fill:#bebebe;fill-opacity:1;fill-rule:evenodd;stroke:none;stroke-width:1px;stroke-linecap:butt;stroke-linejoin:miter;stroke-miterlimit:4;stroke-dasharray:none;stroke-dashoffset:0;stroke-opacity:1;color-rendering:auto;image-rendering:auto;shape-rendering:auto;text-rendering:auto;enable-background:accumulate"
       d="M 5.5761719 0.5 L 5.5058594 0.91796875 L 4.5761719 6.5 L 3.4238281 6.5 L 3.5058594 7.0703125 L 4.5664062 14.5 L 5.5 14.5 L 5.5 15.5 L 10.5 15.5 L 10.5 14.5 L 11.433594 14.5 L 12.576172 6.5 L 11.423828 6.5 L 10.423828 0.5 L 5.5761719 0.5 z M 6.4238281 1.5 L 9.5761719 1.5 L 10.408203 6.5 L 5.5917969 6.5 L 6.4238281 1.5 z M 4.5761719 7.5 L 11.423828 7.5 L 10.566406 13.5 L 5.4335938 13.5 L 4.5761719 7.5 z "
       id="path4140" />
    <path
       style="opacity:1;fill:#bebebe;fill-opacity:1;fill-rule:nonzero;stroke:none;stroke-width:0.1;stroke-linecap:square;stroke-linejoin:miter;stroke-miterlimit:4;stroke-dasharray:none;stroke-dashoffset:0;stroke-opacity:1"
       d="M 13 11 A 2 2 0 0 0 11 13 A 2 2 0 0 0 13 15 A 2 2 0 0 0 15 13 A 2 2 0 0 0 13 11 z M 13 12 A 1 1 0 0 1 14 13 A 1 1 0 0 1 13 14 A 1 1 0 0 1 12 13 A 1 1 0 0 1 13 12 z "
       id="path4150" />
    <rect
       style="opacity:1;fill:#bebebe;fill-opacity:1;fill-rule:nonzero;stroke:none;stroke-width:0.1;stroke-linecap:square;stroke-linejoin:miter;stroke-miterlimit:4;stroke-dasharray:none;stroke-dashoffset:0;stroke-opacity:1"
       id="rect4162"
       width="4"
       height="2"
       x="6"
       y="7" />
    <path
       style="opacity:1;fill:#bebebe;fill-opacity:1;fill-rule:nonzero;stroke:none;stroke-width:0.5;stroke-linecap:square;stroke-linejoin:round;stroke-miterlimit:4;stroke-dasharray:none;stroke-dashoffset:4;stroke-opacity:1"
       d="M 7 1 L 7 2 L 8 2 L 8 1 L 7 1 z M 8 2 L 8 3 L 9 3 L 9 2 L 8 2 z M 9 2 L 10 2 L 10 1 L 9 1 L 9 2 z M 9 3 L 9 4 L 10 4 L 10 3 L 9 3 z M 10 4 L 10 5 L 11 5 L 11 4 L 10 4 z M 10 5 L 9 5 L 9 6 L 10 6 L 10 5 z M 10 6 L 10 7 L 11 7 L 11 6 L 10 6 z M 9 6 L 8 6 L 8 7 L 9 7 L 9 6 z M 8 6 L 8 5 L 7 5 L 7 6 L 8 6 z M 7 6 L 6 6 L 6 7 L 7 7 L 7 6 z M 6 6 L 6 5 L 5 5 L 5 6 L 6 6 z M 6 5 L 7 5 L 7 4 L 6 4 L 6 5 z M 7 4 L 8 4 L 8 3 L 7 3 L 7 4 z M 7 3 L 7 2 L 6 2 L 6 3 L 7 3 z M 8 4 L 8 5 L 9 5 L 9 4 L 8 4 z "
       id="rect4142" />
  </g>
</svg>
