<?xml version="1.0" encoding="UTF-8" standalone="no"?>
<!-- Created with Inkscape (http://www.inkscape.org/) -->

<svg
   xmlns:dc="http://purl.org/dc/elements/1.1/"
   xmlns:cc="http://creativecommons.org/ns#"
   xmlns:rdf="http://www.w3.org/1999/02/22-rdf-syntax-ns#"
   xmlns:svg="http://www.w3.org/2000/svg"
   xmlns="http://www.w3.org/2000/svg"
   xmlns:sodipodi="http://sodipodi.sourceforge.net/DTD/sodipodi-0.dtd"
   xmlns:inkscape="http://www.inkscape.org/namespaces/inkscape"
   width="16"
   height="16"
   id="svg4159"
   version="1.1"
   inkscape:version="0.91 r13725"
   viewBox="0 0 16 16"
   sodipodi:docname="gparted-symbolic.svg">
  <defs
     id="defs4161">
    <inkscape:perspective
       sodipodi:type="inkscape:persp3d"
       inkscape:vp_x="0 : 8 : 1"
       inkscape:vp_y="0 : 1000 : 0"
       inkscape:vp_z="16 : 8 : 1"
       inkscape:persp3d-origin="8 : 5.3333333 : 1"
       id="perspective4709" />
    <linearGradient
       x1="0"
       y1="0"
       x2="1"
       y2="0"
       gradientUnits="userSpaceOnUse"
       gradientTransform="matrix(0,150.61848,150.61848,0,251.27441,183.7959)"
       spreadMethod="pad"
       id="linearGradient5199">
      <stop
         style="stop-opacity:1;stop-color:#a81e22"
         offset="0"
         id="stop5201" />
      <stop
         style="stop-opacity:1;stop-color:#d02026"
         offset="0.395203"
         id="stop5203" />
      <stop
         style="stop-opacity:1;stop-color:#e51e26"
         offset="1"
         id="stop5205" />
    </linearGradient>
    <radialGradient
       r="90"
       cy="82.599998"
       cx="127.5"
       spreadMethod="pad"
       id="cf"
       fx="127.5"
       fy="82.599998"
       gradientUnits="userSpaceOnUse"
       gradientTransform="matrix(0.05568713,0,0,0.05568713,0.89807831,0.89432044)">
      <stop
         offset="0.1"
         stop-color="#7FB3DF"
         id="stop24" />
      <stop
         offset="0.9"
         stop-color="#0F5B94"
         id="stop26" />
    </radialGradient>
    <radialGradient
       gradientUnits="userSpaceOnUse"
       fy="108.80645"
       fx="122.26707"
       gradientTransform="matrix(0.05816134,0,0,0.06748082,-0.00427134,0.0071556)"
       r="122.76932"
       cy="108.80645"
       cx="122.26707"
       id="g">
      <stop
         offset="0.65"
         stop-color="#4cb749"
         id="stop12" />
      <stop
         offset="1"
         stop-color="#388b41"
         id="stop14" />
    </radialGradient>
    <radialGradient
       gradientUnits="userSpaceOnUse"
       r="78.326784"
       fy="19.524991"
       fx="106.73546"
       gradientTransform="matrix(0.07718349,0,0,0.05084994,-0.00427134,0.0071556)"
       cy="19.524991"
       cx="106.73546"
       id="r">
      <stop
         stop-color="#f06b59"
         id="stop7" />
      <stop
         offset="1"
         stop-color="#df2227"
         id="stop9" />
    </radialGradient>
    <radialGradient
       gradientUnits="userSpaceOnUse"
       fy="102.2451"
       fx="187.90098"
       gradientTransform="matrix(0.05413226,0,0,0.07250343,-0.00427134,0.0071556)"
       r="111.5125"
       cy="102.2451"
       cx="187.90098"
       id="y">
      <stop
         offset="0.6"
         stop-color="#FCD209"
         id="stop17" />
      <stop
         offset="0.7"
         stop-color="#f7c616"
         id="stop19" />
      <stop
         offset="1"
         stop-color="#bc821e"
         id="stop21" />
    </radialGradient>
  </defs>
  <sodipodi:namedview
     id="base"
     pagecolor="#222222"
     bordercolor="#00fff6"
     borderopacity="1"
     inkscape:pageopacity="0"
     inkscape:pageshadow="2"
     inkscape:zoom="22.197803"
     inkscape:cx="11.237159"
     inkscape:cy="7.3243373"
     inkscape:current-layer="layer1"
     showgrid="false"
     inkscape:grid-bbox="true"
     inkscape:document-units="px"
     inkscape:window-width="1366"
     inkscape:window-height="704"
     inkscape:window-x="0"
     inkscape:window-y="27"
     inkscape:window-maximized="1"
     showguides="false"
     inkscape:guide-bbox="true">
    <inkscape:grid
       type="xygrid"
       id="grid4707" />
    <sodipodi:guide
       position="8,5"
       orientation="1,0"
       id="guide4164" />
    <sodipodi:guide
       position="6,8"
       orientation="0,1"
       id="guide4166" />
  </sodipodi:namedview>
  <metadata
     id="metadata4164">
    <rdf:RDF>
      <cc:Work
         rdf:about="">
        <dc:format>image/svg+xml</dc:format>
        <dc:type
           rdf:resource="http://purl.org/dc/dcmitype/StillImage" />
        <dc:title></dc:title>
        <cc:license
           rdf:resource="http://creativecommons.org/licenses/by-nc-nd/3.0/" />
        <dc:creator>
          <cc:Agent>
            <dc:title>Chris D</dc:title>
          </cc:Agent>
        </dc:creator>
        <dc:description>diazchris.deviantart.com</dc:description>
      </cc:Work>
      <cc:License
         rdf:about="http://creativecommons.org/licenses/by-nc-nd/3.0/">
        <cc:permits
           rdf:resource="http://creativecommons.org/ns#Reproduction" />
        <cc:permits
           rdf:resource="http://creativecommons.org/ns#Distribution" />
        <cc:requires
           rdf:resource="http://creativecommons.org/ns#Notice" />
        <cc:requires
           rdf:resource="http://creativecommons.org/ns#Attribution" />
        <cc:prohibits
           rdf:resource="http://creativecommons.org/ns#CommercialUse" />
      </cc:License>
    </rdf:RDF>
  </metadata>
  <g
     id="layer1"
     inkscape:label="Layer 1"
     inkscape:groupmode="layer">
    <path
       style="opacity:0.99957718;fill:#b3b3b3;fill-opacity:1;fill-rule:nonzero;stroke:none;stroke-width:1;stroke-linecap:butt;stroke-linejoin:miter;stroke-miterlimit:4;stroke-dasharray:none;stroke-dashoffset:0;stroke-opacity:1"
       d="M 0 8 A 8 8 0 0 0 0.017578125 8.3671875 A 0.5 0.5 0 0 1 0.5 8 L 0 8 z M 0.5 8 A 0.5 0.5 0 0 1 1 8.5 A 0.5 0.5 0 0 1 0.5 9 A 0.5 0.5 0 0 1 0.033203125 8.6816406 A 8 8 0 0 0 7.3183594 15.966797 A 0.5 0.5 0 0 1 7 15.5 A 0.5 0.5 0 0 1 7.5 15 A 0.5 0.5 0 0 1 8 15.5 L 8 13.5 A 0.5 0.5 0 0 1 7.5 14 A 0.5 0.5 0 0 1 7 13.5 A 0.5 0.5 0 0 1 7.5 13 A 0.5 0.5 0 0 1 8 13.5 L 8 11.5 A 0.5 0.5 0 0 1 7.5 12 A 0.5 0.5 0 0 1 7 11.5 A 0.5 0.5 0 0 1 7.5 11 A 0.5 0.5 0 0 1 8 11.5 L 8 11 A 3 3 0 0 1 5 8 L 4.5 8 A 0.5 0.5 0 0 1 5 8.5 A 0.5 0.5 0 0 1 4.5 9 A 0.5 0.5 0 0 1 4 8.5 A 0.5 0.5 0 0 1 4.5 8 L 2.5 8 A 0.5 0.5 0 0 1 3 8.5 A 0.5 0.5 0 0 1 2.5 9 A 0.5 0.5 0 0 1 2 8.5 A 0.5 0.5 0 0 1 2.5 8 L 0.5 8 z M 8 15.5 A 0.5 0.5 0 0 1 7.6132812 15.986328 A 8 8 0 0 0 8 16 L 8 15.5 z M 7.6132812 15.986328 A 8 8 0 0 1 7.3183594 15.966797 A 0.5 0.5 0 0 0 7.5 16 A 0.5 0.5 0 0 0 7.6132812 15.986328 z M 0.033203125 8.6816406 A 8 8 0 0 1 0.017578125 8.3671875 A 0.5 0.5 0 0 0 0 8.5 A 0.5 0.5 0 0 0 0.033203125 8.6816406 z M 1.5 9 A 0.5 0.5 0 0 1 2 9.5 A 0.5 0.5 0 0 1 1.5 10 A 0.5 0.5 0 0 1 1 9.5 A 0.5 0.5 0 0 1 1.5 9 z M 3.5 9 A 0.5 0.5 0 0 1 4 9.5 A 0.5 0.5 0 0 1 3.5 10 A 0.5 0.5 0 0 1 3 9.5 A 0.5 0.5 0 0 1 3.5 9 z M 2.5 10 A 0.5 0.5 0 0 1 3 10.5 A 0.5 0.5 0 0 1 2.5 11 A 0.5 0.5 0 0 1 2 10.5 A 0.5 0.5 0 0 1 2.5 10 z M 4.5 10 A 0.5 0.5 0 0 1 5 10.5 A 0.5 0.5 0 0 1 4.5 11 A 0.5 0.5 0 0 1 4 10.5 A 0.5 0.5 0 0 1 4.5 10 z M 1.5 11 A 0.5 0.5 0 0 1 2 11.5 A 0.5 0.5 0 0 1 1.5 12 A 0.5 0.5 0 0 1 1 11.5 A 0.5 0.5 0 0 1 1.5 11 z M 3.5 11 A 0.5 0.5 0 0 1 4 11.5 A 0.5 0.5 0 0 1 3.5 12 A 0.5 0.5 0 0 1 3 11.5 A 0.5 0.5 0 0 1 3.5 11 z M 5.5 11 A 0.5 0.5 0 0 1 6 11.5 A 0.5 0.5 0 0 1 5.5 12 A 0.5 0.5 0 0 1 5 11.5 A 0.5 0.5 0 0 1 5.5 11 z M 2.5 12 A 0.5 0.5 0 0 1 3 12.5 A 0.5 0.5 0 0 1 2.5 13 A 0.5 0.5 0 0 1 2 12.5 A 0.5 0.5 0 0 1 2.5 12 z M 4.5 12 A 0.5 0.5 0 0 1 5 12.5 A 0.5 0.5 0 0 1 4.5 13 A 0.5 0.5 0 0 1 4 12.5 A 0.5 0.5 0 0 1 4.5 12 z M 6.5 12 A 0.5 0.5 0 0 1 7 12.5 A 0.5 0.5 0 0 1 6.5 13 A 0.5 0.5 0 0 1 6 12.5 A 0.5 0.5 0 0 1 6.5 12 z M 3.5 13 A 0.5 0.5 0 0 1 4 13.5 A 0.5 0.5 0 0 1 3.5 14 A 0.5 0.5 0 0 1 3 13.5 A 0.5 0.5 0 0 1 3.5 13 z M 5.5 13 A 0.5 0.5 0 0 1 6 13.5 A 0.5 0.5 0 0 1 5.5 14 A 0.5 0.5 0 0 1 5 13.5 A 0.5 0.5 0 0 1 5.5 13 z M 4.5 14 A 0.5 0.5 0 0 1 5 14.5 A 0.5 0.5 0 0 1 4.5 15 A 0.5 0.5 0 0 1 4 14.5 A 0.5 0.5 0 0 1 4.5 14 z M 6.5 14 A 0.5 0.5 0 0 1 7 14.5 A 0.5 0.5 0 0 1 6.5 15 A 0.5 0.5 0 0 1 6 14.5 A 0.5 0.5 0 0 1 6.5 14 z "
       id="path4176" />
    <path
       style="opacity:0.99957718;fill:#b3b3b3;fill-opacity:1;fill-rule:nonzero;stroke:none;stroke-width:1;stroke-linecap:butt;stroke-linejoin:miter;stroke-miterlimit:4;stroke-dasharray:none;stroke-dashoffset:0;stroke-opacity:1"
       d="M 13.654297 13.654297 L 10.119141 10.119141 A 3 3 0 0 1 8 11 L 8 16 A 8 8 0 0 0 13.654297 13.654297 z "
       id="path4174" />
    <path
       style="opacity:0.99957718;fill:#b3b3b3;fill-opacity:1;fill-rule:nonzero;stroke:none;stroke-width:1;stroke-linecap:butt;stroke-linejoin:miter;stroke-miterlimit:4;stroke-dasharray:none;stroke-dashoffset:0;stroke-opacity:1"
       d="M 13.654297 2.3457031 L 10.119141 5.8808594 A 3 3 0 0 1 11 8 A 3 3 0 0 1 10.119141 10.119141 L 13.654297 13.654297 A 8 8 0 0 0 16 8 A 8 8 0 0 0 15.980469 7.6367188 A 0.5 0.5 0 0 1 15.5 8 A 0.5 0.5 0 0 1 15 7.5 A 0.5 0.5 0 0 1 15.5 7 A 0.5 0.5 0 0 1 15.964844 7.3144531 A 8 8 0 0 0 13.654297 2.3457031 z M 15.964844 7.3144531 A 8 8 0 0 1 15.980469 7.6367188 A 0.5 0.5 0 0 0 16 7.5 A 0.5 0.5 0 0 0 15.964844 7.3144531 z M 13.5 3 A 0.5 0.5 0 0 1 14 3.5 A 0.5 0.5 0 0 1 13.5 4 A 0.5 0.5 0 0 1 13 3.5 A 0.5 0.5 0 0 1 13.5 3 z M 12.5 4 A 0.5 0.5 0 0 1 13 4.5 A 0.5 0.5 0 0 1 12.5 5 A 0.5 0.5 0 0 1 12 4.5 A 0.5 0.5 0 0 1 12.5 4 z M 14.5 4 A 0.5 0.5 0 0 1 15 4.5 A 0.5 0.5 0 0 1 14.5 5 A 0.5 0.5 0 0 1 14 4.5 A 0.5 0.5 0 0 1 14.5 4 z M 11.5 5 A 0.5 0.5 0 0 1 12 5.5 A 0.5 0.5 0 0 1 11.5 6 A 0.5 0.5 0 0 1 11 5.5 A 0.5 0.5 0 0 1 11.5 5 z M 13.5 5 A 0.5 0.5 0 0 1 14 5.5 A 0.5 0.5 0 0 1 13.5 6 A 0.5 0.5 0 0 1 13 5.5 A 0.5 0.5 0 0 1 13.5 5 z M 12.5 6 A 0.5 0.5 0 0 1 13 6.5 A 0.5 0.5 0 0 1 12.5 7 A 0.5 0.5 0 0 1 12 6.5 A 0.5 0.5 0 0 1 12.5 6 z M 14.5 6 A 0.5 0.5 0 0 1 15 6.5 A 0.5 0.5 0 0 1 14.5 7 A 0.5 0.5 0 0 1 14 6.5 A 0.5 0.5 0 0 1 14.5 6 z M 11.5 7 A 0.5 0.5 0 0 1 12 7.5 A 0.5 0.5 0 0 1 11.5 8 A 0.5 0.5 0 0 1 11 7.5 A 0.5 0.5 0 0 1 11.5 7 z M 13.5 7 A 0.5 0.5 0 0 1 14 7.5 A 0.5 0.5 0 0 1 13.5 8 A 0.5 0.5 0 0 1 13 7.5 A 0.5 0.5 0 0 1 13.5 7 z M 12.5 8 A 0.5 0.5 0 0 1 13 8.5 A 0.5 0.5 0 0 1 12.5 9 A 0.5 0.5 0 0 1 12 8.5 A 0.5 0.5 0 0 1 12.5 8 z M 14.5 8 A 0.5 0.5 0 0 1 15 8.5 A 0.5 0.5 0 0 1 14.5 9 A 0.5 0.5 0 0 1 14 8.5 A 0.5 0.5 0 0 1 14.5 8 z M 11.5 9 A 0.5 0.5 0 0 1 12 9.5 A 0.5 0.5 0 0 1 11.5 10 A 0.5 0.5 0 0 1 11 9.5 A 0.5 0.5 0 0 1 11.5 9 z M 13.5 9 A 0.5 0.5 0 0 1 14 9.5 A 0.5 0.5 0 0 1 13.5 10 A 0.5 0.5 0 0 1 13 9.5 A 0.5 0.5 0 0 1 13.5 9 z M 12.5 10 A 0.5 0.5 0 0 1 13 10.5 A 0.5 0.5 0 0 1 12.5 11 A 0.5 0.5 0 0 1 12 10.5 A 0.5 0.5 0 0 1 12.5 10 z M 14.5 10 A 0.5 0.5 0 0 1 15 10.5 A 0.5 0.5 0 0 1 14.5 11 A 0.5 0.5 0 0 1 14 10.5 A 0.5 0.5 0 0 1 14.5 10 z M 13.5 11 A 0.5 0.5 0 0 1 14 11.5 A 0.5 0.5 0 0 1 13.5 12 A 0.5 0.5 0 0 1 13 11.5 A 0.5 0.5 0 0 1 13.5 11 z "
       id="path4169" />
    <path
       style="opacity:0.99957718;fill:#b3b3b3;fill-opacity:1;fill-rule:nonzero;stroke:none;stroke-width:1;stroke-linecap:butt;stroke-linejoin:miter;stroke-miterlimit:4;stroke-dasharray:none;stroke-dashoffset:0;stroke-opacity:1"
       d="M 8 0 A 8 8 0 0 0 0 8 L 5 8 A 3 3 0 0 1 8 5 A 3 3 0 0 1 10.119141 5.8808594 L 13.654297 2.3457031 A 8 8 0 0 0 8 0 z "
       id="path4156" />
    <circle
       style="opacity:0.99957718;fill:#b3b3b3;fill-opacity:1;fill-rule:nonzero;stroke:none;stroke-width:1;stroke-linecap:butt;stroke-linejoin:miter;stroke-miterlimit:4;stroke-dasharray:none;stroke-dashoffset:0;stroke-opacity:1"
       id="path4277"
       cx="13.5"
       cy="12.5"
       r="0.5" />
  </g>
</svg>
