<?xml version="1.0" encoding="UTF-8" standalone="no"?>
<!-- Created with Inkscape (http://www.inkscape.org/) -->

<svg
   xmlns:dc="http://purl.org/dc/elements/1.1/"
   xmlns:cc="http://creativecommons.org/ns#"
   xmlns:rdf="http://www.w3.org/1999/02/22-rdf-syntax-ns#"
   xmlns:svg="http://www.w3.org/2000/svg"
   xmlns="http://www.w3.org/2000/svg"
   xmlns:sodipodi="http://sodipodi.sourceforge.net/DTD/sodipodi-0.dtd"
   xmlns:inkscape="http://www.inkscape.org/namespaces/inkscape"
   width="16"
   height="16"
   id="svg4159"
   version="1.1"
   inkscape:version="0.91 r13725"
   viewBox="0 0 16 16"
   sodipodi:docname="preferences-desktop-keyboard-symbolic.svg">
  <defs
     id="defs4161">
    <inkscape:perspective
       sodipodi:type="inkscape:persp3d"
       inkscape:vp_x="0 : 8 : 1"
       inkscape:vp_y="0 : 1000 : 0"
       inkscape:vp_z="16 : 8 : 1"
       inkscape:persp3d-origin="8 : 5.3333333 : 1"
       id="perspective4709" />
  </defs>
  <sodipodi:namedview
     id="base"
     pagecolor="#222222"
     bordercolor="#00fff6"
     borderopacity="1"
     inkscape:pageopacity="0"
     inkscape:pageshadow="2"
     inkscape:zoom="31.392433"
     inkscape:cx="8.8983161"
     inkscape:cy="5.6096207"
     inkscape:current-layer="layer1"
     showgrid="false"
     inkscape:grid-bbox="true"
     inkscape:document-units="px"
     inkscape:window-width="1366"
     inkscape:window-height="704"
     inkscape:window-x="0"
     inkscape:window-y="27"
     inkscape:window-maximized="1"
     showguides="true"
     inkscape:guide-bbox="true">
    <inkscape:grid
       type="xygrid"
       id="grid4707" />
  </sodipodi:namedview>
  <metadata
     id="metadata4164">
    <rdf:RDF>
      <cc:Work
         rdf:about="">
        <dc:format>image/svg+xml</dc:format>
        <dc:type
           rdf:resource="http://purl.org/dc/dcmitype/StillImage" />
        <dc:title></dc:title>
        <cc:license
           rdf:resource="http://creativecommons.org/licenses/by-nc-nd/3.0/" />
        <dc:creator>
          <cc:Agent>
            <dc:title>Chris D</dc:title>
          </cc:Agent>
        </dc:creator>
        <dc:description>diazchris.deviantart.com</dc:description>
      </cc:Work>
      <cc:License
         rdf:about="http://creativecommons.org/licenses/by-nc-nd/3.0/">
        <cc:permits
           rdf:resource="http://creativecommons.org/ns#Reproduction" />
        <cc:permits
           rdf:resource="http://creativecommons.org/ns#Distribution" />
        <cc:requires
           rdf:resource="http://creativecommons.org/ns#Notice" />
        <cc:requires
           rdf:resource="http://creativecommons.org/ns#Attribution" />
        <cc:prohibits
           rdf:resource="http://creativecommons.org/ns#CommercialUse" />
      </cc:License>
    </rdf:RDF>
  </metadata>
  <g
     id="layer1"
     inkscape:label="Layer 1"
     inkscape:groupmode="layer">
    <path
       style="opacity:0.99957718;fill:#bebebe;fill-opacity:1;fill-rule:nonzero;stroke:none;stroke-width:1;stroke-linecap:square;stroke-linejoin:miter;stroke-miterlimit:4;stroke-dasharray:none;stroke-dashoffset:0;stroke-opacity:1"
       d="M 0 0 L 0 8 L 8 8 L 8 0 L 0 0 z M 1 1 L 7 1 L 7 7 L 1 7 L 1 1 z "
       id="rect4137" />
    <path
       style="opacity:0.99957718;fill:#bebebe;fill-opacity:1;fill-rule:nonzero;stroke:none;stroke-width:1;stroke-linecap:square;stroke-linejoin:miter;stroke-miterlimit:4;stroke-dasharray:none;stroke-dashoffset:0;stroke-opacity:1"
       d="M 8 0 L 8 8 L 16 8 L 16 0 L 8 0 z M 9 1 L 15 1 L 15 7 L 9 7 L 9 1 z "
       id="rect4139" />
    <path
       style="opacity:0.99957718;fill:#bebebe;fill-opacity:1;fill-rule:nonzero;stroke:none;stroke-width:1;stroke-linecap:square;stroke-linejoin:miter;stroke-miterlimit:4;stroke-dasharray:none;stroke-dashoffset:0;stroke-opacity:1"
       d="M 4 8 L 4 16 L 16 16 L 16 8 L 4 8 z M 5 9 L 15 9 L 15 15 L 5 15 L 5 9 z "
       id="rect4141" />
    <g
       style="font-style:normal;font-variant:normal;font-weight:bold;font-stretch:normal;font-size:10px;line-height:125%;font-family:'Museo Sans';-inkscape-font-specification:'Museo Sans, Bold';text-align:start;letter-spacing:0px;word-spacing:0px;writing-mode:lr-tb;text-anchor:start;fill:#bebebe;fill-opacity:1;stroke:none;stroke-width:1px;stroke-linecap:butt;stroke-linejoin:miter;stroke-opacity:1"
       id="text4156"
       transform="matrix(0.5589559,0,0,0.5589559,-3.4019622,-2.3843384)">
      <path
         d="m 10.38,15 5.58,0 0,-1.5 -2.82,0 c -0.32,0 -0.55,0.03 -0.55,0.03 l 0,-0.02 c 0,0 0.24,-0.21 0.55,-0.65 l 2.77,-3.93 0,-1.08 -5.4,0 0,1.5 2.63,0 c 0.32,0 0.55,-0.03 0.55,-0.03 l 0,0.02 c 0,0 -0.24,0.21 -0.55,0.65 l -2.76,3.91 0,1.1 z"
         id="path4179"
         inkscape:connector-curvature="0"
         style="fill:#bebebe" />
    </g>
    <g
       style="font-style:normal;font-variant:normal;font-weight:bold;font-stretch:normal;font-size:10px;line-height:125%;font-family:'Museo Sans';-inkscape-font-specification:'Museo Sans, Bold';text-align:start;letter-spacing:0px;word-spacing:0px;writing-mode:lr-tb;text-anchor:start;fill:#bebebe;fill-opacity:1;stroke:none;stroke-width:1px;stroke-linecap:butt;stroke-linejoin:miter;stroke-opacity:1"
       id="text4160"
       transform="matrix(0.56210621,0,0,0.56210621,0.5598785,-3.5558056)">
      <path
         d="m 17.16,17 1.94,0 0.82,-1.5 c 0.25,-0.45 0.44,-0.89 0.44,-0.89 l 0.02,0 c 0,0 0.19,0.44 0.44,0.89 l 0.82,1.5 1.95,0 -2.18,-3.55 2.19,-3.6 -1.99,0 -0.79,1.47 c -0.25,0.46 -0.44,0.92 -0.44,0.92 l -0.02,0 c 0,0 -0.2,-0.47 -0.44,-0.92 l -0.78,-1.47 -1.99,0 2.18,3.6 -2.17,3.55 z"
         id="path4176"
         inkscape:connector-curvature="0"
         style="fill:#bebebe" />
    </g>
    <g
       style="font-style:normal;font-variant:normal;font-weight:bold;font-stretch:normal;font-size:10px;line-height:125%;font-family:'Museo Sans';-inkscape-font-specification:'Museo Sans, Bold';text-align:start;letter-spacing:0px;word-spacing:0px;writing-mode:lr-tb;text-anchor:start;fill:#bebebe;fill-opacity:1;stroke:none;stroke-width:1px;stroke-linecap:butt;stroke-linejoin:miter;stroke-opacity:1"
       id="text4164"
       transform="matrix(0.55576183,0,0,0.55576183,0.10885034,0.63392806)">
      <path
         d="m 15.86,24 1.8,0 -2.43,-7.15 -1.84,0 -2.43,7.15 1.8,0 0.43,-1.5 2.23,0 0.44,1.5 z m -1.54,-5.52 c 0,0 0.16,0.78 0.29,1.23 l 0.4,1.39 -1.41,0 0.41,-1.39 c 0.13,-0.45 0.29,-1.23 0.29,-1.23 l 0.02,0 z"
         id="path4169"
         inkscape:connector-curvature="0"
         style="fill:#bebebe" />
      <path
         d="m 18.191094,22.1 c 0,1.73 0.98,1.95 1.9,1.95 0.28,0 0.52,-0.03 0.52,-0.03 l 0,-1.5 c 0,0 -0.1,0.01 -0.21,0.01 -0.39,0 -0.48,-0.17 -0.48,-0.66 l 0,-5.02 -1.73,0 0,5.25 z"
         id="path4171"
         inkscape:connector-curvature="0"
         style="fill:#bebebe" />
      <path
         d="m 21.704687,22.1 c 0,1.73 1.590001,1.95 2.41,1.95 0.28,0 0.47,-0.03 0.47,-0.03 l 0,-1.5 c 0,0 -0.09,0.01 -0.23,0.01 -0.33,0 -0.92,-0.08 -0.92,-0.66 l 0,-1.58 1.08,0 0,-1.35 -1.08,0 0,-1.48 -1.68,0 0,1.48 -0.71,0 0,1.35 0.66,0 0,1.81 z"
         id="path4173"
         inkscape:connector-curvature="0"
         style="fill:#bebebe" />
    </g>
  </g>
</svg>
